<?xml version="1.0" standalone="no"?>
<!DOCTYPE svg PUBLIC "-//W3C//DTD SVG 1.1//EN" "http://www.w3.org/Graphics/SVG/1.1/DTD/svg11.dtd" >
<svg xmlns="http://www.w3.org/2000/svg">
<metadata>
Created by FontPrep 20130207 at Fri Mar 13 13:52:05 2015
 By Johnathan Burgess
Copyright (c) 2010-13 by Vernon Adams
</metadata>
<defs>
<font id="bdaf9aba41ed91bd6805e3dbe9dcbaaf" horiz-adv-x='1024' >
  <font-face 
    font-family="Oswald-RegularItalic"
    font-weight="400"
    font-style="italic"
    font-stretch="normal"
    units-per-em="2048"
    panose-1="2 0 5 3 0 0 0 0 0 0"
    ascent="1638"
    descent="-410"
    x-height="1184"
    cap-height="1658"
    bbox="-174 -598 2468 2247.02"
    underline-thickness="4"
    underline-position="-13"
    unicode-range="U+0020-FB04"
  />
<missing-glyph horiz-adv-x="748" 
d="M68 0v1365h544v-1365h-544zM136 68h408v1229h-408v-1229z" />
    <glyph glyph-name=".notdef" horiz-adv-x="748" 
d="M68 0v1365h544v-1365h-544zM136 68h408v1229h-408v-1229z" />
    <glyph glyph-name=".null" horiz-adv-x="0" 
 />
    <glyph glyph-name="nonmarkingreturn" horiz-adv-x="682" 
 />
    <glyph glyph-name="space" unicode=" " horiz-adv-x="463" 
 />
    <glyph glyph-name="exclam" unicode="!" horiz-adv-x="424" 
d="M163 355l67 1303h215l-208 -1303h-74zM56 0l23 221h215l-24 -221h-214z" />
    <glyph glyph-name="quotedbl" unicode="&#x22;" horiz-adv-x="773" 
d="M550 1152l53 506h191l-130 -506h-114zM247 1152l53 506h191l-130 -506h-114z" />
    <glyph glyph-name="numbersign" unicode="#" horiz-adv-x="990" 
d="M423 752h186l53 209h-185zM25 0l147 593h-92l17 159h115l53 209h-138l16 160h161l135 537h212l-135 -537h184l135 537h211l-135 -537h86l-17 -160h-107l-54 -209h132l-17 -159h-154l-148 -593h-212l148 593h-184l-148 -593h-211z" />
    <glyph glyph-name="dollar" unicode="$" horiz-adv-x="1000" 
d="M775 1250q0 252 -174 251q-209 0 -228 -186q-2 -19 -2 -52q0 -84 88 -175l255 -249q193 -191 193 -401t-114 -323t-270 -130l-16 -144h-70l15 141q-200 4 -287 126t-87 314q0 19 1 39l205 54q-11 -256 63.5 -306.5t152.5 -50.5t137 56t59 178t-57.5 187t-92.5 101
l-253 250q-126 128 -126 274q0 245 121 354t295 116l14 139h70l-14 -140q167 -11 241 -113t75 -298v-16l-195 -52q1 24 1 56z" />
    <glyph glyph-name="percent" unicode="%" horiz-adv-x="1793" 
d="M526 0l638 1662h183l-637 -1662h-184zM1354 -11q-279 0 -279 299q0 37 4 79l15 139q19 185 103.5 279.5t250.5 94.5t230 -92q49 -70 50 -191q0 -38 -5 -81l-16 -155q-38 -372 -353 -372zM1534 592q0 126 -103 126q-76 0 -104 -55.5t-38 -147.5l-17 -156q-2 -35 -2 -60
v-43q2 -46 28 -76t74 -30t79.5 31.5t44 74.5t18.5 105l16 156q4 41 4 75zM423 784q-279 0 -279 296q0 39 5 82l14 138q19 185 103 279.5t250 94.5t231 -91q50 -70 50 -195q0 -37 -4 -78l-17 -154q-19 -182 -104 -277t-249 -95zM440 944q48 0 80 31.5t44.5 74.5t18.5 105
l17 156q3 44 1 117q-1 30 -26.5 57t-69.5 27q-82 0 -109.5 -56t-37.5 -147l-17 -156q-3 -39 -3 -63v-40q2 -46 28 -76t74 -30z" />
    <glyph glyph-name="ampersand" unicode="&#x26;" horiz-adv-x="1240" 
d="M769 1388q0 46 -31 79t-98 33t-114.5 -63t-47.5 -183t69 -313q82 85 152 212.5t70 234.5zM449 158q123 0 239 124l-218 402q-148 -160 -152 -315.5t43 -183t88 -27.5zM103 302q0 286 299 533q-11 25 -39 87.5t-57.5 136.5t-33.5 124q-7 83 -2 126q17 165 123.5 265.5
t264.5 100.5t240 -77q84 -77 84 -192q0 -170 -118 -315.5t-254 -265.5l214 -404q78 124 122 339h211q-12 -114 -75.5 -247.5t-138.5 -225.5q26 -38 67.5 -62t88.5 -24l-23 -217q-124 -17 -240 120q-30 36 -34 40q-147 -162 -372 -162q-170 0 -248 94t-79 226z" />
    <glyph glyph-name="quotesingle" unicode="'" horiz-adv-x="733" 
d="M247 1152l53 506h191l-130 -506h-114z" />
    <glyph glyph-name="parenleft" unicode="(" horiz-adv-x="606" 
d="M331 89q0 -338 139 -338l-14 -142q-148 2 -199.5 72t-80.5 132.5t-42 277.5q-1 25 -1 67q-1 42 5 130q51 813 139.5 1017.5t165.5 285t229 82.5l-15 -143q-92 -2 -147 -134t-82.5 -314.5t-40.5 -308.5q-13 -127 -35 -333t-21 -351z" />
    <glyph glyph-name="parenright" unicode=")" horiz-adv-x="531" 
d="M312 1192q0 290 -103 332q-17 6 -36 7l15 142q119 0 168 -46t74.5 -81t40.5 -92.5t25 -106.5t11.5 -125.5t1.5 -133t-30 -441t-99.5 -612.5t-163.5 -326t-245 -100l15 143q129 3 198 287q40 164 82 560l3 27q1 11 22 216q21 204 21 350z" />
    <glyph glyph-name="asterisk" unicode="*" horiz-adv-x="810" 
d="M348 963l-118 76l188 228l-233 94l66 135l219 -123l6 283h161l-55 -283l246 123l37 -135l-253 -95l141 -227l-136 -76l-107 257z" />
    <glyph glyph-name="plus" unicode="+" horiz-adv-x="843" 
d="M335 438l34 334h-286l17 160h286l35 332h160l-35 -332h296l-17 -160h-296l-35 -334h-159z" />
    <glyph glyph-name="comma" unicode="," horiz-adv-x="381" 
d="M42 -266l-26 92q58 19 93 65t42 109h-114l24 234h222l-25 -228q-10 -108 -62 -172t-154 -100z" />
    <glyph glyph-name="hyphen" unicode="-" horiz-adv-x="653" 
d="M107 542l17 161h456l-17 -161h-456z" />
    <glyph glyph-name="period" unicode="." horiz-adv-x="385" 
d="M53 0l26 241h214l-25 -241h-215z" />
    <glyph glyph-name="slash" unicode="/" horiz-adv-x="751" 
d="M9 0l624 1658h184l-624 -1658h-184z" />
    <glyph glyph-name="zero" unicode="0" horiz-adv-x="1024" 
d="M461 -18q-137 0 -248 82t-114 316q0 44 5 92l74 713q24 229 138 359t322 130t296 -130q69 -102 68 -265q0 -45 -5 -94l-74 -713q-24 -225 -140 -357.5t-322 -132.5zM311 393q0 -237 169 -237q194 0 228 312l75 721q6 43 6 71q0 87 -25.5 164t-142.5 77q-200 0 -229 -312
l-75 -721q-6 -38 -6 -75z" />
    <glyph glyph-name="one" unicode="1" horiz-adv-x="990" 
d="M412 0l145 1382q-10 -11 -150 -38.5t-142 -28.5l17 162q255 64 355 181h161l-174 -1658h-212z" />
    <glyph glyph-name="two" unicode="2" horiz-adv-x="1024" 
d="M784 1311q0 189 -148 189q-202 0 -235 -310l-3 -26q-3 -26 -3 -27h-212l5 54q52 485 448 485q204 0 292 -112q70 -90 70 -260t-68.5 -288.5t-116.5 -181.5q-49 -63 -53 -69l-445 -587h528l-19 -178h-779l16 151l493 661q14 19 52 69t74.5 101t70 133t33.5 196z" />
    <glyph glyph-name="three" unicode="3" horiz-adv-x="1024" 
d="M306 354q0 -78 25 -128q34 -68 143 -68t159 76.5t66 232.5q3 36 3 67q0 96 -31 156q-47 89 -191 89l23 211h29q120 5 186.5 72.5t66.5 244.5q-1 81 -32 137t-138 56t-155.5 -68t-65.5 -201q-3 -27 -4 -32h-212l6 53q21 201 136.5 312t313.5 111t290 -113q74 -92 74 -264
t-82.5 -277.5t-196.5 -136.5q107 -36 159 -142q39 -80 39 -195q0 -38 -4 -80q-53 -485 -460 -485q-199 0 -289 111q-73 89 -72 237q0 36 4 75l5 54h212q-7 -27 -7 -105z" />
    <glyph glyph-name="four" unicode="4" horiz-adv-x="1024" 
d="M317 642h266l79 746zM516 0l47 441h-481l25 235l533 983h263l-107 -1017h185l-21 -201h-185l-46 -441h-213z" />
    <glyph glyph-name="five" unicode="5" horiz-adv-x="1024" 
d="M114 354q0 50 6 106h212q-6 -42 -6 -70v-43q4 -55 16.5 -98.5t50 -70t93.5 -26.5t111.5 29t84 122.5t40.5 213.5q12 121 12 165t-1 64q-8 165 -160 165q-63 0 -116 -39t-87 -98h-181l93 884h709l-23 -210h-516l-62 -471q97 94 251 94q194 0 250.5 -117t56.5 -258
q0 -179 -41.5 -319t-123.5 -267t-305 -127q-224 0 -304 121q-60 92 -60 250z" />
    <glyph glyph-name="six" unicode="6" horiz-adv-x="1024" 
d="M493 158q196 0 228 310q11 117 11 163q0 47 -4 71q-13 72 -51 104.5t-108 32.5q-127 0 -209 -112l-27 -252q-5 -47 -5 -87q0 -230 165 -230zM474 -18q-346 0 -354 435q0 51 6 106l60 570q44 445 209.5 513.5t256.5 68.5q192 -1 278 -97t85 -253l-4 -78h-212q4 35 4 90
t-26 101q-35 62 -141 62q-195 0 -233 -356l-27 -258q89 113 273 113t253 -130q46 -91 46 -228q0 -180 -43 -304.5t-129 -239.5t-302 -115z" />
    <glyph glyph-name="seven" unicode="7" horiz-adv-x="1024" 
d="M294 0l459 1491h-501l17 167h713l-11 -129l-473 -1529h-204z" />
    <glyph glyph-name="eight" unicode="8" horiz-adv-x="1024" 
d="M786 1310q0 198 -154 198q-93 0 -151 -79t-58 -244q0 -212 152 -215q178 4 208 288q3 27 3 52zM490 150q112 0 175 97t63 289q0 229 -173 233q-157 -3 -199 -141.5t-42 -238.5q0 -99 26 -157q38 -82 150 -82zM994 1327q0 -314 -231 -453q171 -114 171 -329q0 -38 -5 -81
q-24 -233 -133.5 -357.5t-324.5 -124.5t-298 124q-64 96 -64 264t45.5 268.5t93.5 147.5t119 88q-153 104 -153 309q0 31 4 65q22 202 130 315t302 113t278 -114q66 -90 66 -235z" />
    <glyph glyph-name="nine" unicode="9" horiz-adv-x="1024" 
d="M783 1272q0 228 -162 228q-195 0 -230 -312q-11 -117 -11 -142v-27q0 -63 16 -105t47.5 -68.5t104.5 -26.5q123 0 205 112l25 250q5 49 5 91zM736 770q-84 -112 -271 -112t-254 130q-46 92 -46 229q0 180 43 304t129 239t299 115q212 0 285.5 -137t70.5 -294
q0 -52 -6 -110l-59 -569q-49 -448 -212 -515.5t-253 -67.5q-194 0 -286 106q-78 89 -79 243l5 78h213q-15 -131 21 -192t145 -60q190 0 228 356z" />
    <glyph glyph-name="colon" unicode=":" horiz-adv-x="402" 
d="M166 850l24 233h215l-24 -233h-215zM96 195l25 231h215l-25 -231h-215z" />
    <glyph glyph-name="semicolon" unicode=";" horiz-adv-x="440" 
d="M170 912l25 242h215l-26 -242h-214zM97 -90l-25 93q117 11 131 139h-114l24 230h221l-24 -224q-11 -112 -61.5 -171.5t-151.5 -66.5z" />
    <glyph glyph-name="less" unicode="&#x3c;" horiz-adv-x="762" 
d="M604 78l-541 415l23 213l628 418l-23 -214l-457 -310l392 -309z" />
    <glyph glyph-name="equal" unicode="=" horiz-adv-x="847" 
d="M159 933l17 162h627l-17 -162h-627zM122 573l17 162h627l-17 -162h-627z" />
    <glyph glyph-name="greater" unicode="&#x3e;" horiz-adv-x="762" 
d="M77 78l23 214l458 311l-393 307l22 214l543 -415l-22 -213z" />
    <glyph glyph-name="question" unicode="?" horiz-adv-x="994" 
d="M276 0l23 220h213l-24 -220h-212zM600 1494q-94 0 -144 -54t-49 -134q0 -9 1 -19l3 -74l-201 -37l-6 71q-2 26 -2 50q0 163 112 273t308 110t294 -112q80 -92 81 -247q0 -252 -156 -418.5t-227.5 -225t-75.5 -62.5l-20 -200h-189l27 254q299 236 365.5 382t66.5 235
q0 88 -46 148q-48 60 -142 60z" />
    <glyph glyph-name="at" unicode="@" horiz-adv-x="1840" 
d="M1148 1081q-82 0 -163.5 -67.5t-147.5 -202t-66 -282.5q0 -68 26 -114t87 -46t115.5 59t84.5 159l123 481q-29 13 -59 13zM1119 1238q74 0 138 -53l23 36h155l-193 -749q-27 -114 -9 -130t42 -16q83 0 159.5 67t142 211t65.5 349q0 206 -74.5 321.5t-182 166.5t-253.5 51
q-320 -1 -540.5 -244.5t-264.5 -655.5q-7 -62 -7 -144t29 -193t150.5 -236t417.5 -125q176 0 378 56l22 -154q-237 -65 -409 -65q-324 0 -553 159t-229 561q0 264 105.5 562.5t353 471.5t562.5 173q508 0 580 -272t72 -363t-6 -163q-21 -184 -97.5 -332.5t-196.5 -235
t-260 -86.5q-87 0 -134 48t-47 120q0 10 1 20q-72 -188 -244 -188q-81 0 -142 47q-102 79 -102 257q0 119 39 233.5t91.5 199t117.5 151t145.5 105.5t154.5 39z" />
    <glyph glyph-name="A" unicode="A" horiz-adv-x="1004" 
d="M373 581h285l-63 763zM-9 0l528 1658h217l180 -1658h-214l-32 421h-343l-123 -421h-213z" />
    <glyph glyph-name="B" unicode="B" horiz-adv-x="1068" 
d="M553 963q142 0 204 65t78 215q3 31 3 59t-6 63q-14 79 -87 103t-219 24h-63l-55 -529h145zM487 161q150 0 212.5 72t80.5 242q4 35 4 66q0 111 -44 173q-56 80 -205 79h-145l-66 -632h163zM633 1658q225 0 322 -102q79 -83 79 -239q0 -35 -4 -74q-33 -316 -271 -350
q141 -35 197 -139q42 -78 42 -198q0 -38 -4 -81q-24 -224 -141 -349.5t-332 -125.5h-439l174 1658h377z" />
    <glyph glyph-name="C" unicode="C" horiz-adv-x="1050" 
d="M500 -18q-212 0 -303.5 103t-95.5 269v33q0 67 6 142l63 594q28 261 137 406.5t351 145.5q242 1 323 -127q61 -94 61 -246q0 -48 -6 -104l-14 -129h-212l12 114q13 123 10 154t-7.5 55t-12.5 38q-24 39 -61 54.5t-96 15.5t-101 -17q-80 -32 -110 -111.5t-46 -217.5
l-69 -661q-7 -62 -7 -136.5t28 -124.5q40 -74 149 -74t156.5 45t65.5 115.5t29 172.5l12 121h212l-13 -121q-37 -379 -263 -473q-86 -36 -198 -36z" />
    <glyph glyph-name="D" unicode="D" horiz-adv-x="1078" 
d="M617 1658q271 0 367 -128q50 -64 62 -134t11 -124q0 -56 -7 -118l-64 -615q-29 -271 -152 -405t-374 -134h-378l174 1658h361zM461 161q134 0 197 58.5t79.5 161t26.5 200.5l58 547q9 80 9 128t-3 79q-8 81 -61.5 119t-170.5 38h-133l-139 -1331h137z" />
    <glyph glyph-name="E" unicode="E" 
d="M82 0l174 1658h638l-17 -166h-414l-59 -555h337l-16 -161h-337l-65 -615h420l-18 -161h-643z" />
    <glyph glyph-name="F" unicode="F" horiz-adv-x="799" 
d="M82 0l174 1658h636l-16 -161h-412l-59 -558h322l-17 -161h-322l-82 -778h-224z" />
    <glyph glyph-name="G" unicode="G" horiz-adv-x="1093" 
d="M471 -21q-223 0 -307 142q-63 106 -63 286q0 62 7 133l60 564q29 279 137 425.5t351 146.5q242 0 330 -118q67 -91 67 -260q0 -50 -6 -108l-7 -61h-209l5 53q8 68 8 110t-3 68q-7 71 -51 105.5t-112 34.5t-102.5 -9.5t-59 -25.5t-63 -69t-58.5 -259l-66 -620
q-7 -65 -7 -143t26 -132q38 -84 170 -84t190 90t79 289l13 124h-214l18 159h416l-86 -820h-142l-2 191q-96 -212 -319 -212z" />
    <glyph glyph-name="H" unicode="H" horiz-adv-x="1145" 
d="M82 0l174 1658h224l-75 -718h436l75 718h224l-174 -1658h-224l82 780h-436l-82 -780h-224z" />
    <glyph glyph-name="I" unicode="I" horiz-adv-x="502" 
d="M94 0l174 1658h219l-174 -1658h-219z" />
    <glyph glyph-name="J" unicode="J" horiz-adv-x="613" 
d="M68 -43h-106l16 161q79 0 125 9.5t77 39.5t44.5 77t22.5 130l134 1284h224l-134 -1289q-23 -215 -108 -314q-84 -98 -295 -98z" />
    <glyph glyph-name="K" unicode="K" horiz-adv-x="1009" 
d="M82 0l174 1658h224l-82 -790l469 790h208l-406 -729l287 -929h-218l-251 826l-112 -177l-69 -649h-224z" />
    <glyph glyph-name="L" unicode="L" horiz-adv-x="810" 
d="M82 0l174 1658h224l-156 -1497h428l-18 -161h-652z" />
    <glyph glyph-name="M" unicode="M" horiz-adv-x="1348" 
d="M77 0l206 1658h219l154 -1354l442 1354h218l-142 -1658h-181l109 1217l-413 -1217h-127l-155 1216l-147 -1216h-183z" />
    <glyph glyph-name="N" unicode="N" horiz-adv-x="1079" 
d="M82 0l174 1658h154l359 -1119l117 1119h188l-174 -1658h-145l-362 1150l-122 -1150h-189z" />
    <glyph glyph-name="O" unicode="O" horiz-adv-x="1101" 
d="M500 -18q-246 0 -336 145q-66 109 -66 273q0 56 8 117l67 634q27 257 145 391q120 133 362 133q242 1 334 -141q66 -102 66 -270q0 -53 -6 -113l-68 -635q-41 -397 -291 -497q-91 -37 -215 -37zM508 158q148 0 200.5 82t67.5 228l76 729q6 48 6 78.5t-2.5 67t-21 76
t-62 60.5t-112.5 21q-138 0 -190 -79t-67 -224l-76 -729q-5 -52 -5 -93t4 -71q8 -68 55 -107t127 -39z" />
    <glyph glyph-name="P" unicode="P" horiz-adv-x="984" 
d="M519 934q152 0 215.5 56t79.5 211q8 59 8 86v36q-2 51 -19.5 112.5t-220.5 61.5h-118l-59 -563h114zM667 1658q215 0 299 -116q66 -92 67 -249q0 -265 -129 -392.5t-329 -127.5h-187l-82 -773h-224l174 1658h411z" />
    <glyph glyph-name="Q" unicode="Q" horiz-adv-x="1104" 
d="M509 158q148 0 201 81t69 229l76 729q5 49 5 89t-4 72q-17 142 -194 142q-138 0 -190.5 -78t-68.5 -225l-76 -729q-5 -50 -5 -91t4 -73q8 -68 55.5 -107t127.5 -39zM501 -18q-408 0 -401 418q0 55 6 117l67 634q27 257 146 390.5t360 133.5q403 0 403 -411q0 -53 -6 -113
l-67 -635q-41 -396 -297 -497q36 -64 105.5 -145t111.5 -116l-123 -96q-62 47 -139 141t-125 180q-13 -1 -41 -1z" />
    <glyph glyph-name="R" unicode="R" horiz-adv-x="1061" 
d="M505 942q152 0 221.5 60.5t86.5 218.5q4 37 4 69q0 98 -37 145q-49 62 -203 62h-113l-58 -555h99zM595 1658q248 0 353 -104q85 -84 85 -252q0 -38 -4 -81q-35 -323 -249 -388l151 -833h-217l-138 782h-187l-83 -782h-224l174 1658h339z" />
    <glyph glyph-name="S" unicode="S" horiz-adv-x="966" 
d="M775 1250q0 252 -174 251q-209 0 -228 -186q-2 -19 -2 -52q0 -84 88 -175l255 -249q193 -191 193 -409q-1 -218 -143 -342q-120 -106 -312.5 -106t-283 122t-90.5 315q0 20 1 42l205 54q-11 -255 94 -327q43 -30 121.5 -30t137.5 56t59 178t-96 230q-19 22 -54 58
l-253 250q-126 128 -126 274q-1 249 137 369q114 100 295 102h7q192 -1 277.5 -102t85.5 -308v-19l-195 -52q1 24 1 56z" />
    <glyph glyph-name="T" unicode="T" horiz-adv-x="817" 
d="M254 0l156 1492h-305l17 166h825l-17 -166h-296l-157 -1492h-223z" />
    <glyph glyph-name="U" unicode="U" horiz-adv-x="1112" 
d="M114 399q0 70 11 149l117 1110h212l-117 -1120q-9 -62 -9 -98q0 -108 20 -172q34 -110 186 -110t210 156q33 86 46 224l118 1120h213l-117 -1110q-34 -340 -178 -466q-116 -100 -334 -100q-118 0 -202 40q-86 42 -124 116q-52 102 -52 261z" />
    <glyph glyph-name="V" unicode="V" horiz-adv-x="1032" 
d="M371 0l-197 1658h209l138 -1236l383 1236h205l-542 -1658h-196z" />
    <glyph glyph-name="W" unicode="W" horiz-adv-x="1490" 
d="M296 0l-98 1658h189l54 -1208l353 1201h159l102 -1205l303 1212h184l-441 -1658h-163l-104 1242l-367 -1242h-171z" />
    <glyph glyph-name="X" unicode="X" horiz-adv-x="984" 
d="M-22 0l438 868l-258 790h207l195 -593l297 593h209l-435 -809l277 -849h-209l-207 632l-305 -632h-209z" />
    <glyph glyph-name="Y" unicode="Y" horiz-adv-x="983" 
d="M337 0l61 582l-247 1076h209l173 -811l338 811h212l-471 -1076l-61 -582h-214z" />
    <glyph glyph-name="Y" unicode="&#x4ae;" horiz-adv-x="983" 
d="M337 0l61 582l-247 1076h209l173 -811l338 811h212l-471 -1076l-61 -582h-214z" />
    <glyph glyph-name="Z" unicode="Z" horiz-adv-x="851" 
d="M28 0l18 161l634 1336h-463l17 161h701l-11 -98l-666 -1399h520l-17 -161h-733z" />
    <glyph glyph-name="bracketleft" unicode="[" horiz-adv-x="689" 
d="M43 -372l213 2030h442l-11 -109h-229l-190 -1811h228l-11 -110h-442z" />
    <glyph glyph-name="backslash" unicode="\" horiz-adv-x="751" 
d="M459 0l-276 1658h184l276 -1658h-184z" />
    <glyph glyph-name="bracketright" unicode="]" horiz-adv-x="629" 
d="M-31 -372l12 109h229l190 1811h-229l11 110h442l-213 -2030h-442z" />
    <glyph glyph-name="asciicircum" unicode="^" horiz-adv-x="898" 
d="M125 1003l342 655h215l205 -655h-201l-128 498l-232 -498h-201z" />
    <glyph glyph-name="underscore" unicode="_" horiz-adv-x="702" 
d="M-77 -269l17 161h702l-16 -161h-703z" />
    <glyph glyph-name="grave" unicode="`" horiz-adv-x="560" 
d="M422 1254l-181 404h213l75 -404h-107z" />
    <glyph glyph-name="a" unicode="a" horiz-adv-x="866" 
d="M281 271q0 -33 21.5 -68.5t69 -35.5t92.5 33.5t69 68.5l36 338q-74 -32 -139.5 -78t-86 -70t-38.5 -60.5t-21 -65.5t-3 -62zM596 916.5q0 45.5 -11 75.5q-19 50 -92 49q-129 0 -146 -171l-7 -58l-209 8q1 4 3 20q25 195 125 278t267 83.5t232 -93.5q50 -72 50 -200
q0 -39 -5 -84l-57 -545q-11 -103 -11 -175t1 -104h-193q-10 101 -10 174q-34 -81 -101 -136t-164 -54.5t-152.5 76.5t-55.5 173t68 223q20 36 66.5 75t72.5 59t104.5 57.5t143.5 63t67 26.5l9 85q5 49 5 94.5z" />
    <glyph glyph-name="b" unicode="b" horiz-adv-x="910" 
d="M646 933q0 101 -108 101q-75 0 -158 -64l-81 -765q67 -55 139 -55t111.5 56t59.5 263l30 283q7 80 7 181zM629 1201q228 0 228 -341v-22q-1 -42 -6 -86l-30 -282q-51 -487 -344 -487q-106 0 -190 105l-9 -88h-212l174 1658h212l-59 -568q107 111 236 111z" />
    <glyph glyph-name="c" unicode="c" horiz-adv-x="836" 
d="M78 286q0 94 10 167l29 275q25 235 105.5 354t276.5 119t257 -96q44 -69 41 -182q0 -45 -6 -96l-8 -69h-192l8 70q5 45 5 91.5t-14 76.5q-22 48 -99 48t-109 -57t-48 -216l-39 -370q-7 -64 -7 -119.5t14 -87.5q22 -54 107 -54t115 84q16 44 25 130l10 92h192l-8 -79
q-20 -187 -98.5 -285.5t-275 -98.5t-255.5 129q-36 80 -36 174z" />
    <glyph glyph-name="d" unicode="d" horiz-adv-x="899" 
d="M508 1034q-92 0 -127 -71.5t-47 -185.5l-35 -329q-7 -78 -7 -112v-42q2 -144 113 -144q65 0 143 48l82 780q-69 56 -122 56zM334 -17h-3q-151 0 -210 113t-31 370l24 229q29 289 117 397.5t224 108.5q106 -1 189 -93l57 550h212l-174 -1658h-212l8 76q-96 -93 -201 -93z
" />
    <glyph glyph-name="e" unicode="e" horiz-adv-x="856" 
d="M602 938q-4 106 -107 106q-80 0 -112.5 -57t-49.5 -216l-6 -66h260l10 107q6 56 5.5 85t-0.5 41zM386 -17q-199 0 -264 119q-46 86 -42 216q0 63 8 137l29 274q26 242 112.5 357t289.5 115t256 -135q30 -79 30 -179.5t-12 -199.5l-11 -97h-468l-17 -160q-3 -34 -4.5 -49
t-3.5 -44t-1.5 -42.5t1 -37t4.5 -34.5q3 -11 9 -27q18 -56 113 -56q114 0 133 198l8 73h207l-6 -48q-39 -380 -371 -380z" />
    <glyph glyph-name="f" unicode="f" horiz-adv-x="584" 
d="M554 1601q47 0 138 -12l-17 -158l-80 10q-60 0 -83.5 -37.5t-31.5 -116.5l-12 -103h182l-16 -158h-182l-108 -1026h-211l108 1026h-143l16 158h143l8 68q22 219 93 284t196 65z" />
    <glyph glyph-name="g" unicode="g" horiz-adv-x="890" 
d="M304 676q0 -162 124 -162q106 0 135 78.5t38 165.5q9 88 9 121v45q-4 129 -122 129q-89 0 -136.5 -84t-47.5 -293zM608 -64q0 44 -30 70t-125 38l-182 15q-35 -24 -73 -70.5t-38 -88.5t14 -60q33 -41 234 -41q200 0 200 137zM786 867q0 -260 -99 -382t-274 -122
q-19 0 -63 6.5t-49 8.5q0 -1 -14 -20.5t-44.5 -65.5t77.5 -60q28 -4 114.5 -12t89.5 -9q249 -26 249 -243q0 -21 -2 -43q-17 -157 -110.5 -225.5t-291.5 -68.5t-283.5 31.5t-105.5 83.5q-13 33 -9 71q10 91 66.5 159t135.5 107q-54 17 -79 48t-25 51q0 78 40.5 129.5
t115.5 113.5q-106 90 -106 261q0 43 6 94q43 421 385 421q172 0 222 -132q16 21 66.5 59.5t105.5 62.5l36 15l38 -138q-43 -9 -117 -36.5t-92 -41.5q17 -56 17 -123z" />
    <glyph glyph-name="h" unicode="h" horiz-adv-x="905" 
d="M701 1201q156 0 156 -196q0 -24 -4 -48l-101 -957h-212l94 896q3 22 3 52q0 86 -83 86q-73 0 -175 -82l-99 -952h-212l174 1658h212l-63 -597q160 140 310 140z" />
    <glyph glyph-name="i" unicode="i" horiz-adv-x="463" 
d="M220 1358l24 227h213l-24 -227h-213zM77 0l124 1184h212l-124 -1184h-212z" />
    <glyph glyph-name="j" unicode="j" horiz-adv-x="468" 
d="M237 1358l24 227h214l-24 -227h-214zM-44 -139q68 0 100 38t39 107l124 1178h212l-126 -1200q-15 -137 -98 -210.5t-217 -73.5q-73 0 -107 13l17 153q30 -5 56 -5z" />
    <glyph glyph-name="k" unicode="k" horiz-adv-x="872" 
d="M66 3l175 1658h212l-105 -996l382 518l222 1l-329 -464l196 -720h-212l-159 611l-122 -157l-48 -451h-212z" />
    <glyph glyph-name="l" unicode="l" horiz-adv-x="464" 
d="M83 0l174 1658h213l-174 -1658h-213z" />
    <glyph glyph-name="m" unicode="m" horiz-adv-x="1359" 
d="M534 1034q-62 0 -159 -76l-101 -958h-211l124 1184h211l-11 -116q153 133 293 133t160 -145q162 145 315 145q100 0 128 -66t28 -110t-4 -68l-101 -957h-212l94 896q2 21 2 51q0 31 -14 59t-76 28t-161 -78l-100 -956h-212l94 896q7 73 -9 106q-16 32 -78 32z" />
    <glyph glyph-name="n" unicode="n" horiz-adv-x="893" 
d="M843 1029q2 -47 -2 -72l-100 -957h-212l94 896q7 73 -9 106q-16 32 -78 32t-161 -77l-101 -957h-211l124 1184h211l-12 -117q158 134 304 134q147 0 153 -172z" />
    <glyph glyph-name="o" unicode="o" horiz-adv-x="863" 
d="M508 1201q312 0 304 -333q0 -50 -7 -106l-36 -341q-35 -328 -223 -408q-70 -30 -166 -30q-96 1 -160 31q-142 67 -142 299q0 51 7 108l35 341q23 215 112.5 327t275.5 112zM397 140q27 0 48.5 8.5t36.5 19.5q14 11 26 34q24 47 32 92.5t15 112.5l39 368q13 123 8 153
q-12 69 -37 92.5t-64.5 23.5t-63.5 -9.5t-40 -30.5q-33 -44 -44.5 -99t-18.5 -130l-39 -368q-13 -124 -8 -153t12 -52t19.5 -34.5t32 -19.5t46.5 -8z" />
    <glyph glyph-name="p" unicode="p" horiz-adv-x="908" 
d="M644 933q0 101 -108 101q-73 0 -159 -64l-81 -764q69 -56 155 -56q114 0 131.5 127.5t24.5 191.5l30 283q7 80 7 181zM626 1201q229 0 229 -344q-1 -17 -2 -42t-4 -63l-30 -282q-51 -487 -344 -487q-106 0 -191 106l-50 -479h-212l165 1574h212l-9 -95q108 112 236 112z
" />
    <glyph glyph-name="q" unicode="q" horiz-adv-x="901" 
d="M511 1034q-54 0 -104 -33.5t-70 -223.5l-35 -329q-7 -78 -7 -112v-42q2 -144 112 -144q66 0 144 48l81 780q-67 56 -121 56zM337 -17h-3q-152 -1 -210 111q-40 76 -40 220q0 68 9 152l23 229q29 288 117.5 397t224.5 109q107 -1 188 -93l8 76h212l-165 -1574h-212l49 466
q-96 -93 -201 -93z" />
    <glyph glyph-name="r" unicode="r" horiz-adv-x="653" 
d="M669 1199q5 0 35 -2l-25 -234q-51 22 -109 22t-104.5 -25t-93.5 -90l-91 -870h-212l124 1184h212l-17 -168q128 183 281 183z" />
    <glyph glyph-name="s" unicode="s" horiz-adv-x="762" 
d="M579 836q-4 208 -120 208q-61 0 -101 -38.5t-40 -100.5t51 -111l186 -188q139 -137 139 -280q0 -175 -105 -259t-252 -84t-223.5 89t-76.5 230v15l182 53q2 -230 135 -230q67 0 110.5 41.5t43.5 118t-82 152.5l-180 169q-120 113 -120 240q0 170 110 264q88 76 224 76.5
t202.5 -85.5t65.5 -215v-12z" />
    <glyph glyph-name="t" unicode="t" horiz-adv-x="625" 
d="M372 -16q-134 0 -179 63t-46 163q0 26 3 54l82 778h-126l15 142h125l37 347h212l-37 -347h191l-14 -142h-191l-81 -763q-2 -20 -2 -51q1 -31 17 -56t72 -25t90 6l-17 -158q-86 -11 -151 -11z" />
    <glyph glyph-name="u" unicode="u" horiz-adv-x="895" 
d="M230 -17q-100 0 -132 77q-24 55 -23.5 99t4.5 68l100 957h212l-94 -896q-2 -21 -2 -50.5t14.5 -58.5t76.5 -29t159 78l100 956h212l-124 -1184h-212l13 118q-155 -135 -304 -135z" />
    <glyph glyph-name="v" unicode="v" horiz-adv-x="785" 
d="M219 0l-112 1184h213l51 -959l251 959h206l-350 -1184h-259z" />
    <glyph glyph-name="w" unicode="w" horiz-adv-x="1201" 
d="M200 0l-66 1184h175l33 -884l253 884h163l68 -881l218 881h174l-319 -1184h-181l-74 848l-251 -848h-193z" />
    <glyph glyph-name="x" unicode="x" horiz-adv-x="794" 
d="M-28 0l331 622l-202 562h205l136 -381l197 381h209l-332 -588l213 -596h-202l-147 408l-208 -408h-200z" />
    <glyph glyph-name="y" unicode="y" horiz-adv-x="799" 
d="M250 -68q6 20 6 45q0 24 -22 196l-133 1011h215l70 -897l252 897h215l-415 -1251q-42 -125 -137.5 -177t-260.5 -52h-28l17 161q148 0 181.5 23.5t39.5 43.5z" />
    <glyph glyph-name="z" unicode="z" horiz-adv-x="707" 
d="M17 0l15 143l460 882h-330l16 159h557l-12 -116l-462 -908h359l-17 -160h-586z" />
    <glyph glyph-name="braceleft" unicode="{" horiz-adv-x="606" 
d="M416 442q0 -44 -6 -98l-33 -318q-14 -88 -14 -123q0 -99 26 -115.5t98 -16.5l-17 -158q-142 0 -189 11.5t-92.5 33.5t-48.5 150v21q0 64 14 197l30 286q8 93 8 130q0 84 -21 106.5t-79 22.5l16 148q53 0 78.5 19t40.5 71.5t27 168.5l30 283q24 225 55 290.5t88.5 91
t125 28.5t134.5 3l-16 -157q-100 0 -122.5 -38t-41.5 -218l-34 -315q-15 -146 -56.5 -215.5t-109.5 -85.5q109 -29 109 -203z" />
    <glyph glyph-name="bar" unicode="|" horiz-adv-x="485" 
d="M63 -303l207 1962h197l-207 -1962h-197z" />
    <glyph glyph-name="braceright" unicode="}" horiz-adv-x="648" 
d="M320 1412q0 35 -2 45q-7 43 -45 54q-23 6 -75 6l16 157q213 0 274 -44t58 -141q-1 -33 -2 -65t-13 -163l-30 -283q-11 -78 -11 -114t4 -73t25 -54.5t74 -17.5l-16 -148q-53 0 -78.5 -19t-40.5 -71.5t-27 -168.5l-30 -286q-21 -185 -34.5 -230.5t-27 -72.5t-28 -41
t-58 -41.5t-256.5 -27.5l17 158q82 1 110 23t36 82t18 150l33 318q16 146 58 215t110 86q-112 26 -110 207q0 42 5 94l34 315q12 116 12 151z" />
    <glyph glyph-name="asciitilde" unicode="~" horiz-adv-x="907" 
d="M636 745q-46 0 -101.5 29.5t-107.5 59t-97 29.5t-148 -79l-65 102q59 54 133 100.5t119 46.5t99 -29t106 -58t80 -29t55.5 13t104.5 68l67 -98q-58 -59 -128.5 -107t-116.5 -48z" />
    <glyph glyph-name="uni00A0" unicode="&#xa0;" horiz-adv-x="463" 
 />
    <glyph glyph-name="exclamdown" unicode="&#xa1;" horiz-adv-x="424" 
d="M169 1070l23 221h215l-24 -221h-214zM17 -367l208 1303h75l-68 -1303h-215z" />
    <glyph glyph-name="cent" unicode="&#xa2;" horiz-adv-x="793" 
d="M79 337q0 43 9 116l29 275q28 270 111.5 361.5t215.5 107.5l15 150h70l-16 -147q185 -2 234.5 -82t49.5 -193q0 -45 -6 -98l-8 -69h-192l8 70q5 46 5 92t-14 76q-22 48 -99 48t-109 -57t-48 -216l-39 -370q-7 -63 -7 -119t14 -88q22 -54 107 -54t107.5 64t32.5 150l10 92
h192l-8 -79q-31 -292 -149 -338t-211 -46l-16 -149h-69l17 152q-163 18 -209 146q-22 60 -24 111t-3 94z" />
    <glyph glyph-name="sterling" unicode="&#xa3;" horiz-adv-x="811" 
d="M598 1675q253 0 253 -284q0 -33 -3 -70l-7 -66h-159q5 65 5 120t-26.5 91t-70.5 36t-82 -24t-58.5 -93.5t-31.5 -161.5l-35 -336h247l-16 -158h-247l-60 -570h418l-17 -159h-751l11 106l126 52l60 571h-120l16 158h120l21 194q26 247 98 420.5t309 173.5z" />
    <glyph glyph-name="currency" unicode="&#xa4;" horiz-adv-x="1121" 
d="M568 514q144 0 261.5 111.5t117.5 282.5q1 120 -81 215t-226 95t-261.5 -111t-117.5 -283q1 -118 82 -214t225 -96zM560 428h-6q-167 0 -278 115l-179 -162l-27 30l180 162q-83 105 -83 242q0 199 145 344l-146 162l33 30l145 -162q135 115 302 115h6q169 0 278 -115
l179 162l27 -30l-179 -162q82 -105 82 -241q0 -200 -145 -345l146 -162l-33 -30l-145 162q-133 -115 -302 -115z" />
    <glyph glyph-name="yen" unicode="&#xa5;" horiz-adv-x="931" 
d="M330 0l25 234h-185l15 139h184l15 138h-184l14 138h162l-232 1009h209l173 -811l338 811h212l-441 -1009h161l-15 -138h-183l-15 -138h183l-14 -139h-183l-25 -234h-214z" />
    <glyph glyph-name="brokenbar" unicode="&#xa6;" horiz-adv-x="433" 
d="M169 819l87 839h171l-87 -839h-171zM49 -318l89 839h170l-88 -839h-171z" />
    <glyph glyph-name="section" unicode="&#xa7;" horiz-adv-x="868" 
d="M340 852q0 -16 12 -44t37 -46l125 -104q42 18 80.5 59.5t39.5 109.5t-66 121l-109 84q-44 -21 -81.5 -67.5t-37.5 -112.5zM825 847q0 -210 -180 -306q39 -37 78.5 -88t39.5 -137q0 -13 -2 -27q-15 -147 -117.5 -226.5t-258.5 -79.5q-206 0 -255.5 124t-58.5 190l166 53
q43 -192 168 -192q62 0 110 36.5t48 118.5q-1 29 -14 62t-64 78l-217 156q-142 95 -141 223q1 127 60.5 202.5t144.5 109.5q-140 97 -140 235t108 216.5t262 78.5q205 0 253.5 -121.5t57.5 -185.5l-166 -54q-33 133 -80 160t-95 27t-89 -36t-41 -99q0 -62 62 -112l244 -172
q117 -86 117 -234z" />
    <glyph glyph-name="dieresis" unicode="&#xa8;" horiz-adv-x="816" 
d="M576 1437l23 221h215l-24 -221h-214zM226 1437l24 221h213l-23 -221h-214z" />
    <glyph glyph-name="copyright" unicode="&#xa9;" horiz-adv-x="1765" 
d="M864 -22q-138 0 -232.5 20t-167 56.5t-207.5 150t-163 481.5q-14 188 67.5 427.5t237 367t300.5 177.5t315 50t358.5 -70t301.5 -310q77 -166 77 -371q0 -335 -170 -586.5t-374.5 -322t-342.5 -70.5zM846 65q146 0 324.5 61.5t333 288t154.5 541.5q0 314 -134 445.5
t-251 174.5t-263 43t-326 -61t-333 -285.5t-153 -539.5q0 -184 58 -308t133.5 -198.5t193 -118t263.5 -43.5zM523 574q0 99 10 171l23 221q22 200 65 286.5t115.5 147t264.5 60.5q193 0 261 -98q46 -70 46 -192q0 -46 -6 -98l-6 -56h-207l6 57q13 129 -13 177
q-26 47 -113 47t-125 -61t-55 -225l-34 -320q-16 -162 11 -218q28 -56 116 -56t121.5 53.5t45.5 168.5l7 65h207l-5 -51q-20 -195 -105 -297.5t-299 -102.5q-225 0 -278 111t-53 210z" />
    <glyph glyph-name="ordfeminine" unicode="&#xaa;" horiz-adv-x="901" 
d="M472 823q40 0 79 28.5t63 69.5l25 237q-43 -22 -62 -31.5t-58.5 -32.5t-82 -67.5t-42.5 -124.5q0 -79 78 -79zM662 1413q0 117 -76 117q-110 0 -129 -180h-174q19 153 103 243t206 90q122 1 178 -45q58 -46 70 -134q6 -42 6 -95t-7 -119l-65 -616h-170l12 129
q-37 -62 -99.5 -102.5t-142.5 -40.5t-128 58t-47 136q0 78 32 135.5t62.5 88.5t115 73.5t151 62.5t74.5 23t14 5l11 106q3 35 3 65z" />
    <glyph glyph-name="guillemotleft" unicode="&#xab;" horiz-adv-x="926" 
d="M753 92l-288 465l11 103l386 465l-28 -266l-200 -249l147 -252zM360 92l-286 465l11 103l384 465l-28 -266l-199 -249l146 -252z" />
    <glyph glyph-name="logicalnot" unicode="&#xac;" horiz-adv-x="788" 
d="M628 528l24 229h-539l17 161h651l-42 -390h-111z" />
    <glyph glyph-name="uni00AD" unicode="&#xad;" horiz-adv-x="702" 
d="M168 937l16 160h470l-17 -160h-469z" />
    <glyph glyph-name="registered" unicode="&#xae;" horiz-adv-x="1816" 
d="M857 -27q-168 0 -301.5 50t-282 196.5t-148.5 487.5t169 590.5t371.5 319.5t340.5 70t231 -20t164 -56t152.5 -104t148.5 -219.5t67 -353.5q0 -173 -51 -322.5t-126.5 -261t-177 -195t-245.5 -133t-312 -49.5zM868 74q142 0 315 60.5t320.5 280.5t147.5 520
q0 180 -56.5 300.5t-129 192t-185 113.5t-254.5 42t-316 -59.5t-322 -277.5t-148 -521q0 -180 56.5 -301t129.5 -193t186.5 -114.5t255.5 -42.5zM905 870q122 0 178 51.5t56 193.5q1 63 -29 105t-121 42h-121l-41 -392h78zM1329 1126q0 -242 -206 -321l143 -515h-193
l-124 478h-132l-51 -478h-185l115 1096h323q310 0 310 -260z" />
    <glyph glyph-name="macron" unicode="&#xaf;" horiz-adv-x="623" 
d="M244 1529l13 129h392l-14 -129h-391z" />
    <glyph glyph-name="degree" unicode="&#xb0;" horiz-adv-x="919" 
d="M208 1285q0 192 112 290.5t268 98.5t232 -82t75 -206q0 -192 -112.5 -291t-268.5 -99t-231 83t-75 206zM529.5 1136q83.5 0 143.5 60t60 170q1 70 -38 119t-123 49t-143 -60t-59 -150t38 -139t121.5 -49z" />
    <glyph glyph-name="plusminus" unicode="&#xb1;" horiz-adv-x="748" 
d="M66 0l17 163h523l-17 -163h-523zM283 359l19 180h-180l18 162h180l18 179h163l-18 -179h180l-18 -162h-180l-19 -180h-163z" />
    <glyph glyph-name="twosuperior" unicode="&#xb2;" horiz-adv-x="828" 
d="M659 1544q-2 114 -100 114h-11q-69 -4 -101.5 -52.5t-45.5 -164.5h-148l4 38q34 314 311 314q128 -1 188 -67t59 -165q0 -143 -69.5 -238.5t-113.5 -153.5l-262 -340h337l-13 -128h-516l13 127l318 414l42 54t71.5 105.5t36.5 142.5z" />
    <glyph glyph-name="threesuperior" unicode="&#xb3;" horiz-adv-x="830" 
d="M436 685q-237 0 -237 238q0 28 3 59l3 26h157l-3 -31q-3 -25 -3 -59q0 -100 99 -101q121 0 140 182q3 27 3 50q0 149 -112 149h-67l11 109h65q69 0 103 46.5t45 153.5q3 22 3 41q0 117 -95 117q-63 0 -93.5 -36.5t-38.5 -110.5l-4 -39h-158l5 41q13 130 89.5 201.5
t208.5 71.5q132 1 187 -67t55 -183t-52.5 -192t-108.5 -90q111 -44 111 -214t-87 -266t-229 -96z" />
    <glyph glyph-name="acute" unicode="&#xb4;" horiz-adv-x="559" 
d="M196 1254l163 404h212l-268 -404h-107z" />
    <glyph glyph-name="mu" unicode="&#xb5;" horiz-adv-x="900" 
d="M295 238q1 -30 15 -59t76 -29t159 78l100 956h212l-124 -1184h-212l13 118q-108 -98 -223 -123q-23 -5 -42 0l-36 -354h-214l160 1543h212l-94 -896q-2 -20 -2 -50z" />
    <glyph glyph-name="paragraph" unicode="&#xb6;" horiz-adv-x="1006" 
d="M157 1315q0 179 114 261t293 82h436l-195 -1853h-152l185 1751h-164l-185 -1751h-151l132 1253q-154 0 -234 72t-79 185z" />
    <glyph glyph-name="periodcentered" unicode="&#xb7;" horiz-adv-x="363" 
d="M101 661l23 221h212l-22 -221h-213z" />
    <glyph glyph-name="cedilla" unicode="&#xb8;" horiz-adv-x="512" 
d="M83.5 -362q46.5 0 82.5 18t39.5 47.5t-4.5 47.5q-14 32 -54 49.5t-99 31.5l18 168h107l-11 -114q88 -14 146 -57.5t58 -107.5v-9q-4 -60 -40 -104q-66 -78 -220 -83h-42q-36 0 -102 20l12 107q63 -14 109.5 -14z" />
    <glyph glyph-name="onesuperior" unicode="&#xb9;" horiz-adv-x="818" 
d="M404 701l95 908q-20 -26 -85 -52.5t-107 -36.5l12 120q163 64 224 141h132l-113 -1080h-158z" />
    <glyph glyph-name="ordmasculine" unicode="&#xba;" horiz-adv-x="901" 
d="M193 952q0 38 4 82l29 275q19 183 101 278.5t252 95.5q277 2 279 -302q0 -34 -4 -72l-30 -275q-17 -175 -103.5 -275.5t-252.5 -100.5t-228 96q-47 73 -47 198zM488 815q34 0 71 19t54.5 75.5t27.5 146.5l24 230q7 92 7 134t-26 75t-75 33q-48 0 -87 -20t-57 -76.5
t-28 -145.5l-24 -230q-13 -123 -1.5 -156t24 -50.5t34.5 -26t56 -8.5z" />
    <glyph glyph-name="guillemotright" unicode="&#xbb;" horiz-adv-x="976" 
d="M470 92l28 266l216 251l-163 250l28 266l303 -465l-10 -103zM78 92l28 266l217 251l-165 250l28 266l305 -465l-10 -103z" />
    <glyph glyph-name="onequarter" unicode="&#xbc;" horiz-adv-x="1643" 
d="M1073 357h171l35 338zM356 0l717 1658h178l-718 -1658h-177zM276 785l65 609l-127 -15l13 112q157 74 244 167h58l-92 -873h-161zM1205 -1l27 248h-300l12 110l373 564l147 1l-58 -565h120l-12 -110h-120l-27 -248h-162z" />
    <glyph glyph-name="onehalf" unicode="&#xbd;" horiz-adv-x="1643" 
d="M363 0l718 1658h178l-718 -1658h-178zM280 785l64 609l-127 -15l12 112q159 73 244 167h59l-92 -873h-160zM1476 797q50 -57 50 -152t-58 -182t-144 -174t-161 -177h303l-12 -110h-467l12 110l219 261q51 51 87 105.5t47.5 90t11.5 71.5v40q0 65 -62 65q-66 0 -76 -50.5
t-13 -82.5h-161q8 117 79 179.5t183 62.5t162 -57z" />
    <glyph glyph-name="threequarters" unicode="&#xbe;" horiz-adv-x="1643" 
d="M1128 357h170l35 338zM424 0l718 1658h178l-718 -1658h-178zM1260 -1l26 248h-300l12 110l374 564h146l-59 -564h121l-12 -110h-121l-26 -248h-161zM505 1469.5q0 95.5 -59 95.5q-45 0 -62.5 -31.5t-24.5 -93.5h-162q12 111 79.5 173t179.5 62t161 -57t49 -158t-57 -153
t-135 -57q154 -12 154 -156q0 -132 -75 -202.5t-188 -70.5q-113 1 -162 57t-49 142q0 18 2 36l162 -1q-3 -34 -3 -79.5t62 -45.5q44 0 66.5 42t22.5 105t-22 90t-87 28l11 110q67 0 102 34.5t35 130z" />
    <glyph glyph-name="questiondown" unicode="&#xbf;" horiz-adv-x="1031" 
d="M563 1063l24 220h212l-23 -220h-213zM874 -15q0 -161 -112 -271t-309 -110t-295 112q-80 92 -80 246q0 203 103 344.5t309 319.5q38 32 47 42l20 201h189l-27 -255q-299 -236 -365.5 -382t-66.5 -235q1 -89 47 -149t140 -60t144 55q50 54 50 134q0 9 -1 19l-3 74l201 37
l6 -70q3 -27 3 -52z" />
    <glyph glyph-name="Agrave" unicode="&#xc0;" horiz-adv-x="1004" 
d="M588 1797l-181 404h213l75 -404h-107zM373 581h285l-63 763zM-9 0l528 1658h217l180 -1658h-214l-32 421h-343l-123 -421h-213z" />
    <glyph glyph-name="Aacute" unicode="&#xc1;" horiz-adv-x="1004" 
d="M587 1797l164 404h212l-268 -404h-108zM373 581h285l-63 763zM-9 0l528 1658h217l180 -1658h-214l-32 421h-343l-123 -421h-213z" />
    <glyph glyph-name="Acircumflex" unicode="&#xc2;" horiz-adv-x="1004" 
d="M356 1797l214 358h217l140 -358h-159l-100 252l-153 -252h-159zM373 581h285l-63 763zM-9 0l528 1658h217l180 -1658h-214l-32 421h-343l-123 -421h-213z" />
    <glyph glyph-name="Atilde" unicode="&#xc3;" horiz-adv-x="1004" 
d="M774 1797q-40 0 -89 25t-92 50q-43 24 -69 26q-53 3 -61 -83h-122q9 97 55 157t135 60h9q52 -2 140 -50t112 -49q46 -2 55 86h120q-23 -226 -188 -222h-5zM373 581h285l-63 763zM-9 0l528 1658h217l180 -1658h-214l-32 421h-343l-123 -421h-213z" />
    <glyph glyph-name="Adieresis" unicode="&#xc4;" horiz-adv-x="1004" 
d="M708 1797l24 221h214l-23 -221h-215zM359 1797l23 221h213l-23 -221h-213zM373 581h285l-63 763zM-9 0l528 1658h217l180 -1658h-214l-32 421h-343l-123 -421h-213z" />
    <glyph glyph-name="Aring" unicode="&#xc5;" horiz-adv-x="1004" 
d="M628 1660q-100 0 -152 56q-51 56 -51 137q0 124 74 191q74 66 175 66t153 -56t52 -138q1 -121 -75 -189q-76 -67 -176 -67zM769 1891q0 112 -106 112q-53 0 -91 -34q-38 -35 -38 -119q0 -26 26 -54t78 -28q54 0 92 34t39 89zM373 581h285l-63 763zM-9 0l528 1658h217
l180 -1658h-214l-32 421h-343l-123 -421h-213z" />
    <glyph glyph-name="AE" unicode="&#xc6;" horiz-adv-x="1299" 
d="M362 584h252l71 673zM-149 0l869 1658h644l-16 -161h-425l-58 -558h304l-17 -160h-304l-65 -618h424l-17 -161h-637l45 422h-313l-222 -422h-212z" />
    <glyph glyph-name="Ccedilla" unicode="&#xc7;" horiz-adv-x="1050" 
d="M444 -362q46 0 82 18t40 48t-5 47q-14 32 -54 50q-40 17 -99 31l16 153q-153 16 -236 109q-83 94 -87 260v33q0 67 6 142l63 594q28 261 137 406q109 146 350 146q242 1 324 -127q61 -94 61 -246q0 -48 -6 -104l-14 -129h-212l12 114q13 123 10 154q-4 31 -8 55t-12 38
q-24 39 -61 55q-37 15 -96 15t-101 -17q-80 -32 -110 -111q-30 -80 -46 -218l-69 -661q-7 -63 -7 -137t28 -124q40 -74 149 -74t156 45q48 45 66 115q18 71 29 173l12 121h212l-13 -121q-37 -379 -263 -473q-72 -30 -167 -35l-9 -97q88 -14 146 -58t58 -107v-9
q-4 -60 -40 -104q-66 -78 -220 -83h-42q-36 0 -102 20l12 107q64 -14 110 -14z" />
    <glyph glyph-name="Egrave" unicode="&#xc8;" 
d="M538 1797l-181 404h213l75 -404h-107zM82 0l174 1658h638l-17 -166h-414l-59 -555h337l-16 -161h-337l-65 -615h420l-18 -161h-643z" />
    <glyph glyph-name="Eacute" unicode="&#xc9;" 
d="M538 1797l164 404h212l-268 -404h-108zM82 0l174 1658h638l-17 -166h-414l-59 -555h337l-16 -161h-337l-65 -615h420l-18 -161h-643z" />
    <glyph glyph-name="Ecircumflex" unicode="&#xca;" 
d="M306 1797l214 358h217l140 -358h-159l-100 252l-153 -252h-159zM82 0l174 1658h638l-17 -166h-414l-59 -555h337l-16 -161h-337l-65 -615h420l-18 -161h-643z" />
    <glyph glyph-name="Edieresis" unicode="&#xcb;" 
d="M659 1797l24 221h214l-23 -221h-215zM310 1797l23 221h213l-23 -221h-213zM82 0l174 1658h638l-17 -166h-414l-59 -555h337l-16 -161h-337l-65 -615h420l-18 -161h-643z" />
    <glyph glyph-name="Igrave" unicode="&#xcc;" horiz-adv-x="502" 
d="M338 1797l-181 404h213l75 -404h-107zM94 0l174 1658h219l-174 -1658h-219z" />
    <glyph glyph-name="Iacute" unicode="&#xcd;" horiz-adv-x="502" 
d="M337 1797l164 404h212l-268 -404h-108zM94 0l174 1658h219l-174 -1658h-219z" />
    <glyph glyph-name="Icircumflex" unicode="&#xce;" horiz-adv-x="502" 
d="M106 1797l214 358h217l140 -358h-159l-100 252l-153 -252h-159zM94 0l174 1658h219l-174 -1658h-219z" />
    <glyph glyph-name="Idieresis" unicode="&#xcf;" horiz-adv-x="502" 
d="M458 1797l24 221h214l-23 -221h-215zM109 1797l23 221h213l-23 -221h-213zM94 0l174 1658h219l-174 -1658h-219z" />
    <glyph glyph-name="Eth" unicode="&#xd0;" horiz-adv-x="1066" 
d="M617 1658q271 0 367 -128q50 -64 62 -134t11 -124q0 -56 -7 -118l-64 -615q-29 -271 -152 -405t-374 -134h-378l84 797h-102l14 129h102l76 732h361zM461 161q134 0 197 58.5t79.5 161t26.5 200.5l58 547q9 80 9 128t-3 79q-8 81 -61.5 119t-170.5 38h-133l-59 -566h128
l-14 -129h-128l-66 -636h137z" />
    <glyph glyph-name="Ntilde" unicode="&#xd1;" horiz-adv-x="1079" 
d="M811 1797q-40 0 -89 25t-92 50q-43 24 -69 26q-53 3 -61 -83h-122q10 97 56 157t134 60h9q52 -2 140 -50q87 -48 111 -49q46 -2 56 86h120q-23 -226 -188 -222h-5zM82 0l174 1658h154l359 -1119l117 1119h188l-174 -1658h-145l-362 1150l-122 -1150h-189z" />
    <glyph glyph-name="Ograve" unicode="&#xd2;" horiz-adv-x="1101" 
d="M638 1797l-181 404h213l75 -404h-107zM500 -18q-246 0 -336 145q-66 109 -66 273q0 56 8 117l67 634q27 257 145 391t362 133q243 1 334 -141q66 -102 66 -270q0 -53 -6 -113l-68 -635q-41 -397 -291 -497q-91 -37 -215 -37zM508 158q148 0 200 82t68 228l76 729
q6 49 6 79t-2 66t-22 76q-18 40 -62 61t-112 21q-138 0 -190 -79t-67 -224l-76 -729q-5 -52 -5 -93t4 -71q8 -68 55 -107t127 -39z" />
    <glyph glyph-name="Oacute" unicode="&#xd3;" horiz-adv-x="1101" 
d="M637 1797l164 404h212l-268 -404h-108zM500 -18q-246 0 -336 145q-66 109 -66 273q0 56 8 117l67 634q27 257 145 391t362 133q243 1 334 -141q66 -102 66 -270q0 -53 -6 -113l-68 -635q-41 -397 -291 -497q-91 -37 -215 -37zM508 158q148 0 200 82t68 228l76 729
q6 49 6 79t-2 66t-22 76q-18 40 -62 61t-112 21q-138 0 -190 -79t-67 -224l-76 -729q-5 -52 -5 -93t4 -71q8 -68 55 -107t127 -39z" />
    <glyph glyph-name="Ocircumflex" unicode="&#xd4;" horiz-adv-x="1101" 
d="M406 1797l214 358h217l140 -358h-159l-100 252l-153 -252h-159zM500 -18q-246 0 -336 145q-66 109 -66 273q0 56 8 117l67 634q27 257 145 391t362 133q243 1 334 -141q66 -102 66 -270q0 -53 -6 -113l-68 -635q-41 -397 -291 -497q-91 -37 -215 -37zM508 158
q148 0 200 82t68 228l76 729q6 49 6 79t-2 66t-22 76q-18 40 -62 61t-112 21q-138 0 -190 -79t-67 -224l-76 -729q-5 -52 -5 -93t4 -71q8 -68 55 -107t127 -39z" />
    <glyph glyph-name="Otilde" unicode="&#xd5;" horiz-adv-x="1101" 
d="M824 1797q-40 0 -89 25t-92 50q-43 24 -69 26q-53 3 -61 -83h-122q9 97 55 157t135 60h9q52 -2 140 -50t112 -49q46 -2 55 86h120q-23 -226 -188 -222h-5zM500 -18q-246 0 -336 145q-66 109 -66 273q0 56 8 117l67 634q27 257 145 391t362 133q243 1 334 -141
q66 -102 66 -270q0 -53 -6 -113l-68 -635q-41 -397 -291 -497q-91 -37 -215 -37zM508 158q148 0 200 82t68 228l76 729q6 49 6 79t-2 66t-22 76q-18 40 -62 61t-112 21q-138 0 -190 -79t-67 -224l-76 -729q-5 -52 -5 -93t4 -71q8 -68 55 -107t127 -39z" />
    <glyph glyph-name="Odieresis" unicode="&#xd6;" horiz-adv-x="1101" 
d="M758 1797l24 221h214l-23 -221h-215zM409 1797l23 221h213l-23 -221h-213zM500 -18q-246 0 -336 145q-66 109 -66 273q0 56 8 117l67 634q27 257 145 391t362 133q243 1 334 -141q66 -102 66 -270q0 -53 -6 -113l-68 -635q-41 -397 -291 -497q-91 -37 -215 -37zM508 158
q148 0 200 82t68 228l76 729q6 49 6 79t-2 66t-22 76q-18 40 -62 61t-112 21q-138 0 -190 -79t-67 -224l-76 -729q-5 -52 -5 -93t4 -71q8 -68 55 -107t127 -39z" />
    <glyph glyph-name="multiply" unicode="&#xd7;" horiz-adv-x="778" 
d="M211 521l-96 107l204 184l-165 184l118 107l164 -183l205 183l95 -107l-204 -184l165 -184l-118 -107l-165 184z" />
    <glyph glyph-name="Oslash" unicode="&#xd8;" horiz-adv-x="1104" 
d="M678 1675q103 0 179 -26l58 156l77 -20l-63 -169q151 -95 151 -353q0 -53 -6 -112l-68 -635q-41 -397 -212 -465.5t-282 -68.5t-185 24l-60 -159l-75 24l63 168q-155 95 -155 362q0 54 6 116l67 634q27 257 145.5 390.5t359.5 133.5zM514 158q142 0 194.5 82t67.5 228
l76 729q6 53 6 105t-13 91l-451 -1206q46 -29 120 -29zM667 1500q-145 0 -197 -79t-67 -224l-76 -729q-6 -53 -6 -110t16 -99l453 1210q-47 31 -123 31z" />
    <glyph glyph-name="Ugrave" unicode="&#xd9;" horiz-adv-x="1112" 
d="M642 1797l-181 404h213l75 -404h-107zM114 399q0 70 11 149l117 1110h212l-117 -1120q-9 -62 -9 -98q0 -108 20 -172q34 -111 185 -110q151 0 211 156q33 86 46 224l118 1120h213l-117 -1110q-34 -340 -178 -466q-116 -100 -334 -100q-118 0 -202 40t-124 116
q-52 102 -52 261z" />
    <glyph glyph-name="Uacute" unicode="&#xda;" horiz-adv-x="1112" 
d="M641 1797l164 404h212l-268 -404h-108zM114 399q0 70 11 149l117 1110h212l-117 -1120q-9 -62 -9 -98q0 -108 20 -172q34 -111 185 -110q151 0 211 156q33 86 46 224l118 1120h213l-117 -1110q-34 -340 -178 -466q-116 -100 -334 -100q-118 0 -202 40t-124 116
q-52 102 -52 261z" />
    <glyph glyph-name="Ucircumflex" unicode="&#xdb;" horiz-adv-x="1112" 
d="M410 1797l214 358h217l140 -358h-159l-100 252l-153 -252h-159zM114 399q0 70 11 149l117 1110h212l-117 -1120q-9 -62 -9 -98q0 -108 20 -172q34 -111 185 -110q151 0 211 156q33 86 46 224l118 1120h213l-117 -1110q-34 -340 -178 -466q-116 -100 -334 -100
q-118 0 -202 40t-124 116q-52 102 -52 261z" />
    <glyph glyph-name="Udieresis" unicode="&#xdc;" horiz-adv-x="1112" 
d="M762 1797l24 221h214l-23 -221h-215zM413 1797l23 221h213l-23 -221h-213zM114 399q0 70 11 149l117 1110h212l-117 -1120q-9 -62 -9 -98q0 -108 20 -172q34 -111 185 -110q151 0 211 156q33 86 46 224l118 1120h213l-117 -1110q-34 -340 -178 -466q-116 -100 -334 -100
q-118 0 -202 40t-124 116q-52 102 -52 261z" />
    <glyph glyph-name="Yacute" unicode="&#xdd;" horiz-adv-x="983" 
d="M577 1797l164 404h212l-268 -404h-108zM337 0l61 582l-247 1076h209l173 -811l338 811h212l-471 -1076l-61 -582h-214z" />
    <glyph glyph-name="Thorn" unicode="&#xde;" horiz-adv-x="1031" 
d="M528 660q143 0 212.5 66t87.5 237q4 40 4 74q0 103 -36 153q-48 66 -180 66h-177l-63 -596h152zM564 480h-207l-51 -480h-224l174 1658h224l-22 -217h243q351 -2 349 -383q0 -45 -5 -96q-51 -482 -481 -482z" />
    <glyph glyph-name="germandbls" unicode="&#xdf;" horiz-adv-x="1051" 
d="M961 1331q0 -332 -245 -451q124 -32 182 -140q45 -84 44 -197q0 -32 -3 -66q-51 -495 -540 -495l19 175q168 0 231.5 82t78.5 237q3 27 3 51q0 101 -49 175t-178 74l20 176q109 0 169.5 105.5t60.5 265.5q0 73 -21 117q-31 64 -125 64t-136.5 -60.5t-55.5 -187.5
l-132 -1256h-212l132 1252q21 203 121.5 315t286.5 112t276 -109q73 -88 73 -239z" />
    <glyph glyph-name="agrave" unicode="&#xe0;" horiz-adv-x="866" 
d="M471 1323l-181 404h213l75 -404h-107zM281 271q-1 -33 21 -69t70 -35q48 -1 92 33q45 34 69 69l36 338q-74 -32 -139 -78q-66 -46 -86 -70q-20 -25 -39 -61q-18 -36 -21 -65t-3 -62zM596 916q0 46 -11 76q-19 50 -92 49q-129 0 -146 -171l-7 -58l-209 8q1 4 3 20
q25 195 125 278q100 84 267 84t232 -94q50 -72 50 -200q0 -39 -5 -84l-57 -545q-11 -103 -11 -175t1 -104h-193q-10 101 -10 174q-34 -81 -101 -136q-67 -54 -164 -54q-96 0 -152 76t-56 173t68 223q20 36 66 76q47 38 73 58t105 57t143 63q65 26 67 27l9 85q5 48 5 94z" />
    <glyph glyph-name="aacute" unicode="&#xe1;" horiz-adv-x="866" 
d="M470 1323l164 404h212l-268 -404h-108zM281 271q-1 -33 21 -69t70 -35q48 -1 92 33q45 34 69 69l36 338q-74 -32 -139 -78q-66 -46 -86 -70q-20 -25 -39 -61q-18 -36 -21 -65t-3 -62zM596 916q0 46 -11 76q-19 50 -92 49q-129 0 -146 -171l-7 -58l-209 8q1 4 3 20
q25 195 125 278q100 84 267 84t232 -94q50 -72 50 -200q0 -39 -5 -84l-57 -545q-11 -103 -11 -175t1 -104h-193q-10 101 -10 174q-34 -81 -101 -136q-67 -54 -164 -54q-96 0 -152 76t-56 173t68 223q20 36 66 76q47 38 73 58t105 57t143 63q65 26 67 27l9 85q5 48 5 94z" />
    <glyph glyph-name="acircumflex" unicode="&#xe2;" horiz-adv-x="866" 
d="M239 1323l214 358h217l140 -358h-159l-100 252l-153 -252h-159zM281 271q-1 -33 21 -69t70 -35q48 -1 92 33q45 34 69 69l36 338q-74 -32 -139 -78q-66 -46 -86 -70q-20 -25 -39 -61q-18 -36 -21 -65t-3 -62zM596 916q0 46 -11 76q-19 50 -92 49q-129 0 -146 -171l-7 -58
l-209 8q1 4 3 20q25 195 125 278q100 84 267 84t232 -94q50 -72 50 -200q0 -39 -5 -84l-57 -545q-11 -103 -11 -175t1 -104h-193q-10 101 -10 174q-34 -81 -101 -136q-67 -54 -164 -54q-96 0 -152 76t-56 173t68 223q20 36 66 76q47 38 73 58t105 57t143 63q65 26 67 27
l9 85q5 48 5 94z" />
    <glyph glyph-name="atilde" unicode="&#xe3;" horiz-adv-x="866" 
d="M657 1323q-40 0 -89 25t-92 50q-43 24 -69 26q-53 3 -61 -83h-122q10 97 56 157t134 60h9q52 -2 140 -50q87 -48 111 -49q46 -2 56 86h120q-23 -226 -188 -222h-5zM281 271q-1 -33 21 -69t70 -35q48 -1 92 33q45 34 69 69l36 338q-74 -32 -139 -78q-66 -46 -86 -70
q-20 -25 -39 -61q-18 -36 -21 -65t-3 -62zM596 916q0 46 -11 76q-19 50 -92 49q-129 0 -146 -171l-7 -58l-209 8q1 4 3 20q25 195 125 278q100 84 267 84t232 -94q50 -72 50 -200q0 -39 -5 -84l-57 -545q-11 -103 -11 -175t1 -104h-193q-10 101 -10 174q-34 -81 -101 -136
q-67 -54 -164 -54q-96 0 -152 76t-56 173t68 223q20 36 66 76q47 38 73 58t105 57t143 63q65 26 67 27l9 85q5 48 5 94z" />
    <glyph glyph-name="adieresis" unicode="&#xe4;" horiz-adv-x="866" 
d="M592 1323l24 221h214l-23 -221h-215zM243 1323l23 221h213l-23 -221h-213zM281 271q-1 -33 21 -69t70 -35q48 -1 92 33q45 34 69 69l36 338q-74 -32 -139 -78q-66 -46 -86 -70q-20 -25 -39 -61q-18 -36 -21 -65t-3 -62zM596 916q0 46 -11 76q-19 50 -92 49
q-129 0 -146 -171l-7 -58l-209 8q1 4 3 20q25 195 125 278q100 84 267 84t232 -94q50 -72 50 -200q0 -39 -5 -84l-57 -545q-11 -103 -11 -175t1 -104h-193q-10 101 -10 174q-34 -81 -101 -136q-67 -54 -164 -54q-96 0 -152 76t-56 173t68 223q20 36 66 76q47 38 73 58
t105 57t143 63q65 26 67 27l9 85q5 48 5 94z" />
    <glyph glyph-name="aring" unicode="&#xe5;" horiz-adv-x="866" 
d="M524 1323q-100 1 -152 57q-51 56 -51 136q0 124 74 191q74 66 175 66q101 1 153 -55t52 -139q1 -121 -75 -189q-76 -67 -176 -67zM665 1554q0 112 -106 112q-53 0 -91 -34t-38 -118q0 -26 26 -54t78 -29q54 0 92 34t39 89zM281 271q-1 -33 21 -69t70 -35q48 -1 92 33
q45 34 69 69l36 338q-74 -32 -139 -78q-66 -46 -86 -70q-20 -25 -39 -61q-18 -36 -21 -65t-3 -62zM596 916q0 46 -11 76q-19 50 -92 49q-129 0 -146 -171l-7 -58l-209 8q1 4 3 20q25 195 125 278q100 84 267 84t232 -94q50 -72 50 -200q0 -39 -5 -84l-57 -545
q-11 -103 -11 -175t1 -104h-193q-10 101 -10 174q-34 -81 -101 -136q-67 -54 -164 -54q-96 0 -152 76t-56 173t68 223q20 36 66 76q47 38 73 58t105 57t143 63q65 26 67 27l9 85q5 48 5 94z" />
    <glyph glyph-name="ae" unicode="&#xe6;" horiz-adv-x="1330" 
d="M1081 896q0 132 -113 132q-71 0 -107.5 -55.5t-47.5 -160.5l-12 -115l121 27q80 17 119.5 48t39.5 124zM282 256q0 -32 25 -70q25 -37 79 -37t107 73.5t67 210.5l12 113q-162 -40 -226 -107.5t-64 -182.5zM770 325q0 -174 106 -174q66 0 98.5 54t43.5 154l6 52h212
l-6 -52q-40 -376 -373 -376q-108 0 -172 65t-67 176q-58 -118 -140 -180t-191 -62q-108 0 -173 88q-50 67 -50 154q0 16 2 33q17 151 105 237.5t248 129.5l166 44l16 154q11 105 -11 160q-22 56 -93 55q-132 0 -154 -197l-211 1q20 167 120.5 263.5t261.5 96.5
q88 0 146.5 -39.5t70.5 -111.5q39 69 105.5 110t149.5 41q160 0 232 -94q58 -76 58 -181t-18.5 -144t-58 -74t-100.5 -55t-157 -40l-153 -33l-7 -61q-12 -124 -12 -194z" />
    <glyph glyph-name="ccedilla" unicode="&#xe7;" horiz-adv-x="836" 
d="M344 -362q46 0 82 18t40 48t-5 47q-14 32 -54 50q-40 17 -99 31l16 154q-160 16 -210 126q-36 80 -36 174t10 167l29 275q25 235 106 354q80 119 276 119t257 -96q44 -69 41 -182q0 -45 -6 -96l-8 -69h-192l8 70q5 46 5 92t-14 76q-22 48 -99 48t-109 -57t-48 -216
l-39 -370q-7 -63 -7 -119t14 -88q22 -54 107 -54t115 84q16 44 25 130l10 92h192l-8 -79q-20 -187 -92 -278q-73 -91 -219 -104l-10 -99q88 -14 146 -58t58 -107v-9q-4 -60 -40 -104q-66 -78 -220 -83h-42q-36 0 -102 20l12 107q64 -14 110 -14z" />
    <glyph glyph-name="egrave" unicode="&#xe8;" horiz-adv-x="856" 
d="M466 1323l-181 404h213l75 -404h-107zM602 938q-4 106 -107 106q-81 0 -113 -57t-49 -216l-6 -66h260l10 107q5 56 5 85v41zM386 -17q-199 0 -264 119q-46 86 -42 216q0 63 8 137l29 274q26 242 112 357q87 115 290 115t256 -135q30 -79 30 -180q0 -100 -12 -199l-11 -97
h-468l-17 -160q-3 -34 -5 -49t-3 -44t-1 -43v-36q0 -24 5 -35q3 -11 9 -27q18 -56 113 -56q114 0 133 198l8 73h207l-6 -48q-39 -380 -371 -380z" />
    <glyph glyph-name="eacute" unicode="&#xe9;" horiz-adv-x="856" 
d="M466 1323l164 404h212l-268 -404h-108zM602 938q-4 106 -107 106q-81 0 -113 -57t-49 -216l-6 -66h260l10 107q5 56 5 85v41zM386 -17q-199 0 -264 119q-46 86 -42 216q0 63 8 137l29 274q26 242 112 357q87 115 290 115t256 -135q30 -79 30 -180q0 -100 -12 -199
l-11 -97h-468l-17 -160q-3 -34 -5 -49t-3 -44t-1 -43v-36q0 -24 5 -35q3 -11 9 -27q18 -56 113 -56q114 0 133 198l8 73h207l-6 -48q-39 -380 -371 -380z" />
    <glyph glyph-name="ecircumflex" unicode="&#xea;" horiz-adv-x="856" 
d="M234 1323l214 358h217l140 -358h-159l-100 252l-153 -252h-159zM602 938q-4 106 -107 106q-81 0 -113 -57t-49 -216l-6 -66h260l10 107q5 56 5 85v41zM386 -17q-199 0 -264 119q-46 86 -42 216q0 63 8 137l29 274q26 242 112 357q87 115 290 115t256 -135q30 -79 30 -180
q0 -100 -12 -199l-11 -97h-468l-17 -160q-3 -34 -5 -49t-3 -44t-1 -43v-36q0 -24 5 -35q3 -11 9 -27q18 -56 113 -56q114 0 133 198l8 73h207l-6 -48q-39 -380 -371 -380z" />
    <glyph glyph-name="edieresis" unicode="&#xeb;" horiz-adv-x="856" 
d="M587 1323l24 221h214l-23 -221h-215zM238 1323l23 221h213l-23 -221h-213zM602 938q-4 106 -107 106q-81 0 -113 -57t-49 -216l-6 -66h260l10 107q5 56 5 85v41zM386 -17q-199 0 -264 119q-46 86 -42 216q0 63 8 137l29 274q26 242 112 357q87 115 290 115t256 -135
q30 -79 30 -180q0 -100 -12 -199l-11 -97h-468l-17 -160q-3 -34 -5 -49t-3 -44t-1 -43v-36q0 -24 5 -35q3 -11 9 -27q18 -56 113 -56q114 0 133 198l8 73h207l-6 -48q-39 -380 -371 -380z" />
    <glyph glyph-name="igrave" unicode="&#xec;" horiz-adv-x="454" 
d="M267 1323l-181 404h213l75 -404h-107zM77 0l124 1184h212l-124 -1184h-212z" />
    <glyph glyph-name="iacute" unicode="&#xed;" horiz-adv-x="454" 
d="M267 1323l164 404h212l-268 -404h-108zM77 0l124 1184h212l-124 -1184h-212z" />
    <glyph glyph-name="icircumflex" unicode="&#xee;" horiz-adv-x="454" 
d="M35 1323l214 358h217l140 -358h-159l-100 252l-153 -252h-159zM77 0l124 1184h212l-124 -1184h-212z" />
    <glyph glyph-name="idieresis" unicode="&#xef;" horiz-adv-x="454" 
d="M388 1323l24 221h214l-23 -221h-215zM39 1323l23 221h213l-23 -221h-213zM77 0l124 1184h212l-124 -1184h-212z" />
    <glyph glyph-name="eth" unicode="&#xf0;" horiz-adv-x="959" 
d="M446 150q34 0 80 21t70 90t38 196q42 420 42 442q-1 1 -7.5 8t-10.5 10.5t-12.5 11t-35.5 23t-76 15.5q-91 0 -138 -94.5t-74 -369.5q-14 -111 -14 -135v-33q0 -10 0.5 -37.5t4.5 -42.5t10 -35t16 -30t23.5 -20.5t31.5 -15t52 -4.5zM97 288q0 97 9 171l15 140
q32 314 129.5 427.5t248.5 113.5q115 0 192 -73v16q0 178 -43 259l-250 -75l12 110l189 52q-39 54 -113.5 81t-213.5 29l24 139q194 -1 306.5 -47.5t168.5 -147.5l241 68l-11 -109l-185 -49q38 -100 58 -285t4 -341l-30 -279q-26 -244 -129.5 -375t-312.5 -131t-259 104.5
t-50 201.5z" />
    <glyph glyph-name="ntilde" unicode="&#xf1;" horiz-adv-x="893" 
d="M674 1323q-40 0 -89 25t-92 50q-43 24 -69 26q-53 3 -61 -83h-122q9 97 55 157t135 60h9q52 -2 140 -50t112 -49q46 -2 55 86h120q-23 -226 -188 -222h-5zM843 1029q2 -47 -2 -72l-100 -957h-212l94 896q7 73 -9 106q-16 32 -78 32t-161 -77l-101 -957h-211l124 1184h211
l-12 -117q158 134 304 134q147 0 153 -172z" />
    <glyph glyph-name="ograve" unicode="&#xf2;" horiz-adv-x="863" 
d="M468 1323l-181 404h213l75 -404h-107zM508 1201q312 0 304 -333q0 -50 -7 -106l-36 -341q-35 -328 -223 -408q-70 -30 -166 -30q-96 1 -160 31q-142 67 -142 299q0 51 7 108l35 341q22 215 112 327t276 112zM397 140q27 0 49 8t36 20q14 11 26 34q24 47 32 93
q8 45 15 112l39 368q13 123 8 153q-12 69 -37 93q-25 23 -65 23q-39 0 -63 -10t-40 -30q-33 -44 -45 -99t-18 -130l-39 -368q-13 -124 -8 -153t12 -52q7 -22 19 -34t32 -20t47 -8z" />
    <glyph glyph-name="oacute" unicode="&#xf3;" horiz-adv-x="863" 
d="M467 1323l164 404h212l-268 -404h-108zM508 1201q312 0 304 -333q0 -50 -7 -106l-36 -341q-35 -328 -223 -408q-70 -30 -166 -30q-96 1 -160 31q-142 67 -142 299q0 51 7 108l35 341q22 215 112 327t276 112zM397 140q27 0 49 8t36 20q14 11 26 34q24 47 32 93
q8 45 15 112l39 368q13 123 8 153q-12 69 -37 93q-25 23 -65 23q-39 0 -63 -10t-40 -30q-33 -44 -45 -99t-18 -130l-39 -368q-13 -124 -8 -153t12 -52q7 -22 19 -34t32 -20t47 -8z" />
    <glyph glyph-name="ocircumflex" unicode="&#xf4;" horiz-adv-x="863" 
d="M236 1323l214 358h217l140 -358h-159l-100 252l-153 -252h-159zM508 1201q312 0 304 -333q0 -50 -7 -106l-36 -341q-35 -328 -223 -408q-70 -30 -166 -30q-96 1 -160 31q-142 67 -142 299q0 51 7 108l35 341q22 215 112 327t276 112zM397 140q27 0 49 8t36 20
q14 11 26 34q24 47 32 93q8 45 15 112l39 368q13 123 8 153q-12 69 -37 93q-25 23 -65 23q-39 0 -63 -10t-40 -30q-33 -44 -45 -99t-18 -130l-39 -368q-13 -124 -8 -153t12 -52q7 -22 19 -34t32 -20t47 -8z" />
    <glyph glyph-name="otilde" unicode="&#xf5;" horiz-adv-x="863" 
d="M654 1323q-40 0 -89 25t-92 50q-43 24 -69 26q-53 3 -61 -83h-122q9 97 55 157t135 60h9q52 -2 140 -50t112 -49q46 -2 55 86h120q-23 -226 -188 -222h-5zM508 1201q312 0 304 -333q0 -50 -7 -106l-36 -341q-35 -328 -223 -408q-70 -30 -166 -30q-96 1 -160 31
q-142 67 -142 299q0 51 7 108l35 341q22 215 112 327t276 112zM397 140q27 0 49 8t36 20q14 11 26 34q24 47 32 93q8 45 15 112l39 368q13 123 8 153q-12 69 -37 93q-25 23 -65 23q-39 0 -63 -10t-40 -30q-33 -44 -45 -99t-18 -130l-39 -368q-13 -124 -8 -153t12 -52
q7 -22 19 -34t32 -20t47 -8z" />
    <glyph glyph-name="odieresis" unicode="&#xf6;" horiz-adv-x="863" 
d="M589 1323l24 221h214l-23 -221h-215zM240 1323l23 221h213l-23 -221h-213zM508 1201q312 0 304 -333q0 -50 -7 -106l-36 -341q-35 -328 -223 -408q-70 -30 -166 -30q-96 1 -160 31q-142 67 -142 299q0 51 7 108l35 341q22 215 112 327t276 112zM397 140q27 0 49 8t36 20
q14 11 26 34q24 47 32 93q8 45 15 112l39 368q13 123 8 153q-12 69 -37 93q-25 23 -65 23q-39 0 -63 -10t-40 -30q-33 -44 -45 -99t-18 -130l-39 -368q-13 -124 -8 -153t12 -52q7 -22 19 -34t32 -20t47 -8z" />
    <glyph glyph-name="divide" unicode="&#xf7;" horiz-adv-x="707" 
d="M332 1080l23 223h170l-23 -223h-170zM71 765l16 154h629l-16 -154h-629zM256 358l24 223h170l-24 -223h-170z" />
    <glyph glyph-name="oslash" unicode="&#xf8;" horiz-adv-x="863" 
d="M79 313q0 50 6 108l35 341q23 215 112.5 327t275.5 112q94 0 158 -30l89 193l71 -25l-98 -209q83 -80 83 -263q0 -49 -6 -105l-36 -341q-34 -328 -163.5 -383t-229.5 -55t-167 36l-98 -211l-61 22l105 229q-76 79 -76 254zM398 140q79 0 111 63t46 204l39 368
q1 9 1.5 14.5t1.5 13.5t1.5 14t1 13.5t1 14t0.5 12.5l-304 -651q22 -66 101 -66zM585 994q-25 50 -91 50t-98 -42t-43.5 -97t-18.5 -130l-22 -205q-21 -206 -21.5 -210t-0.5 -8z" />
    <glyph glyph-name="ugrave" unicode="&#xf9;" horiz-adv-x="895" 
d="M478 1323l-181 404h213l75 -404h-107zM230 -17q-100 0 -132 77q-24 55 -23 99q0 44 4 68l100 957h212l-94 -896q-2 -20 -2 -50q1 -30 15 -59t76 -29t159 78l100 956h212l-124 -1184h-212l13 118q-155 -135 -304 -135z" />
    <glyph glyph-name="uacute" unicode="&#xfa;" horiz-adv-x="895" 
d="M478 1323l164 404h212l-268 -404h-108zM230 -17q-100 0 -132 77q-24 55 -23 99q0 44 4 68l100 957h212l-94 -896q-2 -20 -2 -50q1 -30 15 -59t76 -29t159 78l100 956h212l-124 -1184h-212l13 118q-155 -135 -304 -135z" />
    <glyph glyph-name="ucircumflex" unicode="&#xfb;" horiz-adv-x="895" 
d="M246 1323l214 358h217l140 -358h-159l-100 252l-153 -252h-159zM230 -17q-100 0 -132 77q-24 55 -23 99q0 44 4 68l100 957h212l-94 -896q-2 -20 -2 -50q1 -30 15 -59t76 -29t159 78l100 956h212l-124 -1184h-212l13 118q-155 -135 -304 -135z" />
    <glyph glyph-name="udieresis" unicode="&#xfc;" horiz-adv-x="895" 
d="M599 1323l24 221h214l-23 -221h-215zM250 1323l23 221h213l-23 -221h-213zM230 -17q-100 0 -132 77q-24 55 -23 99q0 44 4 68l100 957h212l-94 -896q-2 -20 -2 -50q1 -30 15 -59t76 -29t159 78l100 956h212l-124 -1184h-212l13 118q-155 -135 -304 -135z" />
    <glyph glyph-name="yacute" unicode="&#xfd;" horiz-adv-x="799" 
d="M437 1323l164 404h212l-268 -404h-108zM250 -68q6 20 6 45q0 24 -22 196l-133 1011h215l70 -897l252 897h215l-415 -1251q-42 -125 -138 -177t-260 -52h-28l17 161q148 -1 182 23q33 24 39 44z" />
    <glyph glyph-name="thorn" unicode="&#xfe;" horiz-adv-x="909" 
d="M645 933q0 101 -107 101q-74 0 -160 -64l-80 -764q67 -56 152 -56t114.5 85.5t44.5 233.5l29 283q7 80 7 181zM628 1201q229 0 229 -191.5t-7 -257.5l-29 -282q-51 -487 -344 -487q-106 0 -191 106l-51 -479h-211l215 2048h211l-59 -569q108 112 237 112z" />
    <glyph glyph-name="ydieresis" unicode="&#xff;" horiz-adv-x="799" 
d="M558 1323l24 221h214l-23 -221h-215zM209 1323l23 221h213l-23 -221h-213zM250 -68q6 20 6 45q0 24 -22 196l-133 1011h215l70 -897l252 897h215l-415 -1251q-42 -125 -138 -177t-260 -52h-28l17 161q148 -1 182 23q33 24 39 44z" />
    <glyph glyph-name="Amacron" unicode="&#x100;" horiz-adv-x="1004" 
d="M446 1797l13 129h392l-14 -129h-391zM373 581h285l-63 763zM-9 0l528 1658h217l180 -1658h-214l-32 421h-343l-123 -421h-213z" />
    <glyph glyph-name="amacron" unicode="&#x101;" horiz-adv-x="866" 
d="M329 1323l13 129h392l-14 -129h-391zM281 271q-1 -33 21 -69t70 -35q48 -1 92 33q45 34 69 69l36 338q-74 -32 -139 -78q-66 -46 -86 -70q-20 -25 -39 -61q-18 -36 -21 -65t-3 -62zM596 916q0 46 -11 76q-19 50 -92 49q-129 0 -146 -171l-7 -58l-209 8q1 4 3 20
q25 195 125 278q100 84 267 84t232 -94q50 -72 50 -200q0 -39 -5 -84l-57 -545q-11 -103 -11 -175t1 -104h-193q-10 101 -10 174q-34 -81 -101 -136q-67 -54 -164 -54q-96 0 -152 76t-56 173t68 223q20 36 66 76q47 38 73 58t105 57t143 63q65 26 67 27l9 85q5 48 5 94z" />
    <glyph glyph-name="Abreve" unicode="&#x102;" horiz-adv-x="1004" 
d="M511 2060q0 -141 142 -143q79 1 123 43t55 136h127q-33 -299 -317 -299q-256 0 -256 247q0 25 3 52h125q-2 -19 -2 -36zM373 581h285l-63 763zM-9 0l528 1658h217l180 -1658h-214l-32 421h-343l-123 -421h-213z" />
    <glyph glyph-name="abreve" unicode="&#x103;" horiz-adv-x="866" 
d="M394 1586q0 -141 142 -143q79 1 123 43t55 136h127q-33 -299 -317 -299q-256 0 -256 247q0 25 3 52h125q-2 -19 -2 -36zM281 271q-1 -33 21 -69t70 -35q48 -1 92 33q45 34 69 69l36 338q-74 -32 -139 -78q-66 -46 -86 -70q-20 -25 -39 -61q-18 -36 -21 -65t-3 -62z
M596 916q0 46 -11 76q-19 50 -92 49q-129 0 -146 -171l-7 -58l-209 8q1 4 3 20q25 195 125 278q100 84 267 84t232 -94q50 -72 50 -200q0 -39 -5 -84l-57 -545q-11 -103 -11 -175t1 -104h-193q-10 101 -10 174q-34 -81 -101 -136q-67 -54 -164 -54q-96 0 -152 76t-56 173
t68 223q20 36 66 76q47 38 73 58t105 57t143 63q65 26 67 27l9 85q5 48 5 94z" />
    <glyph glyph-name="Aogonek" unicode="&#x104;" horiz-adv-x="1004" 
d="M510 -321q0 117 79 204t155 117h-42l-32 421h-343l-123 -421h-213l528 1658h217l180 -1658h-50q-9 -10 -37 -38q-27 -28 -39 -42q-182 -212 -94 -256q38 -20 84 -20t72 1t39 1l-49 -108q-219 0 -283 44q-49 39 -49 97zM373 581h285l-63 763z" />
    <glyph glyph-name="aogonek" unicode="&#x105;" horiz-adv-x="866" 
d="M344 -321q0 117 79 204t155 117h-35q-10 101 -10 174q-34 -81 -101 -136q-67 -54 -164 -54q-96 0 -152 76t-56 173t68 223q20 36 66 76q47 38 73 58t105 57t143 63q65 26 67 27l9 85q5 48 5 94t-11 76q-19 50 -92 49q-129 0 -146 -171l-7 -58l-209 8q1 4 3 20
q25 195 125 278q100 84 267 84t232 -94q50 -72 50 -200q0 -39 -5 -84l-57 -545q-11 -103 -11 -175t1 -104h-36q-9 -10 -37 -38q-27 -28 -39 -42q-182 -212 -94 -256q38 -20 84 -20t72 1t39 1l-49 -108q-219 0 -283 44q-49 39 -49 97zM281 271q-1 -33 21 -69t70 -35
q48 -1 92 33q45 34 69 69l36 338q-74 -32 -139 -78q-66 -46 -86 -70q-20 -25 -39 -61q-18 -36 -21 -65t-3 -62z" />
    <glyph glyph-name="Cacute" unicode="&#x106;" horiz-adv-x="1050" 
d="M616 1797l164 404h212l-268 -404h-108zM500 -18q-212 0 -304 103q-91 103 -95 269v33q0 67 6 142l63 594q28 261 137 406q109 146 350 146q242 1 324 -127q61 -94 61 -246q0 -48 -6 -104l-14 -129h-212l12 114q13 123 10 154q-4 31 -8 55t-12 38q-24 39 -61 55
q-37 15 -96 15t-101 -17q-80 -32 -110 -111q-30 -80 -46 -218l-69 -661q-7 -63 -7 -137t28 -124q40 -74 149 -74t156 45q48 45 66 115q18 71 29 173l12 121h212l-13 -121q-37 -379 -263 -473q-86 -36 -198 -36z" />
    <glyph glyph-name="cacute" unicode="&#x107;" horiz-adv-x="836" 
d="M457 1323l164 404h212l-268 -404h-108zM78 286q0 94 10 167l29 275q25 235 106 354q80 119 276 119t257 -96q44 -69 41 -182q0 -45 -6 -96l-8 -69h-192l8 70q5 46 5 92t-14 76q-22 48 -99 48t-109 -57t-48 -216l-39 -370q-7 -63 -7 -119t14 -88q22 -54 107 -54t115 84
q16 44 25 130l10 92h192l-8 -79q-20 -187 -98 -285q-78 -99 -275 -99t-256 129q-36 80 -36 174z" />
    <glyph glyph-name="Ccircumflex" unicode="&#x108;" horiz-adv-x="1050" 
d="M384 1797l214 358h217l140 -358h-159l-100 252l-153 -252h-159zM500 -18q-212 0 -304 103q-91 103 -95 269v33q0 67 6 142l63 594q28 261 137 406q109 146 350 146q242 1 324 -127q61 -94 61 -246q0 -48 -6 -104l-14 -129h-212l12 114q13 123 10 154q-4 31 -8 55t-12 38
q-24 39 -61 55q-37 15 -96 15t-101 -17q-80 -32 -110 -111q-30 -80 -46 -218l-69 -661q-7 -63 -7 -137t28 -124q40 -74 149 -74t156 45q48 45 66 115q18 71 29 173l12 121h212l-13 -121q-37 -379 -263 -473q-86 -36 -198 -36z" />
    <glyph glyph-name="ccircumflex" unicode="&#x109;" horiz-adv-x="836" 
d="M226 1323l214 358h217l140 -358h-159l-100 252l-153 -252h-159zM78 286q0 94 10 167l29 275q25 235 106 354q80 119 276 119t257 -96q44 -69 41 -182q0 -45 -6 -96l-8 -69h-192l8 70q5 46 5 92t-14 76q-22 48 -99 48t-109 -57t-48 -216l-39 -370q-7 -63 -7 -119t14 -88
q22 -54 107 -54t115 84q16 44 25 130l10 92h192l-8 -79q-20 -187 -98 -285q-78 -99 -275 -99t-256 129q-36 80 -36 174z" />
    <glyph glyph-name="Cdotaccent" unicode="&#x10a;" horiz-adv-x="1050" 
d="M562 1797l25 241h215l-26 -241h-214zM500 -18q-212 0 -304 103q-91 103 -95 269v33q0 67 6 142l63 594q28 261 137 406q109 146 350 146q242 1 324 -127q61 -94 61 -246q0 -48 -6 -104l-14 -129h-212l12 114q13 123 10 154q-4 31 -8 55t-12 38q-24 39 -61 55
q-37 15 -96 15t-101 -17q-80 -32 -110 -111q-30 -80 -46 -218l-69 -661q-7 -63 -7 -137t28 -124q40 -74 149 -74t156 45q48 45 66 115q18 71 29 173l12 121h212l-13 -121q-37 -379 -263 -473q-86 -36 -198 -36z" />
    <glyph glyph-name="cdotaccent" unicode="&#x10b;" horiz-adv-x="836" 
d="M404 1323l25 241h215l-26 -241h-214zM78 286q0 94 10 167l29 275q25 235 106 354q80 119 276 119t257 -96q44 -69 41 -182q0 -45 -6 -96l-8 -69h-192l8 70q5 46 5 92t-14 76q-22 48 -99 48t-109 -57t-48 -216l-39 -370q-7 -63 -7 -119t14 -88q22 -54 107 -54t115 84
q16 44 25 130l10 92h192l-8 -79q-20 -187 -98 -285q-78 -99 -275 -99t-256 129q-36 80 -36 174z" />
    <glyph glyph-name="Ccaron" unicode="&#x10c;" horiz-adv-x="1050" 
d="M566 1797l-140 351h162l93 -239l144 239h162l-214 -351h-207zM500 -18q-212 0 -304 103q-91 103 -95 269v33q0 67 6 142l63 594q28 261 137 406q109 146 350 146q242 1 324 -127q61 -94 61 -246q0 -48 -6 -104l-14 -129h-212l12 114q13 123 10 154q-4 31 -8 55t-12 38
q-24 39 -61 55q-37 15 -96 15t-101 -17q-80 -32 -110 -111q-30 -80 -46 -218l-69 -661q-7 -63 -7 -137t28 -124q40 -74 149 -74t156 45q48 45 66 115q18 71 29 173l12 121h212l-13 -121q-37 -379 -263 -473q-86 -36 -198 -36z" />
    <glyph glyph-name="ccaron" unicode="&#x10d;" horiz-adv-x="836" 
d="M408 1323l-140 351h162l93 -239l144 239h162l-214 -351h-207zM78 286q0 94 10 167l29 275q25 235 106 354q80 119 276 119t257 -96q44 -69 41 -182q0 -45 -6 -96l-8 -69h-192l8 70q5 46 5 92t-14 76q-22 48 -99 48t-109 -57t-48 -216l-39 -370q-7 -63 -7 -119t14 -88
q22 -54 107 -54t115 84q16 44 25 130l10 92h192l-8 -79q-20 -187 -98 -285q-78 -99 -275 -99t-256 129q-36 80 -36 174z" />
    <glyph glyph-name="Dcaron" unicode="&#x10e;" horiz-adv-x="1078" 
d="M590 1797l-140 351h162l93 -239l144 239h162l-214 -351h-207zM617 1658q271 0 367 -128q50 -64 62 -134t11 -124q0 -56 -7 -118l-64 -615q-29 -271 -152 -405t-374 -134h-378l174 1658h361zM461 161q134 0 208 69q52 48 77 204q8 50 18 147l58 547q9 80 9 128t-3 79
q-8 81 -62 119t-170 38h-133l-139 -1331h137z" />
    <glyph glyph-name="dcaron" unicode="&#x10f;" horiz-adv-x="1102" 
d="M1043 1152l53 506h191l-130 -506h-114zM508 1034q-92 0 -127 -71t-47 -186l-35 -329q-7 -78 -7 -112v-42q2 -144 113 -144q65 0 143 48l82 780q-69 56 -122 56zM334 -17h-3q-151 0 -210 113t-31 370l24 229q29 289 117 398q88 108 224 108q106 -1 189 -93l57 550h212
l-174 -1658h-212l8 76q-96 -93 -201 -93z" />
    <glyph glyph-name="Dcroat" unicode="&#x110;" horiz-adv-x="1082" 
d="M622 1658q266 0 363 -122q76 -96 76 -276q0 -50 -6 -106l-65 -615q-28 -271 -151 -405t-375 -134h-377l84 797h-103l14 129h102l77 732h361zM465 161q137 0 199.5 60.5t78.5 161.5t26 198l57 547q9 80 9 128t-3 79q-8 81 -61.5 119t-170.5 38h-132l-60 -566h128l-13 -129
h-128l-67 -636h137z" />
    <glyph glyph-name="dcroat" unicode="&#x111;" horiz-adv-x="923" 
d="M508 1034q-92 0 -127 -71.5t-47 -185.5l-35 -329q-7 -78 -7 -112v-42q2 -144 113 -144q65 0 143 48l82 780q-69 56 -122 56zM334 -17h-3q-151 0 -210 113t-31 370l24 229q29 289 117 397.5t224 108.5q106 -1 189 -93l30 284h-226l12 117h225l16 149h212l-16 -149h121
l-12 -117h-121l-146 -1392h-212l8 76q-96 -93 -201 -93z" />
    <glyph glyph-name="Emacron" unicode="&#x112;" 
d="M396 1797l13 129h392l-14 -129h-391zM82 0l174 1658h638l-17 -166h-414l-59 -555h337l-16 -161h-337l-65 -615h420l-18 -161h-643z" />
    <glyph glyph-name="emacron" unicode="&#x113;" horiz-adv-x="856" 
d="M324 1323l13 129h392l-14 -129h-391zM602 938q-4 106 -107 106q-81 0 -113 -57t-49 -216l-6 -66h260l10 107q5 56 5 85v41zM386 -17q-199 0 -264 119q-46 86 -42 216q0 63 8 137l29 274q26 242 112 357q87 115 290 115t256 -135q30 -79 30 -180q0 -100 -12 -199l-11 -97
h-468l-17 -160q-3 -34 -5 -49t-3 -44t-1 -43v-36q0 -24 5 -35q3 -11 9 -27q18 -56 113 -56q114 0 133 198l8 73h207l-6 -48q-39 -380 -371 -380z" />
    <glyph glyph-name="Ebreve" unicode="&#x114;" 
d="M461 2060q0 -141 142 -143q79 1 123 43t55 136h127q-33 -299 -317 -299q-256 0 -256 247q0 25 3 52h125q-2 -19 -2 -36zM82 0l174 1658h638l-17 -166h-414l-59 -555h337l-16 -161h-337l-65 -615h420l-18 -161h-643z" />
    <glyph glyph-name="ebreve" unicode="&#x115;" horiz-adv-x="856" 
d="M389 1586q0 -141 142 -143q79 1 123 43t55 136h127q-33 -299 -317 -299q-256 0 -256 247q0 25 3 52h125q-2 -19 -2 -36zM602 938q-4 106 -107 106q-81 0 -113 -57t-49 -216l-6 -66h260l10 107q5 56 5 85v41zM386 -17q-199 0 -264 119q-46 86 -42 216q0 63 8 137l29 274
q26 242 112 357q87 115 290 115t256 -135q30 -79 30 -180q0 -100 -12 -199l-11 -97h-468l-17 -160q-3 -34 -5 -49t-3 -44t-1 -43v-36q0 -24 5 -35q3 -11 9 -27q18 -56 113 -56q114 0 133 198l8 73h207l-6 -48q-39 -380 -371 -380z" />
    <glyph glyph-name="Edotaccent" unicode="&#x116;" 
d="M485 1797l25 241h215l-26 -241h-214zM82 0l174 1658h638l-17 -166h-414l-59 -555h337l-16 -161h-337l-65 -615h420l-18 -161h-643z" />
    <glyph glyph-name="edotaccent" unicode="&#x117;" horiz-adv-x="856" 
d="M412 1323l25 241h215l-26 -241h-214zM602 938q-4 106 -107 106q-81 0 -113 -57t-49 -216l-6 -66h260l10 107q5 56 5 85v41zM386 -17q-199 0 -264 119q-46 86 -42 216q0 63 8 137l29 274q26 242 112 357q87 115 290 115t256 -135q30 -79 30 -180q0 -100 -12 -199l-11 -97
h-468l-17 -160q-3 -34 -5 -49t-3 -44t-1 -43v-36q0 -24 5 -35q3 -11 9 -27q18 -56 113 -56q114 0 133 198l8 73h207l-6 -48q-39 -380 -371 -380z" />
    <glyph glyph-name="Eogonek" unicode="&#x118;" 
d="M141 -321q0 117 79 204t155 117h-293l174 1658h638l-17 -166h-414l-59 -555h337l-16 -161h-337l-65 -615h420l-18 -161h-228q-9 -10 -37 -38q-27 -28 -39 -42q-182 -212 -94 -256q39 -20 85 -20t72 1t38 1l-49 -108q-219 0 -283 44q-49 39 -49 97z" />
    <glyph glyph-name="eogonek" unicode="&#x119;" horiz-adv-x="856" 
d="M148 -321q0 117 89 215q54 59 112 90q-168 10 -227 118q-46 86 -42 216q0 63 8 137l29 274q26 242 112 357q87 115 290 115t256 -135q30 -79 30 -180q0 -100 -12 -199l-11 -97h-468l-17 -160q-3 -34 -5 -49t-3 -44t-1 -43v-36q0 -24 5 -35q3 -11 9 -27q18 -56 113 -56
q114 0 133 198l8 73h207l-6 -48q-32 -309 -257 -367q-9 -10 -35 -36q-25 -26 -37 -40q-182 -212 -94 -256q38 -20 84 -20t72 1t39 1l-49 -108q-219 0 -283 44q-49 39 -49 97zM602 938q-4 106 -107 106q-81 0 -113 -57t-49 -216l-6 -66h260l10 107q5 56 5 85v41z" />
    <glyph glyph-name="Ecaron" unicode="&#x11a;" 
d="M488 1797l-140 351h162l93 -239l144 239h162l-214 -351h-207zM82 0l174 1658h638l-17 -166h-414l-59 -555h337l-16 -161h-337l-65 -615h420l-18 -161h-643z" />
    <glyph glyph-name="ecaron" unicode="&#x11b;" horiz-adv-x="856" 
d="M416 1323l-140 351h162l93 -239l144 239h162l-214 -351h-207zM602 938q-4 106 -107 106q-81 0 -113 -57t-49 -216l-6 -66h260l10 107q5 56 5 85v41zM386 -17q-199 0 -264 119q-46 86 -42 216q0 63 8 137l29 274q26 242 112 357q87 115 290 115t256 -135q30 -79 30 -180
q0 -100 -12 -199l-11 -97h-468l-17 -160q-3 -34 -5 -49t-3 -44t-1 -43v-36q0 -24 5 -35q3 -11 9 -27q18 -56 113 -56q114 0 133 198l8 73h207l-6 -48q-39 -380 -371 -380z" />
    <glyph glyph-name="Gcircumflex" unicode="&#x11c;" horiz-adv-x="1093" 
d="M396 1797l214 358h217l140 -358h-159l-100 252l-153 -252h-159zM471 -21q-223 0 -307 142q-63 106 -63 286q0 62 7 133l60 564q29 279 137 425q108 147 351 147q242 0 330 -118q67 -91 67 -260q0 -50 -6 -108l-7 -61h-209l5 53q8 68 8 110t-3 68q-7 72 -51 106t-112 34
t-102 -10q-36 -10 -60 -25q-24 -16 -44 -43q-57 -79 -77 -285l-66 -620q-7 -65 -7 -143t26 -132q38 -84 170 -84t190 90t79 289l13 124h-214l18 159h416l-86 -820h-142l-2 191q-96 -212 -319 -212z" />
    <glyph glyph-name="gcircumflex" unicode="&#x11d;" horiz-adv-x="890" 
d="M282 1328l214 358h217l140 -358h-159l-100 252l-153 -252h-159zM304 676q0 -162 124 -162q106 0 144 102q20 54 29 142t9 121v45q-4 129 -122 129q-88 -1 -126 -67q-58 -102 -58 -310zM608 -64q0 44 -30 70t-125 38l-182 15q-35 -24 -73 -71t-38 -88q0 -42 14 -60
q33 -41 234 -41q200 0 200 137zM786 867q0 -260 -110 -396q-88 -108 -263 -108q-19 1 -63 7t-49 8l-14 -20q-14 -20 -19 -28q-56 -86 52 -98q28 -4 114 -12t90 -9q249 -26 249 -243q0 -21 -2 -43q-17 -157 -111 -225t-291 -69q-198 0 -283 31t-106 84q-13 33 -9 71
q11 91 67 159t135 107q-54 17 -79 48t-25 51q1 78 41 130q40 51 115 113q-106 90 -106 261q0 43 6 94q43 421 385 421q172 0 222 -132q16 21 66 59t106 63l36 15l38 -138q-43 -8 -117 -36t-92 -42q17 -56 17 -123z" />
    <glyph glyph-name="Gbreve" unicode="&#x11e;" horiz-adv-x="1093" 
d="M551 2060q0 -141 142 -143q79 1 123 43t55 136h127q-33 -299 -317 -299q-256 0 -256 247q0 25 3 52h125q-2 -19 -2 -36zM471 -21q-223 0 -307 142q-63 106 -63 286q0 62 7 133l60 564q29 279 137 425q108 147 351 147q242 0 330 -118q67 -91 67 -260q0 -50 -6 -108
l-7 -61h-209l5 53q8 68 8 110t-3 68q-7 72 -51 106t-112 34t-102 -10q-36 -10 -60 -25q-24 -16 -44 -43q-57 -79 -77 -285l-66 -620q-7 -65 -7 -143t26 -132q38 -84 170 -84t190 90t79 289l13 124h-214l18 159h416l-86 -820h-142l-2 191q-96 -212 -319 -212z" />
    <glyph glyph-name="gbreve" unicode="&#x11f;" horiz-adv-x="890" 
d="M437 1591q0 -141 142 -143q79 0 123 42t55 137h127q-33 -299 -317 -299q-256 0 -256 247q0 25 3 52h125q-2 -19 -2 -36zM304 676q0 -162 124 -162q106 0 144 102q20 54 29 142t9 121v45q-4 129 -122 129q-88 -1 -126 -67q-58 -102 -58 -310zM608 -64q0 44 -30 70t-125 38
l-182 15q-35 -24 -73 -71t-38 -88q0 -42 14 -60q33 -41 234 -41q200 0 200 137zM786 867q0 -260 -110 -396q-88 -108 -263 -108q-19 1 -63 7t-49 8l-14 -20q-14 -20 -19 -28q-56 -86 52 -98q28 -4 114 -12t90 -9q249 -26 249 -243q0 -21 -2 -43q-17 -157 -111 -225t-291 -69
q-198 0 -283 31t-106 84q-13 33 -9 71q11 91 67 159t135 107q-54 17 -79 48t-25 51q1 78 41 130q40 51 115 113q-106 90 -106 261q0 43 6 94q43 421 385 421q172 0 222 -132q16 21 66 59t106 63l36 15l38 -138q-43 -8 -117 -36t-92 -42q17 -56 17 -123z" />
    <glyph glyph-name="Gdotaccent" unicode="&#x120;" horiz-adv-x="1093" 
d="M574 1797l25 241h215l-26 -241h-214zM471 -21q-223 0 -307 142q-63 106 -63 286q0 62 7 133l60 564q29 279 137 425q108 147 351 147q242 0 330 -118q67 -91 67 -260q0 -50 -6 -108l-7 -61h-209l5 53q8 68 8 110t-3 68q-7 72 -51 106t-112 34t-102 -10q-36 -10 -60 -25
q-24 -16 -44 -43q-57 -79 -77 -285l-66 -620q-7 -65 -7 -143t26 -132q38 -84 170 -84t190 90t79 289l13 124h-214l18 159h416l-86 -820h-142l-2 191q-96 -212 -319 -212z" />
    <glyph glyph-name="gdotaccent" unicode="&#x121;" horiz-adv-x="890" 
d="M460 1328l25 241h215l-26 -241h-214zM304 676q0 -162 124 -162q106 0 144 102q20 54 29 142t9 121v45q-4 129 -122 129q-88 -1 -126 -67q-58 -102 -58 -310zM608 -64q0 44 -30 70t-125 38l-182 15q-35 -24 -73 -71t-38 -88q0 -42 14 -60q33 -41 234 -41q200 0 200 137z
M786 867q0 -260 -110 -396q-88 -108 -263 -108q-19 1 -63 7t-49 8l-14 -20q-14 -20 -19 -28q-56 -86 52 -98q28 -4 114 -12t90 -9q249 -26 249 -243q0 -21 -2 -43q-17 -157 -111 -225t-291 -69q-198 0 -283 31t-106 84q-13 33 -9 71q11 91 67 159t135 107q-54 17 -79 48
t-25 51q1 78 41 130q40 51 115 113q-106 90 -106 261q0 43 6 94q43 421 385 421q172 0 222 -132q16 21 66 59t106 63l36 15l38 -138q-43 -8 -117 -36t-92 -42q17 -56 17 -123z" />
    <glyph glyph-name="Gcommaaccent" unicode="&#x122;" horiz-adv-x="1093" 
d="M374 -598l-43 105q61 7 90 38t35 90h-110l24 222h217l-23 -206q-13 -121 -53 -182t-137 -67zM471 -21q-223 0 -307 142q-63 106 -63 286q0 62 7 133l60 564q29 279 137 425q108 147 351 147q242 0 330 -118q67 -91 67 -260q0 -50 -6 -108l-7 -61h-209l5 53q8 68 8 110
t-3 68q-7 72 -51 106t-112 34t-102 -10q-36 -10 -60 -25q-24 -16 -44 -43q-57 -79 -77 -285l-66 -620q-7 -65 -7 -143t26 -132q38 -84 170 -84t190 90t79 289l13 124h-214l18 159h416l-86 -820h-142l-2 191q-96 -212 -319 -212z" />
    <glyph glyph-name="gcommaaccent" unicode="&#x123;" horiz-adv-x="901" 
d="M688 857q0 227 -107 227t-149 -29.5t-81 -111t-39 -227.5q0 -220 159 -220t188 153t29 208zM153 -146q0 -118 232 -118q274 0 274 162q-1 47 -38 79t-167 61l-132 25q-115 -75 -142 -123.5t-27 -85.5zM546 1493l19 177q13 122 63.5 190t147.5 95l8 -58
q-114 -68 -127 -187h116l-23 -217h-204zM467 376q-94 0 -166 32q-4 -5 -18.5 -22.5t-21.5 -26.5t-38.5 -50.5t-31.5 -69.5q1 -16 81 -34q80 -19 249 -53q170 -34 235 -90t65 -143q0 -149 -127 -228t-314 -79t-301 50t-114 159q0 82 71.5 153t160.5 122q-68 23 -107.5 46.5
t-39.5 55.5q0 96 178 259q-116 87 -116 251t91 330.5t335 166.5q176 0 259 -137q77 100 175 142l37 16l39 -105q-92 -25 -204 -121q33 -71 30 -166q0 -24 -2 -47q-19 -187 -122 -299t-283 -112z" />
    <glyph glyph-name="Hcircumflex" unicode="&#x124;" horiz-adv-x="1145" 
d="M426 1797l214 358h217l140 -358h-159l-100 252l-153 -252h-159zM82 0l174 1658h224l-75 -718h436l75 718h224l-174 -1658h-224l82 780h-436l-82 -780h-224z" />
    <glyph glyph-name="hcircumflex" unicode="&#x125;" horiz-adv-x="905" 
d="M312 1780l214 358h217l140 -358h-159l-100 252l-153 -252h-159zM701 1201q156 0 156 -196q0 -24 -4 -48l-101 -957h-212l94 896q3 22 3 52q0 86 -83 86q-73 0 -175 -82l-99 -952h-212l174 1658h212l-63 -597q160 140 310 140z" />
    <glyph glyph-name="Hbar" unicode="&#x126;" horiz-adv-x="1145" 
d="M405 940h436l34 330h-436zM82 0l133 1270h-95l13 116h95l28 272h224l-28 -272h436l28 272h224l-28 -272h95l-12 -116h-96l-133 -1270h-224l82 780h-436l-82 -780h-224z" />
    <glyph glyph-name="hbar" unicode="&#x127;" horiz-adv-x="905" 
d="M701 1201q100 0 128 -66t28 -110t-4 -68l-101 -957h-212l94 896q2 21 2 51q0 31 -14 59t-78 28t-165 -82l-100 -952h-212l149 1416h-129l13 119h129l12 123h212l-12 -123h249l-13 -119h-249l-37 -355q158 140 310 140z" />
    <glyph glyph-name="Itilde" unicode="&#x128;" horiz-adv-x="502" 
d="M524 1797q-40 0 -89 25t-92 50q-43 24 -69 26q-53 3 -61 -83h-122q9 97 55 157t135 60h9q52 -2 140 -50t112 -49q46 -2 55 86h120q-23 -226 -188 -222h-5zM94 0l174 1658h219l-174 -1658h-219z" />
    <glyph glyph-name="itilde" unicode="&#x129;" horiz-adv-x="454" 
d="M454 1323q-40 0 -89 25t-92 50q-43 24 -69 26q-53 3 -61 -83h-122q9 97 55 157t135 60h9q52 -2 140 -50t112 -49q46 -2 55 86h120q-23 -226 -188 -222h-5zM77 0l124 1184h212l-124 -1184h-212z" />
    <glyph glyph-name="Imacron" unicode="&#x12a;" horiz-adv-x="502" 
d="M196 1797l13 129h392l-14 -129h-391zM94 0l174 1658h219l-174 -1658h-219z" />
    <glyph glyph-name="imacron" unicode="&#x12b;" horiz-adv-x="454" 
d="M125 1323l13 129h392l-14 -129h-391zM77 0l124 1184h212l-124 -1184h-212z" />
    <glyph glyph-name="Ibreve" unicode="&#x12c;" horiz-adv-x="502" 
d="M261 2060q0 -141 142 -143q79 1 123 43t55 136h127q-33 -299 -317 -299q-256 0 -256 247q0 25 3 52h125q-2 -19 -2 -36zM94 0l174 1658h219l-174 -1658h-219z" />
    <glyph glyph-name="ibreve" unicode="&#x12d;" horiz-adv-x="454" 
d="M190 1586q0 -141 142 -143q79 1 123 43t55 136h127q-33 -299 -317 -299q-256 0 -256 247q0 25 3 52h125q-2 -19 -2 -36zM77 0l124 1184h212l-124 -1184h-212z" />
    <glyph glyph-name="Iogonek" unicode="&#x12e;" horiz-adv-x="502" 
d="M-150 -321q0 117 82 207t162 118l174 1654h219l-174 -1658h-107q-9 -10 -37 -38q-27 -28 -39 -42q-182 -212 -94 -256q39 -20 85 -20q45 0 71 1t39 1l-49 -108q-219 0 -283 44q-49 39 -49 97z" />
    <glyph glyph-name="iogonek" unicode="&#x12f;" horiz-adv-x="463" 
d="M-174 -321q0 117 83 208t169 119l123 1178h212l-124 -1184h-107q-9 -10 -37 -38q-27 -28 -39 -42q-182 -212 -94 -256q39 -20 85 -20q45 0 71 1t39 1l-49 -108q-219 0 -283 44q-49 39 -49 97zM220 1358l24 227h213l-24 -227h-213z" />
    <glyph glyph-name="Idotaccent" unicode="&#x130;" horiz-adv-x="502" 
d="M284 1797l25 241h215l-26 -241h-214zM94 0l174 1658h219l-174 -1658h-219z" />
    <glyph glyph-name="dotlessi" unicode="&#x131;" horiz-adv-x="454" 
d="M77 0l124 1184h212l-124 -1184h-212z" />
    <glyph glyph-name="ij" unicode="&#x133;" horiz-adv-x="931" 
d="M700 1358l24 227h214l-24 -227h-214zM419 -139q68 0 100 38t39 107l124 1178h212l-126 -1200q-15 -136 -98 -210t-217 -74q-73 0 -107 13l17 153q30 -5 56 -5zM220 1358l24 227h213l-24 -227h-213zM77 0l124 1184h212l-124 -1184h-212z" />
    <glyph glyph-name="Jcircumflex" unicode="&#x134;" horiz-adv-x="613" 
d="M162 1875l214 358h217l140 -358h-159l-100 252l-153 -252h-159zM68 -43h-106l16 161q79 0 125 10t77 39q30 30 44 77t23 130l134 1284h224l-134 -1289q-23 -215 -108 -314q-84 -98 -295 -98z" />
    <glyph glyph-name="jcircumflex" unicode="&#x135;" horiz-adv-x="468" 
d="M39 1375l214 358h217l140 -358h-159l-100 252l-153 -252h-159zM-29 -165q51 0 83 38t39 107l126 1204h212l-129 -1226q-14 -136 -97 -210t-217 -74q-74 0 -107 13l16 154q24 -6 74 -6z" />
    <glyph glyph-name="Kcommaaccent" unicode="&#x136;" horiz-adv-x="1009" 
d="M402 -577l-43 105q61 7 90 38t35 90h-110l24 222h217l-23 -206q-13 -121 -53 -182t-137 -67zM82 0l174 1658h224l-82 -790l469 790h208l-406 -729l287 -929h-218l-251 826l-112 -177l-69 -649h-224z" />
    <glyph glyph-name="kcommaaccent" unicode="&#x137;" horiz-adv-x="872" 
d="M331 -577l-43 105q61 7 90 38t35 90h-110l24 222h217l-23 -206q-13 -121 -53 -182t-137 -67zM66 3l175 1658h212l-105 -996l382 518l222 1l-329 -464l196 -720h-212l-159 611l-122 -157l-48 -451h-212z" />
    <glyph glyph-name="kgreenlandic" unicode="&#x138;" horiz-adv-x="878" 
d="M73 0l124 1184h212l-56 -527l374 527h214l-320 -452l197 -732h-213l-143 586l-134 -174l-43 -412h-212z" />
    <glyph glyph-name="Lacute" unicode="&#x139;" horiz-adv-x="810" 
d="M338 1797l164 404h212l-268 -404h-108zM82 0l174 1658h224l-156 -1497h428l-18 -161h-652z" />
    <glyph glyph-name="lacute" unicode="&#x13a;" horiz-adv-x="464" 
d="M322 1780l164 404h212l-268 -404h-108zM83 0l174 1658h213l-174 -1658h-213z" />
    <glyph glyph-name="Lcommaaccent" unicode="&#x13b;" horiz-adv-x="810" 
d="M292 -577l-43 105q61 7 90 38t35 90h-110l24 222h217l-23 -206q-13 -121 -53 -182t-137 -67zM82 0l174 1658h224l-156 -1497h428l-18 -161h-652z" />
    <glyph glyph-name="lcommaaccent" unicode="&#x13c;" horiz-adv-x="464" 
d="M73 -577l-43 105q61 7 90 38t35 90h-110l24 222h217l-23 -206q-13 -121 -53 -182t-137 -67zM83 0l174 1658h213l-174 -1658h-213z" />
    <glyph glyph-name="Lcaron" unicode="&#x13d;" horiz-adv-x="810" 
d="M668 1169l53 506h191l-130 -506h-114zM82 0l174 1658h224l-156 -1497h428l-18 -161h-652z" />
    <glyph glyph-name="lcaron" unicode="&#x13e;" horiz-adv-x="635" 
d="M644 1152l53 506h191l-130 -506h-114zM83 0l174 1658h213l-174 -1658h-213z" />
    <glyph glyph-name="Ldot" unicode="&#x13f;" horiz-adv-x="810" 
d="M563 727l23 221h212l-22 -221h-213zM82 0l174 1658h224l-156 -1497h428l-18 -161h-652z" />
    <glyph glyph-name="ldot" unicode="&#x140;" horiz-adv-x="827" 
d="M565 661l23 221h212l-22 -221h-213zM83 0l174 1658h213l-174 -1658h-213z" />
    <glyph glyph-name="Lslash" unicode="&#x141;" horiz-adv-x="810" 
d="M82 0l82 777l-150 -79l18 172l150 79l74 709h224l-61 -585l230 119l-18 -172l-230 -119l-77 -740h428l-18 -161h-652z" />
    <glyph glyph-name="lslash" unicode="&#x142;" horiz-adv-x="544" 
d="M127 0l90 857l-145 -67l17 167l145 66l67 635h212l-56 -537l132 61l-17 -165l-133 -61l-100 -956h-212z" />
    <glyph glyph-name="Nacute" unicode="&#x143;" horiz-adv-x="1079" 
d="M625 1797l164 404h212l-268 -404h-108zM82 0l174 1658h154l359 -1119l117 1119h188l-174 -1658h-145l-362 1150l-122 -1150h-189z" />
    <glyph glyph-name="nacute" unicode="&#x144;" horiz-adv-x="893" 
d="M487 1323l164 404h212l-268 -404h-108zM843 1029q2 -47 -2 -72l-100 -957h-212l94 896q7 73 -9 106q-16 32 -78 32t-161 -77l-101 -957h-211l124 1184h211l-12 -117q158 134 304 134q147 0 153 -172z" />
    <glyph glyph-name="Ncommaaccent" unicode="&#x145;" horiz-adv-x="1079" 
d="M374 -577l-43 105q61 7 90 38t35 90h-110l24 222h217l-23 -206q-13 -121 -53 -182t-137 -67zM82 0l174 1658h154l359 -1119l117 1119h188l-174 -1658h-145l-362 1150l-122 -1150h-189z" />
    <glyph glyph-name="ncommaaccent" unicode="&#x146;" horiz-adv-x="893" 
d="M286 -577l-43 105q61 7 90 38t35 90h-110l24 222h217l-23 -206q-13 -121 -53 -182t-137 -67zM843 1029q2 -47 -2 -72l-100 -957h-212l94 896q7 73 -9 106q-16 32 -78 32t-161 -77l-101 -957h-211l124 1184h211l-12 -117q158 134 304 134q147 0 153 -172z" />
    <glyph glyph-name="Ncaron" unicode="&#x147;" horiz-adv-x="1079" 
d="M575 1797l-140 351h162l93 -239l144 239h162l-214 -351h-207zM82 0l174 1658h154l359 -1119l117 1119h188l-174 -1658h-145l-362 1150l-122 -1150h-189z" />
    <glyph glyph-name="ncaron" unicode="&#x148;" horiz-adv-x="893" 
d="M437 1323l-140 351h162l93 -239l144 239h162l-214 -351h-207zM843 1029q2 -47 -2 -72l-100 -957h-212l94 896q7 73 -9 106q-16 32 -78 32t-161 -77l-101 -957h-211l124 1184h211l-12 -117q158 134 304 134q147 0 153 -172z" />
    <glyph glyph-name="napostrophe" unicode="&#x149;" horiz-adv-x="892" 
d="M843 1029q2 -47 -2 -72l-100 -957h-212l94 896q7 73 -9 106q-16 32 -78 32t-161 -77l-101 -957h-211l124 1184h211l-12 -117q158 134 304 134q147 0 153 -172zM150 1425l53 506h191l-130 -506h-114z" />
    <glyph glyph-name="Eng" unicode="&#x14a;" horiz-adv-x="1088" 
d="M539 -370h-78l16 153q133 0 172.5 32.5t51.5 74t22 126.5l7 67l-349 1067l-121 -1150h-178l174 1658h154l370 -1119l118 1119h176l-174 -1658q-19 -187 -95 -278.5t-266 -91.5z" />
    <glyph glyph-name="eng" unicode="&#x14b;" horiz-adv-x="794" 
d="M606 947q0 31 -14 59t-76 28t-160 -77l-100 -957h-212l124 1184h212l-13 -117q158 134 304 134q100 0 128 -66t28 -110t-4 -68l-102 -969q-19 -177 -135.5 -269t-294.5 -92h-63l17 161q188 0 222 64.5t42 137.5l95 906q2 21 2 51z" />
    <glyph glyph-name="Omacron" unicode="&#x14c;" horiz-adv-x="1101" 
d="M496 1797l13 129h392l-14 -129h-391zM500 -18q-246 0 -336 145q-66 109 -66 273q0 56 8 117l67 634q27 257 145 391t362 133q243 1 334 -141q66 -102 66 -270q0 -53 -6 -113l-68 -635q-41 -397 -291 -497q-91 -37 -215 -37zM508 158q148 0 200 82t68 228l76 729
q6 49 6 79t-2 66t-22 76q-18 40 -62 61t-112 21q-138 0 -190 -79t-67 -224l-76 -729q-5 -52 -5 -93t4 -71q8 -68 55 -107t127 -39z" />
    <glyph glyph-name="omacron" unicode="&#x14d;" horiz-adv-x="863" 
d="M326 1323l13 129h392l-14 -129h-391zM508 1201q312 0 304 -333q0 -50 -7 -106l-36 -341q-35 -328 -223 -408q-70 -30 -166 -30q-96 1 -160 31q-142 67 -142 299q0 51 7 108l35 341q22 215 112 327t276 112zM397 140q27 0 49 8t36 20q14 11 26 34q24 47 32 93q8 45 15 112
l39 368q13 123 8 153q-12 69 -37 93q-25 23 -65 23q-39 0 -63 -10t-40 -30q-33 -44 -45 -99t-18 -130l-39 -368q-13 -124 -8 -153t12 -52q7 -22 19 -34t32 -20t47 -8z" />
    <glyph glyph-name="Obreve" unicode="&#x14e;" horiz-adv-x="1101" 
d="M561 2060q0 -141 142 -143q79 1 123 43t55 136h127q-33 -299 -317 -299q-256 0 -256 247q0 25 3 52h125q-2 -19 -2 -36zM500 -18q-246 0 -336 145q-66 109 -66 273q0 56 8 117l67 634q27 257 145 391t362 133q243 1 334 -141q66 -102 66 -270q0 -53 -6 -113l-68 -635
q-41 -397 -291 -497q-91 -37 -215 -37zM508 158q148 0 200 82t68 228l76 729q6 49 6 79t-2 66t-22 76q-18 40 -62 61t-112 21q-138 0 -190 -79t-67 -224l-76 -729q-5 -52 -5 -93t4 -71q8 -68 55 -107t127 -39z" />
    <glyph glyph-name="obreve" unicode="&#x14f;" horiz-adv-x="863" 
d="M391 1586q0 -141 142 -143q79 1 123 43t55 136h127q-33 -299 -317 -299q-256 0 -256 247q0 25 3 52h125q-2 -19 -2 -36zM508 1201q312 0 304 -333q0 -50 -7 -106l-36 -341q-35 -328 -223 -408q-70 -30 -166 -30q-96 1 -160 31q-142 67 -142 299q0 51 7 108l35 341
q22 215 112 327t276 112zM397 140q27 0 49 8t36 20q14 11 26 34q24 47 32 93q8 45 15 112l39 368q13 123 8 153q-12 69 -37 93q-25 23 -65 23q-39 0 -63 -10t-40 -30q-33 -44 -45 -99t-18 -130l-39 -368q-13 -124 -8 -153t12 -52q7 -22 19 -34t32 -20t47 -8z" />
    <glyph glyph-name="Ohungarumlaut" unicode="&#x150;" horiz-adv-x="1101" 
d="M764 1797l154 348h216l-262 -348h-108zM510 1797l116 348h175l-184 -348h-107zM500 -18q-246 0 -336 145q-66 109 -66 273q0 56 8 117l67 634q27 257 145 391t362 133q243 1 334 -141q66 -102 66 -270q0 -53 -6 -113l-68 -635q-41 -397 -291 -497q-91 -37 -215 -37z
M508 158q148 0 200 82t68 228l76 729q6 49 6 79t-2 66t-22 76q-18 40 -62 61t-112 21q-138 0 -190 -79t-67 -224l-76 -729q-5 -52 -5 -93t4 -71q8 -68 55 -107t127 -39z" />
    <glyph glyph-name="ohungarumlaut" unicode="&#x151;" horiz-adv-x="863" 
d="M594 1323l154 348h216l-262 -348h-108zM340 1323l116 348h175l-184 -348h-107zM508 1201q312 0 304 -333q0 -50 -7 -106l-36 -341q-35 -328 -223 -408q-70 -30 -166 -30q-96 1 -160 31q-142 67 -142 299q0 51 7 108l35 341q22 215 112 327t276 112zM397 140q27 0 49 8
t36 20q14 11 26 34q24 47 32 93q8 45 15 112l39 368q13 123 8 153q-12 69 -37 93q-25 23 -65 23q-39 0 -63 -10t-40 -30q-33 -44 -45 -99t-18 -130l-39 -368q-13 -124 -8 -153t12 -52q7 -22 19 -34t32 -20t47 -8z" />
    <glyph glyph-name="OE" unicode="&#x152;" horiz-adv-x="1391" 
d="M560 167h112l141 1330h-117q-130 0 -181 -45t-78.5 -111.5t-45.5 -258.5l-58 -556q-9 -79 -9 -127t3 -77q8 -80 62 -117.5t171 -37.5zM538 0q-271 0 -343.5 96t-84.5 165t-12 124t7 118l65 620q28 269 151 402t375 133h760l-17 -167h-404l-58 -552h329l-16 -161h-329
l-65 -616h407l-17 -162h-748z" />
    <glyph glyph-name="oe" unicode="&#x153;" horiz-adv-x="1394" 
d="M1106 848v30q0 57 -18.5 92.5t-39.5 46.5t-57 11q-77 0 -111 -80.5t-46 -201.5l-4 -40h264l4 38q8 82 8 104zM425 157q29 0 50.5 8t37 19t37.5 52t37 181l37 349q8 96 8 143t-26 83t-76 36q-48 0 -87 -21t-56.5 -83t-26.5 -158l-37 -349q-8 -67 -8 -114.5t6.5 -68
t18.5 -40t34 -28.5t51 -9zM1023 1201q259 0 286 -229q6 -50 6 -117t-9 -156l-12 -102h-476l-8 -78q-16 -139 -13.5 -173t5.5 -71.5t27 -76.5t76 -41h13q60 1 93 37t44 136l9 81h211l-9 -79q-20 -182 -109 -266t-249 -83h-22q-176 6 -223 146q-77 -145 -259 -145t-249 110
q-50 82 -50 221q0 48 6 102l36 349q22 213 112.5 324t270.5 111t231 -144q77 144 262 144z" />
    <glyph glyph-name="Racute" unicode="&#x154;" horiz-adv-x="1061" 
d="M640 1797l164 404h212l-268 -404h-108zM505 942q151 0 221 60t87 219q4 37 4 69q0 98 -37 145q-49 62 -203 62h-113l-58 -555h99zM595 1658q248 0 353 -104q85 -84 85 -252q0 -38 -4 -81q-35 -323 -249 -388l151 -833h-217l-138 782h-187l-83 -782h-224l174 1658h339z
" />
    <glyph glyph-name="racute" unicode="&#x155;" horiz-adv-x="653" 
d="M408 1323l164 404h212l-268 -404h-108zM669 1199q5 0 35 -2l-25 -234q-51 22 -109 22t-105 -25q-46 -25 -93 -90l-91 -870h-212l124 1184h212l-17 -168q128 183 281 183z" />
    <glyph glyph-name="Rcommaaccent" unicode="&#x156;" horiz-adv-x="1061" 
d="M390 -577l-43 105q61 7 90 38t35 90h-110l24 222h217l-23 -206q-13 -121 -53 -182t-137 -67zM505 942q151 0 221 60t87 219q4 37 4 69q0 98 -37 145q-49 62 -203 62h-113l-58 -555h99zM595 1658q248 0 353 -104q85 -84 85 -252q0 -38 -4 -81q-35 -323 -249 -388l151 -833
h-217l-138 782h-187l-83 -782h-224l174 1658h339z" />
    <glyph glyph-name="rcommaaccent" unicode="&#x157;" horiz-adv-x="653" 
d="M207 -577l-43 105q61 7 90 38t35 90h-110l24 222h217l-23 -206q-13 -121 -53 -182t-137 -67zM669 1199q5 0 35 -2l-25 -234q-51 22 -109 22t-105 -25q-46 -25 -93 -90l-91 -870h-212l124 1184h212l-17 -168q128 183 281 183z" />
    <glyph glyph-name="Rcaron" unicode="&#x158;" horiz-adv-x="1061" 
d="M591 1797l-140 351h162l93 -239l144 239h162l-214 -351h-207zM505 942q151 0 221 60t87 219q4 37 4 69q0 98 -37 145q-49 62 -203 62h-113l-58 -555h99zM595 1658q248 0 353 -104q85 -84 85 -252q0 -38 -4 -81q-35 -323 -249 -388l151 -833h-217l-138 782h-187l-83 -782
h-224l174 1658h339z" />
    <glyph glyph-name="rcaron" unicode="&#x159;" horiz-adv-x="653" 
d="M359 1323l-140 351h162l93 -239l144 239h162l-214 -351h-207zM669 1199q5 0 35 -2l-25 -234q-51 22 -109 22t-105 -25q-46 -25 -93 -90l-91 -870h-212l124 1184h212l-17 -168q128 183 281 183z" />
    <glyph glyph-name="Sacute" unicode="&#x15a;" horiz-adv-x="966" 
d="M582 1797l164 404h212l-268 -404h-108zM775 1250q0 252 -174 251q-209 0 -228 -186q-2 -19 -2 -52q0 -84 88 -175l255 -249q193 -191 193 -409q-1 -218 -143 -342q-120 -106 -312 -106t-284 122q-90 122 -90 315q0 20 1 42l205 54q-11 -255 94 -327q44 -30 122 -30
t137 56t59 178t-96 230q-19 22 -54 58l-253 250q-126 128 -126 274q-1 249 137 369q114 100 295 102h7q192 -1 278 -102t85 -308v-19l-195 -52q1 24 1 56z" />
    <glyph glyph-name="sacute" unicode="&#x15b;" horiz-adv-x="762" 
d="M418 1323l164 404h212l-268 -404h-108zM579 836q-4 208 -120 208q-61 0 -101 -38t-40 -101q0 -62 51 -111l186 -188q139 -137 139 -280q0 -175 -105 -259t-252 -84t-223 89t-77 230v15l182 53q2 -230 135 -230q66 0 110 41t44 118t-82 153l-180 169q-120 113 -120 240
q0 170 110 264q88 77 224 77t202 -86t66 -215v-12z" />
    <glyph glyph-name="Scircumflex" unicode="&#x15c;" horiz-adv-x="966" 
d="M351 1797l214 358h217l140 -358h-159l-100 252l-153 -252h-159zM775 1250q0 252 -174 251q-209 0 -228 -186q-2 -19 -2 -52q0 -84 88 -175l255 -249q193 -191 193 -409q-1 -218 -143 -342q-120 -106 -312 -106t-284 122q-90 122 -90 315q0 20 1 42l205 54
q-11 -255 94 -327q44 -30 122 -30t137 56t59 178t-96 230q-19 22 -54 58l-253 250q-126 128 -126 274q-1 249 137 369q114 100 295 102h7q192 -1 278 -102t85 -308v-19l-195 -52q1 24 1 56z" />
    <glyph glyph-name="scircumflex" unicode="&#x15d;" horiz-adv-x="762" 
d="M186 1323l214 358h217l140 -358h-159l-100 252l-153 -252h-159zM579 836q-4 208 -120 208q-61 0 -101 -38t-40 -101q0 -62 51 -111l186 -188q139 -137 139 -280q0 -175 -105 -259t-252 -84t-223 89t-77 230v15l182 53q2 -230 135 -230q66 0 110 41t44 118t-82 153
l-180 169q-120 113 -120 240q0 170 110 264q88 77 224 77t202 -86t66 -215v-12z" />
    <glyph glyph-name="Scedilla" unicode="&#x15e;" horiz-adv-x="966" 
d="M775 1250q0 252 -174 251q-209 0 -228 -186q-2 -19 -2 -52q0 -84 88 -175l255 -249q193 -191 193 -409q-1 -218 -143 -342q-101 -89 -242 -103l-10 -99q88 -14 146 -58t58 -107v-9q-4 -60 -40 -104q-66 -78 -220 -83h-42q-36 0 -102 20l12 107q64 -14 110 -14t82 18
t40 48t-5 47q-14 32 -54 50q-40 17 -99 31l16 152q-168 15 -252 128q-84 114 -84 307q0 20 1 42l205 54q-11 -255 94 -327q44 -30 122 -30t137 56t59 178t-96 230q-19 22 -54 58l-253 250q-126 128 -126 274q-1 249 137 369q114 100 295 102h7q192 -1 278 -102t85 -308v-19
l-195 -52q1 24 1 56z" />
    <glyph glyph-name="scedilla" unicode="&#x15f;" horiz-adv-x="762" 
d="M579 836q-4 208 -120 208q-61 0 -101 -38t-40 -101q0 -62 51 -111l186 -188q139 -137 139 -280q0 -175 -114 -266q-67 -53 -158 -70l-10 -104q88 -14 146 -58t58 -107v-9q-4 -60 -40 -104q-66 -78 -220 -83h-42q-36 0 -102 20l12 107q64 -14 110 -14t82 18t40 48t-5 47
q-14 32 -54 50q-40 17 -99 31l16 151q-130 6 -203 92q-74 86 -74 227v15l182 53q2 -230 135 -230q66 0 110 41t44 118t-82 153l-180 169q-120 113 -120 240q0 170 110 264q88 77 224 77t202 -86t66 -215v-12z" />
    <glyph glyph-name="Scaron" unicode="&#x160;" horiz-adv-x="966" 
d="M533 1797l-140 351h162l93 -239l144 239h162l-214 -351h-207zM775 1250q0 252 -174 251q-209 0 -228 -186q-2 -19 -2 -52q0 -84 88 -175l255 -249q193 -191 193 -409q-1 -218 -143 -342q-120 -106 -312 -106t-284 122q-90 122 -90 315q0 20 1 42l205 54q-11 -255 94 -327
q44 -30 122 -30t137 56t59 178t-96 230q-19 22 -54 58l-253 250q-126 128 -126 274q-1 249 137 369q114 100 295 102h7q192 -1 278 -102t85 -308v-19l-195 -52q1 24 1 56z" />
    <glyph glyph-name="scaron" unicode="&#x161;" horiz-adv-x="762" 
d="M368 1323l-140 351h162l93 -239l144 239h162l-214 -351h-207zM579 836q-4 208 -120 208q-61 0 -101 -38t-40 -101q0 -62 51 -111l186 -188q139 -137 139 -280q0 -175 -105 -259t-252 -84t-223 89t-77 230v15l182 53q2 -230 135 -230q66 0 110 41t44 118t-82 153l-180 169
q-120 113 -120 240q0 170 110 264q88 77 224 77t202 -86t66 -215v-12z" />
    <glyph glyph-name="Tcommaaccent" unicode="&#x162;" horiz-adv-x="817" 
d="M344 -362q46 0 82 18t40 48t-5 47q-14 32 -54 50q-40 17 -99 31l18 168h-72l156 1492h-305l17 166h825l-17 -166h-296l-157 -1492h-44l-11 -114q88 -14 146 -58t58 -107v-9q-4 -60 -40 -104q-66 -78 -220 -83h-42q-36 0 -102 20l12 107q64 -14 110 -14z" />
    <glyph glyph-name="tcommaaccent" unicode="&#x163;" horiz-adv-x="625" 
d="M303 -362q47 0 83 18t40 48t-5 47q-14 32 -54 50q-40 17 -99 31l17 161q-136 34 -138 217q0 26 3 54l82 778h-126l15 142h125l37 347h212l-37 -347h191l-14 -142h-191l-81 -763q-2 -20 -2 -51q1 -31 17 -56t72 -25t90 6l-17 -158q-73 -9 -132 -11l-9 -98q88 -14 146 -58
t58 -107v-9q-4 -60 -40 -104q-66 -78 -220 -83h-42q-36 0 -102 20l12 107q62 -14 109 -14z" />
    <glyph glyph-name="Tcaron" unicode="&#x164;" horiz-adv-x="817" 
d="M445 1797l-140 351h162l93 -239l144 239h162l-214 -351h-207zM254 0l156 1492h-305l17 166h825l-17 -166h-296l-157 -1492h-223z" />
    <glyph glyph-name="tcaron" unicode="&#x165;" horiz-adv-x="933" 
d="M775 1025l53 506h191l-130 -506h-114zM372 -16q-134 0 -179 63t-46 163q0 26 3 54l82 778h-126l15 142h125l37 347h212l-37 -347h191l-14 -142h-191l-81 -763q-2 -20 -2 -51q1 -31 17 -56t72 -25t90 6l-17 -158q-86 -11 -151 -11z" />
    <glyph glyph-name="Tbar" unicode="&#x166;" horiz-adv-x="817" 
d="M116 805l14 127h221l59 560h-305l17 166h825l-17 -166h-296l-59 -560h203l-14 -127h-202l-85 -805h-223l84 805h-222z" />
    <glyph glyph-name="tbar" unicode="&#x167;" horiz-adv-x="500" 
d="M361 228q1 -31 17 -56t72 -25t90 6l-17 -158q-86 -11 -151 -11q-134 0 -179 63t-46 163q0 26 3 54l46 436h-124l11 109h124l25 233h-126l15 142h125l37 347h212l-37 -347h191l-14 -142h-191l-25 -233h197l-11 -109h-197l-45 -421q-2 -20 -2 -51z" />
    <glyph glyph-name="Utilde" unicode="&#x168;" horiz-adv-x="1112" 
d="M828 1797q-40 0 -89 25t-92 50q-43 24 -69 26q-53 3 -61 -83h-122q9 97 55 157t135 60h9q52 -2 140 -50t112 -49q46 -2 55 86h120q-23 -226 -188 -222h-5zM114 399q0 70 11 149l117 1110h212l-117 -1120q-9 -62 -9 -98q0 -108 20 -172q34 -111 185 -110q151 0 211 156
q33 86 46 224l118 1120h213l-117 -1110q-34 -340 -178 -466q-116 -100 -334 -100q-118 0 -202 40t-124 116q-52 102 -52 261z" />
    <glyph glyph-name="utilde" unicode="&#x169;" horiz-adv-x="895" 
d="M665 1323q-40 0 -89 25t-92 50q-43 24 -69 26q-53 3 -61 -83h-122q10 97 56 157t134 60h9q52 -2 140 -50q87 -48 111 -49q46 -2 56 86h120q-23 -226 -188 -222h-5zM230 -17q-100 0 -132 77q-24 55 -23 99q0 44 4 68l100 957h212l-94 -896q-2 -20 -2 -50q1 -30 15 -59
t76 -29t159 78l100 956h212l-124 -1184h-212l13 118q-155 -135 -304 -135z" />
    <glyph glyph-name="Umacron" unicode="&#x16a;" horiz-adv-x="1112" 
d="M500 1797l13 129h392l-14 -129h-391zM114 399q0 70 11 149l117 1110h212l-117 -1120q-9 -62 -9 -98q0 -108 20 -172q34 -111 185 -110q151 0 211 156q33 86 46 224l118 1120h213l-117 -1110q-34 -340 -178 -466q-116 -100 -334 -100q-118 0 -202 40t-124 116
q-52 102 -52 261z" />
    <glyph glyph-name="umacron" unicode="&#x16b;" horiz-adv-x="895" 
d="M336 1323l13 129h392l-14 -129h-391zM230 -17q-100 0 -132 77q-24 55 -23 99q0 44 4 68l100 957h212l-94 -896q-2 -20 -2 -50q1 -30 15 -59t76 -29t159 78l100 956h212l-124 -1184h-212l13 118q-155 -135 -304 -135z" />
    <glyph glyph-name="Ubreve" unicode="&#x16c;" horiz-adv-x="1112" 
d="M564 2060q0 -141 142 -143q79 1 123 43t55 136h127q-33 -299 -317 -299q-256 0 -256 247q0 25 3 52h125q-2 -19 -2 -36zM114 399q0 70 11 149l117 1110h212l-117 -1120q-9 -62 -9 -98q0 -108 20 -172q34 -111 185 -110q151 0 211 156q33 86 46 224l118 1120h213
l-117 -1110q-34 -340 -178 -466q-116 -100 -334 -100q-118 0 -202 40t-124 116q-52 102 -52 261z" />
    <glyph glyph-name="ubreve" unicode="&#x16d;" horiz-adv-x="895" 
d="M401 1586q0 -141 142 -143q79 1 123 43t55 136h127q-33 -299 -317 -299q-256 0 -256 247q0 25 3 52h125q-2 -19 -2 -36zM230 -17q-100 0 -132 77q-24 55 -23 99q0 44 4 68l100 957h212l-94 -896q-2 -20 -2 -50q1 -30 15 -59t76 -29t159 78l100 956h212l-124 -1184h-212
l13 118q-155 -135 -304 -135z" />
    <glyph glyph-name="Uring" unicode="&#x16e;" horiz-adv-x="1112" 
d="M694 1797q-100 1 -151 57t-51 136q0 124 74 191q74 66 175 66q101 1 153 -55t52 -139q0 -121 -76 -189q-76 -67 -176 -67zM836 2028q0 112 -106 112q-54 0 -92 -34t-37 -118q-1 -26 25 -54t80 -29q54 0 92 34t38 89zM114 399q0 70 11 149l117 1110h212l-117 -1120
q-9 -62 -9 -98q0 -108 20 -172q34 -111 185 -110q151 0 211 156q33 86 46 224l118 1120h213l-117 -1110q-34 -340 -178 -466q-116 -100 -334 -100q-118 0 -202 40t-124 116q-52 102 -52 261z" />
    <glyph glyph-name="uring" unicode="&#x16f;" horiz-adv-x="895" 
d="M532 1323q-100 1 -152 57q-51 56 -51 136q0 124 74 191q74 66 175 66q101 1 153 -55t52 -139q1 -121 -75 -189q-76 -67 -176 -67zM673 1554q0 112 -106 112q-53 0 -91 -34t-38 -118q0 -26 26 -54t78 -29q54 0 92 34t39 89zM230 -17q-100 0 -132 77q-24 55 -23 99
q0 44 4 68l100 957h212l-94 -896q-2 -20 -2 -50q1 -30 15 -59t76 -29t159 78l100 956h212l-124 -1184h-212l13 118q-155 -135 -304 -135z" />
    <glyph glyph-name="Uhungarumlaut" unicode="&#x170;" horiz-adv-x="1112" 
d="M768 1797l154 348h216l-262 -348h-108zM514 1797l116 348h175l-184 -348h-107zM114 399q0 70 11 149l117 1110h212l-117 -1120q-9 -62 -9 -98q0 -108 20 -172q34 -111 185 -110q151 0 211 156q33 86 46 224l118 1120h213l-117 -1110q-34 -340 -178 -466
q-116 -100 -334 -100q-118 0 -202 40t-124 116q-52 102 -52 261z" />
    <glyph glyph-name="uhungarumlaut" unicode="&#x171;" horiz-adv-x="895" 
d="M605 1323l154 348h216l-262 -348h-108zM351 1323l116 348h175l-184 -348h-107zM230 -17q-100 0 -132 77q-24 55 -23 99q0 44 4 68l100 957h212l-94 -896q-2 -20 -2 -50q1 -30 15 -59t76 -29t159 78l100 956h212l-124 -1184h-212l13 118q-155 -135 -304 -135z" />
    <glyph glyph-name="Uogonek" unicode="&#x172;" horiz-adv-x="1112" 
d="M211 -321q0 117 89 215q57 62 117 93q-186 24 -250 151q-53 101 -53 261q0 70 11 149l117 1110h212l-117 -1120q-9 -62 -9 -98q0 -108 20 -172q34 -111 185 -110q151 0 211 156q33 86 46 224l118 1120h213l-117 -1110q-34 -340 -178 -466q-102 -89 -275 -99
q-6 -7 -27 -28t-33 -35q-182 -212 -94 -256q39 -20 85 -20t72 1t38 1l-49 -108q-219 0 -283 44q-49 39 -49 97z" />
    <glyph glyph-name="uogonek" unicode="&#x173;" horiz-adv-x="895" 
d="M302 -321q0 117 79 204t155 117h-15l13 118q-155 -135 -304 -135q-100 0 -132 77q-24 55 -23 99q0 44 4 68l100 957h212l-94 -896q-2 -20 -2 -50q1 -30 15 -59t76 -29t159 78l100 956h212l-124 -1184h-75q-9 -10 -37 -38q-27 -28 -39 -42q-182 -212 -94 -256
q38 -20 84 -20t72 1t39 1l-49 -108q-219 0 -283 44q-49 39 -49 97z" />
    <glyph glyph-name="Wcircumflex" unicode="&#x174;" horiz-adv-x="1490" 
d="M598 1797l214 358h217l140 -358h-159l-100 252l-153 -252h-159zM296 0l-98 1658h189l54 -1208l353 1201h159l102 -1205l303 1212h184l-441 -1658h-163l-104 1242l-367 -1242h-171z" />
    <glyph glyph-name="wcircumflex" unicode="&#x175;" horiz-adv-x="1201" 
d="M404 1323l214 358h217l140 -358h-159l-100 252l-153 -252h-159zM200 0l-66 1184h175l33 -884l253 884h163l68 -881l218 881h174l-319 -1184h-181l-74 848l-251 -848h-193z" />
    <glyph glyph-name="Ycircumflex" unicode="&#x176;" horiz-adv-x="983" 
d="M345 1797l214 358h217l140 -358h-159l-100 252l-153 -252h-159zM337 0l61 582l-247 1076h209l173 -811l338 811h212l-471 -1076l-61 -582h-214z" />
    <glyph glyph-name="ycircumflex" unicode="&#x177;" horiz-adv-x="799" 
d="M205 1323l214 358h217l140 -358h-159l-100 252l-153 -252h-159zM250 -68q6 20 6 45q0 24 -22 196l-133 1011h215l70 -897l252 897h215l-415 -1251q-42 -125 -138 -177t-260 -52h-28l17 161q148 -1 182 23q33 24 39 44z" />
    <glyph glyph-name="Ydieresis" unicode="&#x178;" horiz-adv-x="983" 
d="M698 1797l24 221h214l-23 -221h-215zM349 1797l23 221h213l-23 -221h-213zM337 0l61 582l-247 1076h209l173 -811l338 811h212l-471 -1076l-61 -582h-214z" />
    <glyph glyph-name="Zacute" unicode="&#x179;" horiz-adv-x="851" 
d="M528 1797l164 404h212l-268 -404h-108zM28 0l18 161l634 1336h-463l17 161h701l-11 -98l-666 -1399h520l-17 -161h-733z" />
    <glyph glyph-name="zacute" unicode="&#x17a;" horiz-adv-x="707" 
d="M398 1323l164 404h212l-268 -404h-108zM17 0l15 143l460 882h-330l16 159h557l-12 -116l-462 -908h359l-17 -160h-586z" />
    <glyph glyph-name="Zdotaccent" unicode="&#x17b;" horiz-adv-x="851" 
d="M475 1797l25 241h215l-26 -241h-214zM28 0l18 161l634 1336h-463l17 161h701l-11 -98l-666 -1399h520l-17 -161h-733z" />
    <glyph glyph-name="zdotaccent" unicode="&#x17c;" horiz-adv-x="707" 
d="M345 1323l25 241h215l-26 -241h-214zM17 0l15 143l460 882h-330l16 159h557l-12 -116l-462 -908h359l-17 -160h-586z" />
    <glyph glyph-name="Zcaron" unicode="&#x17d;" horiz-adv-x="851" 
d="M479 1797l-140 351h162l93 -239l144 239h162l-214 -351h-207zM28 0l18 161l634 1336h-463l17 161h701l-11 -98l-666 -1399h520l-17 -161h-733z" />
    <glyph glyph-name="zcaron" unicode="&#x17e;" horiz-adv-x="707" 
d="M348 1323l-140 351h162l93 -239l144 239h162l-214 -351h-207zM17 0l15 143l460 882h-330l16 159h557l-12 -116l-462 -908h359l-17 -160h-586z" />
    <glyph glyph-name="florin" unicode="&#x192;" horiz-adv-x="777" 
d="M60 -246q-52 0 -137 11l33 159q55 -10 79 -10q60 0 87.5 37.5t45.5 117.5l205 957h-136l16 158h153l18 79q44 212 122 275t202 63q46 0 137 -12l-33 -158l-78 10q-60 0 -88 -37.5t-46 -116.5l-22 -103h159l-16 -158h-176l-200 -934q-47 -214 -124 -276t-201 -62z" />
    <glyph glyph-name="uni01C4" unicode="&#x1c4;" horiz-adv-x="1929" 
d="M1557 1797l-140 351h162l93 -239l144 239h162l-214 -351h-207zM1106 0l18 161l634 1336h-463l17 161h701l-11 -98l-666 -1399h520l-17 -161h-733zM617 1658q271 0 367 -128q50 -64 62 -134t11 -124q0 -56 -7 -118l-64 -615q-29 -271 -152 -405t-374 -134h-378l174 1658
h361zM461 161q134 0 208 69q52 48 77 204q8 50 18 147l58 547q9 80 9 128t-3 79q-8 81 -62 119t-170 38h-133l-139 -1331h137z" />
    <glyph glyph-name="uni01C5" unicode="&#x1c5;" horiz-adv-x="1785" 
d="M1426 1323l-140 351h162l93 -239l144 239h162l-214 -351h-207zM1095 0l15 143l460 882h-330l16 159h557l-12 -116l-462 -908h359l-17 -160h-586zM617 1658q271 0 367 -128q50 -64 62 -134t11 -124q0 -56 -7 -118l-64 -615q-29 -271 -152 -405t-374 -134h-378l174 1658
h361zM461 161q134 0 208 69q52 48 77 204q8 50 18 147l58 547q9 80 9 128t-3 79q-8 81 -62 119t-170 38h-133l-139 -1331h137z" />
    <glyph glyph-name="uni01C6" unicode="&#x1c6;" horiz-adv-x="1606" 
d="M1247 1323l-140 351h162l93 -239l144 239h162l-214 -351h-207zM916 0l15 143l460 882h-330l16 159h557l-12 -116l-462 -908h359l-17 -160h-586zM508 1034q-92 0 -127 -71t-47 -186l-35 -329q-7 -78 -7 -112v-42q2 -144 113 -144q65 0 143 48l82 780q-69 56 -122 56z
M334 -17h-3q-151 0 -210 113t-31 370l24 229q29 289 117 398q88 108 224 108q106 -1 189 -93l57 550h212l-174 -1658h-212l8 76q-96 -93 -201 -93z" />
    <glyph glyph-name="uni01C7" unicode="&#x1c7;" horiz-adv-x="1423" 
d="M878 -43h-106l16 161q79 0 125 10t77 39q30 30 44 77t23 130l134 1284h224l-134 -1289q-23 -215 -108 -314q-84 -98 -295 -98zM82 0l174 1658h224l-156 -1497h428l-18 -161h-652z" />
    <glyph glyph-name="uni01C8" unicode="&#x1c8;" horiz-adv-x="1278" 
d="M1047 1358l24 227h214l-24 -227h-214zM766 -139q68 0 100 38t39 107l124 1178h212l-126 -1200q-15 -136 -98 -210t-217 -74q-73 0 -107 13l17 153q30 -5 56 -5zM82 0l174 1658h224l-156 -1497h428l-18 -161h-652z" />
    <glyph glyph-name="uni01C9" unicode="&#x1c9;" horiz-adv-x="932" 
d="M701 1358l24 227h214l-24 -227h-214zM420 -139q68 0 100 38t39 107l124 1178h212l-126 -1200q-15 -136 -98 -210t-217 -74q-73 0 -107 13l17 153q30 -5 56 -5zM83 0l174 1658h213l-174 -1658h-213z" />
    <glyph glyph-name="uni01CA" unicode="&#x1ca;" horiz-adv-x="1692" 
d="M1147 -43h-106l16 161q79 0 125 10t77 39q31 30 45 77t22 130l134 1284h224l-134 -1289q-23 -215 -108 -314q-84 -98 -295 -98zM82 0l174 1658h154l359 -1119l117 1119h188l-174 -1658h-145l-362 1150l-122 -1150h-189z" />
    <glyph glyph-name="uni01CB" unicode="&#x1cb;" horiz-adv-x="1547" 
d="M1316 1358l24 227h214l-24 -227h-214zM1035 -139q68 0 100 38t39 107l124 1178h212l-126 -1200q-15 -136 -98 -210t-217 -74q-73 0 -107 13l17 153q30 -5 56 -5zM82 0l174 1658h154l359 -1119l117 1119h188l-174 -1658h-145l-362 1150l-122 -1150h-189z" />
    <glyph glyph-name="uni01CC" unicode="&#x1cc;" horiz-adv-x="1361" 
d="M1130 1358l24 227h214l-24 -227h-214zM849 -139q68 0 100 38t39 107l124 1178h212l-126 -1200q-15 -136 -98 -210t-217 -74q-73 0 -107 13l17 153q30 -5 56 -5zM843 1029q2 -47 -2 -72l-100 -957h-212l94 896q7 73 -9 106q-16 32 -78 32t-161 -77l-101 -957h-211
l124 1184h211l-12 -117q158 134 304 134q147 0 153 -172z" />
    <glyph glyph-name="uni01F1" unicode="&#x1f1;" horiz-adv-x="1929" 
d="M1106 0l18 161l634 1336h-463l17 161h701l-11 -98l-666 -1399h520l-17 -161h-733zM617 1658q271 0 367 -128q50 -64 62 -134t11 -124q0 -56 -7 -118l-64 -615q-29 -271 -152 -405t-374 -134h-378l174 1658h361zM461 161q134 0 208 69q52 48 77 204q8 50 18 147l58 547
q9 80 9 128t-3 79q-8 81 -62 119t-170 38h-133l-139 -1331h137z" />
    <glyph glyph-name="uni01F2" unicode="&#x1f2;" horiz-adv-x="1785" 
d="M1095 0l15 143l460 882h-330l16 159h557l-12 -116l-462 -908h359l-17 -160h-586zM617 1658q271 0 367 -128q50 -64 62 -134t11 -124q0 -56 -7 -118l-64 -615q-29 -271 -152 -405t-374 -134h-378l174 1658h361zM461 161q134 0 208 69q52 48 77 204q8 50 18 147l58 547
q9 80 9 128t-3 79q-8 81 -62 119t-170 38h-133l-139 -1331h137z" />
    <glyph glyph-name="uni01F3" unicode="&#x1f3;" horiz-adv-x="1606" 
d="M916 0l15 143l460 882h-330l16 159h557l-12 -116l-462 -908h359l-17 -160h-586zM508 1034q-92 0 -127 -71t-47 -186l-35 -329q-7 -78 -7 -112v-42q2 -144 113 -144q65 0 143 48l82 780q-69 56 -122 56zM334 -17h-3q-151 0 -210 113t-31 370l24 229q29 289 117 398
q88 108 224 108q106 -1 189 -93l57 550h212l-174 -1658h-212l8 76q-96 -93 -201 -93z" />
    <glyph glyph-name="uni01F4" unicode="&#x1f4;" horiz-adv-x="1093" 
d="M627 1797l164 404h212l-268 -404h-108zM471 -21q-223 0 -307 142q-63 106 -63 286q0 62 7 133l60 564q29 279 137 425q108 147 351 147q242 0 330 -118q67 -91 67 -260q0 -50 -6 -108l-7 -61h-209l5 53q8 68 8 110t-3 68q-7 72 -51 106t-112 34t-102 -10q-36 -10 -60 -25
q-24 -16 -44 -43q-57 -79 -77 -285l-66 -620q-7 -65 -7 -143t26 -132q38 -84 170 -84t190 90t79 289l13 124h-214l18 159h416l-86 -820h-142l-2 191q-96 -212 -319 -212z" />
    <glyph glyph-name="uni01F5" unicode="&#x1f5;" horiz-adv-x="890" 
d="M514 1328l164 404h212l-268 -404h-108zM304 676q0 -162 124 -162q106 0 144 102q20 54 29 142t9 121v45q-4 129 -122 129q-88 -1 -126 -67q-58 -102 -58 -310zM608 -64q0 44 -30 70t-125 38l-182 15q-35 -24 -73 -71t-38 -88q0 -42 14 -60q33 -41 234 -41q200 0 200 137z
M786 867q0 -260 -110 -396q-88 -108 -263 -108q-19 1 -63 7t-49 8l-14 -20q-14 -20 -19 -28q-56 -86 52 -98q28 -4 114 -12t90 -9q249 -26 249 -243q0 -21 -2 -43q-17 -157 -111 -225t-291 -69q-198 0 -283 31t-106 84q-13 33 -9 71q11 91 67 159t135 107q-54 17 -79 48
t-25 51q1 78 41 130q40 51 115 113q-106 90 -106 261q0 43 6 94q43 421 385 421q172 0 222 -132q16 21 66 59t106 63l36 15l38 -138q-43 -8 -117 -36t-92 -42q17 -56 17 -123z" />
    <glyph glyph-name="uni0200" unicode="&#x200;" horiz-adv-x="1004" 
d="M717 1797l-115 345h175l47 -345h-107zM459 1797l-190 345h215l81 -345h-106zM373 581h285l-63 763zM-9 0l528 1658h217l180 -1658h-214l-32 421h-343l-123 -421h-213z" />
    <glyph glyph-name="uni0201" unicode="&#x201;" horiz-adv-x="866" 
d="M600 1323l-115 345h175l47 -345h-107zM342 1323l-190 345h215l81 -345h-106zM281 271q-1 -33 21 -69t70 -35q48 -1 92 33q45 34 69 69l36 338q-74 -32 -139 -78q-66 -46 -86 -70q-20 -25 -39 -61q-18 -36 -21 -65t-3 -62zM596 916q0 46 -11 76q-19 50 -92 49
q-129 0 -146 -171l-7 -58l-209 8q1 4 3 20q25 195 125 278q100 84 267 84t232 -94q50 -72 50 -200q0 -39 -5 -84l-57 -545q-11 -103 -11 -175t1 -104h-193q-10 101 -10 174q-34 -81 -101 -136q-67 -54 -164 -54q-96 0 -152 76t-56 173t68 223q20 36 66 76q47 38 73 58
t105 57t143 63q65 26 67 27l9 85q5 48 5 94z" />
    <glyph glyph-name="uni0202" unicode="&#x202;" horiz-adv-x="1004" 
d="M674 2096q78 0 128 -23q86 -39 104 -145q12 -75 3 -131h-125q12 98 -17 138q-29 41 -105 41t-114 -42q-37 -42 -48 -137h-126q26 222 166 277q56 22 134 22zM373 581h285l-63 763zM-9 0l528 1658h217l180 -1658h-214l-32 421h-343l-123 -421h-213z" />
    <glyph glyph-name="uni0203" unicode="&#x203;" horiz-adv-x="866" 
d="M556 1622q78 0 130 -23q88 -39 104 -145q12 -75 2 -131h-125q12 98 -17 138q-30 41 -106 41t-113 -42t-48 -137h-126q26 222 166 277q55 22 133 22zM281 271q-1 -33 21 -69t70 -35q48 -1 92 33q45 34 69 69l36 338q-74 -32 -139 -78q-66 -46 -86 -70q-20 -25 -39 -61
q-18 -36 -21 -65t-3 -62zM596 916q0 46 -11 76q-19 50 -92 49q-129 0 -146 -171l-7 -58l-209 8q1 4 3 20q25 195 125 278q100 84 267 84t232 -94q50 -72 50 -200q0 -39 -5 -84l-57 -545q-11 -103 -11 -175t1 -104h-193q-10 101 -10 174q-34 -81 -101 -136q-67 -54 -164 -54
q-96 0 -152 76t-56 173t68 223q20 36 66 76q47 38 73 58t105 57t143 63q65 26 67 27l9 85q5 48 5 94z" />
    <glyph glyph-name="uni0204" unicode="&#x204;" 
d="M667 1797l-115 345h175l47 -345h-107zM409 1797l-190 345h215l81 -345h-106zM82 0l174 1658h638l-17 -166h-414l-59 -555h337l-16 -161h-337l-65 -615h420l-18 -161h-643z" />
    <glyph glyph-name="uni0205" unicode="&#x205;" horiz-adv-x="856" 
d="M595 1323l-115 345h175l47 -345h-107zM337 1323l-190 345h215l81 -345h-106zM602 938q-4 106 -107 106q-81 0 -113 -57t-49 -216l-6 -66h260l10 107q5 56 5 85v41zM386 -17q-199 0 -264 119q-46 86 -42 216q0 63 8 137l29 274q26 242 112 357q87 115 290 115t256 -135
q30 -79 30 -180q0 -100 -12 -199l-11 -97h-468l-17 -160q-3 -34 -5 -49t-3 -44t-1 -43v-36q0 -24 5 -35q3 -11 9 -27q18 -56 113 -56q114 0 133 198l8 73h207l-6 -48q-39 -380 -371 -380z" />
    <glyph glyph-name="uni0206" unicode="&#x206;" 
d="M624 2096q78 0 128 -23q86 -39 104 -145q12 -75 3 -131h-125q12 97 -17 138t-105 41t-114 -42q-37 -42 -48 -137h-126q26 222 166 277q56 22 134 22zM82 0l174 1658h638l-17 -166h-414l-59 -555h337l-16 -161h-337l-65 -615h420l-18 -161h-643z" />
    <glyph glyph-name="uni0207" unicode="&#x207;" horiz-adv-x="856" 
d="M552 1622q78 0 128 -23q86 -39 104 -145q12 -75 3 -131h-125q12 98 -17 138q-29 41 -105 41t-114 -42q-37 -42 -48 -137h-126q26 222 166 277q56 22 134 22zM602 938q-4 106 -107 106q-81 0 -113 -57t-49 -216l-6 -66h260l10 107q5 56 5 85v41zM386 -17q-199 0 -264 119
q-46 86 -42 216q0 63 8 137l29 274q26 242 112 357q87 115 290 115t256 -135q30 -79 30 -180q0 -100 -12 -199l-11 -97h-468l-17 -160q-3 -34 -5 -49t-3 -44t-1 -43v-36q0 -24 5 -35q3 -11 9 -27q18 -56 113 -56q114 0 133 198l8 73h207l-6 -48q-39 -380 -371 -380z" />
    <glyph glyph-name="uni0208" unicode="&#x208;" horiz-adv-x="502" 
d="M467 1797l-115 345h175l47 -345h-107zM209 1797l-190 345h215l81 -345h-106zM94 0l174 1658h219l-174 -1658h-219z" />
    <glyph glyph-name="uni0209" unicode="&#x209;" horiz-adv-x="454" 
d="M396 1323l-115 345h175l47 -345h-107zM138 1323l-190 345h215l81 -345h-106zM77 0l124 1184h212l-124 -1184h-212z" />
    <glyph glyph-name="uni020A" unicode="&#x20a;" horiz-adv-x="502" 
d="M424 2096q78 0 128 -23q86 -39 104 -145q12 -75 3 -131h-125q12 98 -17 138q-29 41 -105 41t-114 -42q-37 -42 -48 -137h-126q26 222 166 277q56 22 134 22zM94 0l174 1658h219l-174 -1658h-219z" />
    <glyph glyph-name="uni020B" unicode="&#x20b;" horiz-adv-x="454" 
d="M352 1622q78 0 130 -23q88 -39 104 -145q12 -75 2 -131h-125q12 98 -17 138q-30 41 -106 41t-113 -42t-48 -137h-126q26 222 166 277q55 22 133 22zM77 0l124 1184h212l-124 -1184h-212z" />
    <glyph glyph-name="uni020C" unicode="&#x20c;" horiz-adv-x="1101" 
d="M767 1797l-115 345h175l47 -345h-107zM509 1797l-190 345h215l81 -345h-106zM500 -18q-246 0 -336 145q-66 109 -66 273q0 56 8 117l67 634q27 257 145 391t362 133q243 1 334 -141q66 -102 66 -270q0 -53 -6 -113l-68 -635q-41 -397 -291 -497q-91 -37 -215 -37z
M508 158q148 0 200 82t68 228l76 729q6 49 6 79t-2 66t-22 76q-18 40 -62 61t-112 21q-138 0 -190 -79t-67 -224l-76 -729q-5 -52 -5 -93t4 -71q8 -68 55 -107t127 -39z" />
    <glyph glyph-name="uni020D" unicode="&#x20d;" horiz-adv-x="863" 
d="M597 1323l-115 345h175l47 -345h-107zM339 1323l-190 345h215l81 -345h-106zM508 1201q312 0 304 -333q0 -50 -7 -106l-36 -341q-35 -328 -223 -408q-70 -30 -166 -30q-96 1 -160 31q-142 67 -142 299q0 51 7 108l35 341q22 215 112 327t276 112zM397 140q27 0 49 8
t36 20q14 11 26 34q24 47 32 93q8 45 15 112l39 368q13 123 8 153q-12 69 -37 93q-25 23 -65 23q-39 0 -63 -10t-40 -30q-33 -44 -45 -99t-18 -130l-39 -368q-13 -124 -8 -153t12 -52q7 -22 19 -34t32 -20t47 -8z" />
    <glyph glyph-name="uni020E" unicode="&#x20e;" horiz-adv-x="1101" 
d="M724 2096q78 0 128 -23q86 -39 104 -145q12 -75 3 -131h-125q12 98 -17 138q-29 41 -105 41t-114 -42q-37 -42 -48 -137h-126q26 222 166 277q56 22 134 22zM500 -18q-246 0 -336 145q-66 109 -66 273q0 56 8 117l67 634q27 257 145 391t362 133q243 1 334 -141
q66 -102 66 -270q0 -53 -6 -113l-68 -635q-41 -397 -291 -497q-91 -37 -215 -37zM508 158q148 0 200 82t68 228l76 729q6 49 6 79t-2 66t-22 76q-18 40 -62 61t-112 21q-138 0 -190 -79t-67 -224l-76 -729q-5 -52 -5 -93t4 -71q8 -68 55 -107t127 -39z" />
    <glyph glyph-name="uni020F" unicode="&#x20f;" horiz-adv-x="863" 
d="M554 1622q78 0 128 -23q86 -39 104 -145q12 -75 3 -131h-125q12 98 -17 138q-29 41 -105 41t-114 -42q-37 -42 -48 -137h-126q26 222 166 277q56 22 134 22zM508 1201q312 0 304 -333q0 -50 -7 -106l-36 -341q-35 -328 -223 -408q-70 -30 -166 -30q-96 1 -160 31
q-142 67 -142 299q0 51 7 108l35 341q22 215 112 327t276 112zM397 140q27 0 49 8t36 20q14 11 26 34q24 47 32 93q8 45 15 112l39 368q13 123 8 153q-12 69 -37 93q-25 23 -65 23q-39 0 -63 -10t-40 -30q-33 -44 -45 -99t-18 -130l-39 -368q-13 -124 -8 -153t12 -52
q7 -22 19 -34t32 -20t47 -8z" />
    <glyph glyph-name="uni0210" unicode="&#x210;" horiz-adv-x="1061" 
d="M770 1797l-115 345h175l47 -345h-107zM512 1797l-190 345h215l81 -345h-106zM505 942q151 0 221 60t87 219q4 37 4 69q0 98 -37 145q-49 62 -203 62h-113l-58 -555h99zM595 1658q248 0 353 -104q85 -84 85 -252q0 -38 -4 -81q-35 -323 -249 -388l151 -833h-217l-138 782
h-187l-83 -782h-224l174 1658h339z" />
    <glyph glyph-name="uni0211" unicode="&#x211;" horiz-adv-x="653" 
d="M538 1323l-115 345h175l47 -345h-107zM280 1323l-190 345h215l81 -345h-106zM669 1199q5 0 35 -2l-25 -234q-51 22 -109 22t-105 -25q-46 -25 -93 -90l-91 -870h-212l124 1184h212l-17 -168q128 183 281 183z" />
    <glyph glyph-name="uni0212" unicode="&#x212;" horiz-adv-x="1061" 
d="M726 2096q78 0 130 -23q88 -39 104 -145q12 -75 2 -131h-125q12 98 -17 138q-30 41 -106 41t-113 -42t-48 -137h-126q26 222 166 277q55 22 133 22zM505 942q151 0 221 60t87 219q4 37 4 69q0 98 -37 145q-49 62 -203 62h-113l-58 -555h99zM595 1658q248 0 353 -104
q85 -84 85 -252q0 -38 -4 -81q-35 -323 -249 -388l151 -833h-217l-138 782h-187l-83 -782h-224l174 1658h339z" />
    <glyph glyph-name="uni0213" unicode="&#x213;" horiz-adv-x="653" 
d="M494 1622q78 0 130 -23q88 -39 104 -145q12 -75 2 -131h-125q12 97 -17 138q-30 41 -106 41t-113 -42t-48 -137h-126q26 222 166 277q55 22 133 22zM669 1199q5 0 35 -2l-25 -234q-51 22 -109 22t-105 -25q-46 -25 -93 -90l-91 -870h-212l124 1184h212l-17 -168
q128 183 281 183z" />
    <glyph glyph-name="uni0214" unicode="&#x214;" horiz-adv-x="1112" 
d="M771 1797l-115 345h175l47 -345h-107zM513 1797l-190 345h215l81 -345h-106zM114 399q0 70 11 149l117 1110h212l-117 -1120q-9 -62 -9 -98q0 -108 20 -172q34 -111 185 -110q151 0 211 156q33 86 46 224l118 1120h213l-117 -1110q-34 -340 -178 -466
q-116 -100 -334 -100q-118 0 -202 40t-124 116q-52 102 -52 261z" />
    <glyph glyph-name="uni0215" unicode="&#x215;" horiz-adv-x="895" 
d="M607 1323l-115 345h175l47 -345h-107zM349 1323l-190 345h215l81 -345h-106zM230 -17q-100 0 -132 77q-24 55 -23 99q0 44 4 68l100 957h212l-94 -896q-2 -20 -2 -50q1 -30 15 -59t76 -29t159 78l100 956h212l-124 -1184h-212l13 118q-155 -135 -304 -135z" />
    <glyph glyph-name="uni0216" unicode="&#x216;" horiz-adv-x="1112" 
d="M728 2096q78 0 128 -23q86 -39 104 -145q12 -75 3 -131h-125q12 98 -17 138q-29 41 -105 41t-114 -42q-37 -42 -48 -137h-126q26 222 166 277q56 22 134 22zM114 399q0 70 11 149l117 1110h212l-117 -1120q-9 -62 -9 -98q0 -108 20 -172q34 -111 185 -110q151 0 211 156
q33 86 46 224l118 1120h213l-117 -1110q-34 -340 -178 -466q-116 -100 -334 -100q-118 0 -202 40t-124 116q-52 102 -52 261z" />
    <glyph glyph-name="uni0217" unicode="&#x217;" horiz-adv-x="895" 
d="M564 1622q78 0 128 -23q86 -39 104 -145q12 -75 3 -131h-125q12 98 -17 138q-29 41 -105 41t-114 -42q-37 -42 -48 -137h-126q26 222 166 277q56 22 134 22zM230 -17q-100 0 -132 77q-24 55 -23 99q0 44 4 68l100 957h212l-94 -896q-2 -20 -2 -50q1 -30 15 -59t76 -29
t159 78l100 956h212l-124 -1184h-212l13 118q-155 -135 -304 -135z" />
    <glyph glyph-name="Scommaaccent" unicode="&#x218;" horiz-adv-x="966" 
d="M330 -595l-43 105q61 7 90 38t35 90h-110l24 222h217l-23 -206q-13 -121 -53 -182t-137 -67zM775 1250q0 252 -174 251q-209 0 -228 -186q-2 -19 -2 -52q0 -84 88 -175l255 -249q193 -191 193 -409q-1 -218 -143 -342q-120 -106 -312 -106t-284 122q-90 122 -90 315
q0 20 1 42l205 54q-11 -255 94 -327q44 -30 122 -30t137 56t59 178t-96 230q-19 22 -54 58l-253 250q-126 128 -126 274q-1 249 137 369q114 100 295 102h7q192 -1 278 -102t85 -308v-19l-195 -52q1 24 1 56z" />
    <glyph glyph-name="scommaaccent" unicode="&#x219;" horiz-adv-x="762" 
d="M215 -594l-43 105q61 7 90 38t35 90h-110l24 222h217l-23 -206q-13 -121 -53 -182t-137 -67zM579 836q-4 208 -120 208q-61 0 -101 -38t-40 -101q0 -62 51 -111l186 -188q139 -137 139 -280q0 -175 -105 -259t-252 -84t-223 89t-77 230v15l182 53q2 -230 135 -230
q66 0 110 41t44 118t-82 153l-180 169q-120 113 -120 240q0 170 110 264q88 77 224 77t202 -86t66 -215v-12z" />
    <glyph glyph-name="uni021A" unicode="&#x21a;" horiz-adv-x="817" 
d="M244 -577l-43 105q61 7 90 38t35 90h-110l24 222h217l-23 -206q-13 -121 -53 -182t-137 -67zM254 0l156 1492h-305l17 166h825l-17 -166h-296l-157 -1492h-223z" />
    <glyph glyph-name="uni021B" unicode="&#x21b;" horiz-adv-x="625" 
d="M143 -593l-43 105q61 7 90 38t35 90h-110l24 222h217l-23 -206q-13 -121 -53 -182t-137 -67zM372 -16q-134 0 -179 63t-46 163q0 26 3 54l82 778h-126l15 142h125l37 347h212l-37 -347h191l-14 -142h-191l-81 -763q-2 -20 -2 -51q1 -31 17 -56t72 -25t90 6l-17 -158
q-86 -11 -151 -11z" />
    <glyph glyph-name="uni0237" unicode="&#x237;" horiz-adv-x="468" 
d="M-29 -165q50 0 82.5 38t39.5 107l126 1204h212l-129 -1226q-14 -137 -97 -210.5t-217 -73.5q-74 0 -107 13l16 154q24 -6 74 -6z" />
    <glyph glyph-name="uni02BC" unicode="&#x2bc;" horiz-adv-x="733" 
d="M247 1152l53 506h191l-130 -506h-114z" />
    <glyph glyph-name="circumflex" unicode="&#x2c6;" horiz-adv-x="699" 
d="M150 1274l216 384h217l138 -384h-159l-98 278l-156 -278h-158z" />
    <glyph glyph-name="caron" unicode="&#x2c7;" horiz-adv-x="682" 
d="M327 1307l-139 351h161l93 -239l144 239h162l-214 -351h-207z" />
    <glyph glyph-name="breve" unicode="&#x2d8;" horiz-adv-x="714" 
d="M452 1359q-78 0 -158.5 35t-80.5 205q0 28 3 59h126q-3 -26 -3 -67q1 -41 25 -77t100 -35.5t113 42t48 137.5h126q-23 -221 -122 -260t-177 -39z" />
    <glyph glyph-name="dotaccent" unicode="&#x2d9;" horiz-adv-x="463" 
d="M-94 122l25 241h215l-26 -241h-214z" />
    <glyph glyph-name="ring" unicode="&#x2da;" horiz-adv-x="591" 
d="M376 1228q-100 0 -151 56t-51 137q0 124 74 190.5t175 66.5t153 -56t52 -138q0 -121 -76 -188.5t-176 -67.5zM518 1459q0 112 -80 112t-117.5 -33.5t-37.5 -119.5q-1 -26 25 -54t80 -28t92 34t38 89z" />
    <glyph glyph-name="ogonek" unicode="&#x2db;" horiz-adv-x="487" 
d="M-99 -321q0 117 84 209t170 119h108q-4 -5 -37 -39t-45 -48q-182 -212 -94 -256q39 -20 84.5 -20t72 1t38.5 1l-49 -108q-219 0 -283 44q-49 39 -49 97z" />
    <glyph glyph-name="tilde" unicode="&#x2dc;" horiz-adv-x="860" 
d="M664 1436q-40 0 -89 25t-92 50t-69 27q-53 3 -61 -84h-122q9 98 55 158t135 59h9q52 -1 140 -49.5t112 -49.5q46 -2 55 86h120q-23 -226 -188 -222h-5z" />
    <glyph glyph-name="hungarumlaut" unicode="&#x2dd;" horiz-adv-x="581" 
d="M535 1314l154 348h216l-262 -348h-108zM281 1314l116 348h175l-184 -348h-107z" />
    <glyph glyph-name="gravecomb" unicode="&#x300;" horiz-adv-x="0" 
d="M208 1254l-181 404h213l75 -404h-107z" />
    <glyph glyph-name="acutecomb" unicode="&#x301;" horiz-adv-x="51" 
d="M43 1254l164 404h212l-268 -404h-108z" />
    <glyph glyph-name="uni0302" unicode="&#x302;" horiz-adv-x="699" 
d="M152 1300l214 358h217l140 -358h-159l-100 252l-153 -252h-159z" />
    <glyph glyph-name="tildecomb" unicode="&#x303;" horiz-adv-x="860" 
d="M664 1436q-40 0 -89 25t-92 50t-69 27q-53 3 -61 -84h-122q9 98 55 158t135 59h9q52 -1 140 -49.5t112 -49.5q46 -2 55 86h120q-23 -226 -188 -222h-5z" />
    <glyph glyph-name="uni0304" unicode="&#x304;" horiz-adv-x="623" 
d="M244 1529l13 129h392l-14 -129h-391z" />
    <glyph glyph-name="uni0306" unicode="&#x306;" horiz-adv-x="714" 
d="M322 1622q0 -141 142 -143q79 0 123 42.5t55 136.5h127q-33 -299 -317 -299q-256 0 -256 247q0 25 3 52h125q-2 -19 -2 -36z" />
    <glyph glyph-name="uni0307" unicode="&#x307;" horiz-adv-x="0" 
d="M23 1417l25 241h215l-26 -241h-214z" />
    <glyph glyph-name="uni0308" unicode="&#x308;" horiz-adv-x="712" 
d="M526 1437l24 221h214l-23 -221h-215zM177 1437l23 221h213l-23 -221h-213z" />
    <glyph glyph-name="uni030A" unicode="&#x30a;" horiz-adv-x="591" 
d="M376 1228q-100 0 -151 56t-51 137q0 124 74 190.5t175 66.5t153 -56t52 -138q0 -121 -76 -188.5t-176 -67.5zM518 1459q0 112 -80 112t-117.5 -33.5t-37.5 -119.5q-1 -26 25 -54t80 -28t92 34t38 89z" />
    <glyph glyph-name="uni030C" unicode="&#x30c;" horiz-adv-x="0" 
d="M64 1307l-140 351h162l93 -239l144 239h162l-214 -351h-207z" />
    <glyph glyph-name="uni030F" unicode="&#x30f;" horiz-adv-x="583" 
d="M589 1313l-115 345h175l47 -345h-107zM331 1313l-190 345h215l81 -345h-106z" />
    <glyph glyph-name="uni0311" unicode="&#x311;" horiz-adv-x="714" 
d="M484 1658q78 0 147 -31t85 -137q12 -75 3 -131h-125q12 97 -17 138t-105.5 41t-113.5 -41.5t-48 -137.5h-126q26 222 124 260.5t176 38.5z" />
    <glyph glyph-name="uni0326" unicode="&#x326;" horiz-adv-x="331" 
d="M5 -530l-43 105q61 7 90 38t35 90h-110l24 222h217l-23 -206q-13 -121 -53 -182t-137 -67z" />
    <glyph glyph-name="Pi" unicode="&#x3a0;" horiz-adv-x="1142" 
d="M82 0l174 1658h881l-174 -1658h-214l158 1498h-454l-158 -1498h-213z" />
    <glyph glyph-name="pi" unicode="&#x3c0;" horiz-adv-x="1067" 
d="M812 261q0 -49 16 -74q25 -40 117 -40l-31 -164q-199 0 -260 67t-59 173q0 30 3 65l77 736h-236l-107 -1024h-212l107 1024h-133l16 160h955l-17 -160h-161l-70 -667q-5 -47 -5 -96z" />
    <glyph glyph-name="uni0400" unicode="&#x400;" 
d="M538 1797l-181 404h213l75 -404h-107zM82 0l174 1658h638l-17 -166h-414l-59 -555h337l-16 -161h-337l-65 -615h420l-18 -161h-643z" />
    <glyph glyph-name="afii10023" unicode="&#x401;" 
d="M659 1797l24 221h214l-23 -221h-215zM310 1797l23 221h213l-23 -221h-213zM82 0l174 1658h638l-17 -166h-414l-59 -555h337l-16 -161h-337l-65 -615h420l-18 -161h-643z" />
    <glyph glyph-name="afii10051" unicode="&#x402;" horiz-adv-x="1112" 
d="M1044 683q0 -23 -3 -47l-21 -203q-23 -224 -130.5 -328.5t-295.5 -104.5h-37l17 161q126 0 174 77t60 195l20 197q1 14 1 27q1 63 -34 112t-115 49t-171 -45l-81 -773h-219l157 1492h-241l17 166h729l-17 -166h-269l-62 -593q84 70 214 70t223 -77q84 -73 84 -209z" />
    <glyph glyph-name="afii10052" unicode="&#x403;" horiz-adv-x="788" 
d="M529 1797l164 404h212l-268 -404h-108zM82 0l174 1658h626l-17 -166h-402l-157 -1492h-224z" />
    <glyph glyph-name="afii10053" unicode="&#x404;" horiz-adv-x="1029" 
d="M500 -18q-212 0 -303.5 103t-95.5 269v33q0 67 6 142l63 594q28 261 137 406.5t350 145.5q242 0 313.5 -111t71.5 -262q0 -48 -6 -104l-7 -61h-212l5 46q13 123 10 154t-7.5 55t-20.5 50.5t-53 42t-96 15.5t-120 -24.5t-91 -104t-46 -217.5l-22 -214h411l-17 -157h-410
l-31 -290q-7 -63 -7 -137t28 -124q40 -74 149 -74t156.5 45t65.5 115.5t29 172.5l6 68h212l-7 -68q-38 -379 -194 -444t-267 -65z" />
    <glyph glyph-name="afii10054" unicode="&#x405;" horiz-adv-x="966" 
d="M775 1250q0 252 -174 251q-209 0 -228 -186q-2 -19 -2 -52q0 -84 88 -175l255 -249q193 -191 193 -409q-1 -218 -143 -342q-120 -106 -312 -106t-284 122q-90 122 -90 315q0 20 1 42l205 54q-11 -255 94 -327q44 -30 122 -30t137 56t59 178t-96 230q-19 22 -54 58
l-253 250q-126 128 -126 274q-1 249 137 369q114 100 295 102h7q192 -1 278 -102t85 -308v-19l-195 -52q1 24 1 56z" />
    <glyph glyph-name="afii10055" unicode="&#x406;" horiz-adv-x="502" 
d="M94 0l174 1658h219l-174 -1658h-219z" />
    <glyph glyph-name="afii10056" unicode="&#x407;" horiz-adv-x="502" 
d="M458 1797l24 221h214l-23 -221h-215zM109 1797l23 221h213l-23 -221h-213zM94 0l174 1658h219l-174 -1658h-219z" />
    <glyph glyph-name="afii10057" unicode="&#x408;" horiz-adv-x="613" 
d="M68 -43h-106l16 161q79 0 125 9.5t77 39.5t44.5 77t22.5 130l134 1284h224l-134 -1289q-23 -215 -107.5 -313.5t-295.5 -98.5z" />
    <glyph glyph-name="afii10058" unicode="&#x409;" horiz-adv-x="1709" 
d="M1096 162q83 0 137.5 13t116.5 63t84 249q4 40 4 74q0 116 -46 172q-60 73 -233 73h-48l-67 -644h52zM21 166q73 0 125 43q104 85 179 521l152 928h724l-73 -691h41q138 0 310 -42.5t172 -322.5q0 -342 -152.5 -472t-419.5 -130h-276l157 1492h-304l-126 -762
q-62 -386 -170 -561q-108 -174 -315 -172h-20l-45 2l18 168q12 -1 23 -1z" />
    <glyph glyph-name="afii10059" unicode="&#x40a;" horiz-adv-x="1597" 
d="M995 162q83 0 137.5 13t117 63.5t82.5 248.5q4 40 4 75q0 115 -46 171q-60 73 -232 73h-50l-67 -644h54zM977 0h-277l85 804h-394l-85 -804h-224l174 1660h224l-72 -694h394l72 694h224l-72 -693h42q271 0 385 -99q96 -87 96 -265q0 -344 -152.5 -473.5t-419.5 -129.5z
" />
    <glyph glyph-name="afii10060" unicode="&#x40b;" horiz-adv-x="1016" 
d="M946 793q0 -12 -1 -24l-81 -769h-212l76 720q9 112 -78 112q-92 -1 -169 -59l-81 -773h-219l157 1492h-247l17 166h738l-17 -166h-272l-62 -593q38 27 104 46.5t125 19.5q106 1 164 -49t58 -123z" />
    <glyph glyph-name="afii10061" unicode="&#x40c;" horiz-adv-x="1035" 
d="M656 1797l164 404h212l-268 -404h-108zM82 0l174 1658h224l-77 -739h90l377 739h225l-413 -789l281 -869h-225l-256 809h-91l-85 -809h-224z" />
    <glyph glyph-name="uni040D" unicode="&#x40d;" horiz-adv-x="1113" 
d="M642 1797l-181 404h213l75 -404h-107zM82 0l174 1658h198l-123 -1165l614 1165h162l-174 -1658h-197l124 1183l-611 -1183h-167z" />
    <glyph glyph-name="afii10062" unicode="&#x40e;" horiz-adv-x="925" 
d="M480 2060q0 -141 142 -143q79 1 123 43t55 136h127q-33 -299 -317 -299q-256 0 -256 247q0 25 3 52h125q-2 -19 -2 -36zM132 -80h40q97 4 132 47q36 43 38 127v93l-175 1471h211l69 -710l31 -526l131 523l202 713h215l-454 -1475q-10 -32 -36 -123t-47 -141
q-21 -51 -75 -103t-135 -62q-82 -10 -244 -2l19 173q52 -5 78 -5z" />
    <glyph glyph-name="afii10145" unicode="&#x40f;" horiz-adv-x="1115" 
d="M399 -300l17 300h-334l174 1658h224l-157 -1498h405l157 1498h224l-174 -1658h-322l-46 -300h-168z" />
    <glyph glyph-name="afii10017" unicode="&#x410;" horiz-adv-x="1004" 
d="M373 581h285l-63 763zM-9 0l528 1658h217l180 -1658h-214l-32 421h-343l-123 -421h-213z" />
    <glyph glyph-name="afii10018" unicode="&#x411;" horiz-adv-x="1009" 
d="M395 162q83 0 137.5 13t117 63.5t82.5 248.5q4 40 4 75q0 115 -46 171q-60 73 -232 73h-67l-68 -644h72zM468 967q271 0 385 -99q96 -87 96 -265q0 -344 -152.5 -473.5t-419.5 -129.5h-295l174 1658h707l-16 -162h-484l-55 -529h60z" />
    <glyph glyph-name="afii10019" unicode="&#x412;" horiz-adv-x="1068" 
d="M553 963q142 0 204 65t78 215q3 31 3 59t-6 63q-14 79 -87 103t-219 24h-63l-55 -529h145zM487 161q150 0 212.5 72t80.5 242q4 35 4 66q0 111 -44 173q-56 80 -205 79h-145l-66 -632h163zM633 1658q225 0 322 -102q79 -83 79 -239q0 -35 -4 -74q-33 -316 -271 -350
q141 -35 197 -139q42 -78 42 -198q0 -38 -4 -81q-24 -224 -141 -349.5t-332 -125.5h-439l174 1658h377z" />
    <glyph glyph-name="afii10020" unicode="&#x413;" horiz-adv-x="788" 
d="M82 0l174 1658h626l-17 -166h-402l-157 -1492h-224z" />
    <glyph glyph-name="afii10021" unicode="&#x414;" horiz-adv-x="1276" 
d="M275 161h543l140 1331h-274l-57 -382q-54 -372 -107 -537.5t-90.5 -231.5t-76 -106.5t-78.5 -73.5zM-59 -300l49 461h75q45 34 76.5 67.5t112.5 173.5t178 761l78 495h689l-157 -1497h157l-49 -461h-173l13 300h-825l-50 -300h-174z" />
    <glyph glyph-name="afii10022" unicode="&#x415;" 
d="M82 0l174 1658h638l-17 -166h-414l-59 -555h337l-16 -161h-337l-65 -615h420l-18 -161h-643z" />
    <glyph glyph-name="afii10024" unicode="&#x416;" horiz-adv-x="1377" 
d="M-39 0l478 849l-265 809h217l231 -798h13l84 798h190l-84 -798h14l398 798h217l-435 -809l300 -849h-220l-261 831h-16l-87 -831h-190l87 831h-15l-436 -831h-220z" />
    <glyph glyph-name="afii10025" unicode="&#x417;" horiz-adv-x="981" 
d="M294 341q0 -70 32 -127t138 -57q107 0 156.5 76.5t66.5 231.5q3 31 3 59q0 102 -42 166q-61 93 -268 93l18 170q205 0 289.5 85.5t84.5 274.5q0 188 -179 188q-215 0 -249 -302h-212l7 53q20 199 140.5 311t322.5 112t302 -115q81 -94 81 -266t-83.5 -279.5
t-196.5 -139.5q109 -35 161 -139q39 -77 39 -188q0 -39 -5 -82q-51 -484 -460 -484q-198 0 -288 111q-73 90 -73 239q0 35 4 73l6 54h211q-6 -48 -6 -118z" />
    <glyph glyph-name="afii10026" unicode="&#x418;" horiz-adv-x="1113" 
d="M82 0l174 1658h198l-123 -1165l614 1165h162l-174 -1658h-197l124 1183l-611 -1183h-167z" />
    <glyph glyph-name="afii10027" unicode="&#x419;" horiz-adv-x="1113" 
d="M565 2060q0 -141 142 -143q79 1 123 43t55 136h127q-33 -299 -317 -299q-256 0 -256 247q0 25 3 52h125q-2 -19 -2 -36zM82 0l174 1658h198l-123 -1165l614 1165h162l-174 -1658h-197l124 1183l-611 -1183h-167z" />
    <glyph glyph-name="afii10028" unicode="&#x41a;" horiz-adv-x="1035" 
d="M82 0l174 1658h224l-77 -739h90l377 739h225l-413 -789l281 -869h-225l-256 809h-91l-85 -809h-224z" />
    <glyph glyph-name="afii10029" unicode="&#x41b;" horiz-adv-x="1186" 
d="M307.5 114q-69.5 -117 -291.5 -117q-32 0 -58 2l19 168q105 -3 151 41.5t69 106.5t49.5 153.5t66.5 324.5l145 865h722l-174 -1658h-224l157 1492h-304l-113 -699q-60 -356 -102.5 -459t-112 -220z" />
    <glyph glyph-name="afii10030" unicode="&#x41c;" horiz-adv-x="1348" 
d="M77 0l206 1658h201l179 -1290l452 1290h201l-142 -1658h-177l105 1132l-413 -1132h-127l-174 1132l-133 -1132h-178z" />
    <glyph glyph-name="afii10031" unicode="&#x41d;" horiz-adv-x="1145" 
d="M82 0l174 1658h224l-75 -718h436l75 718h224l-174 -1658h-224l82 780h-436l-82 -780h-224z" />
    <glyph glyph-name="afii10032" unicode="&#x41e;" horiz-adv-x="1101" 
d="M500 -18q-246 0 -336 145q-66 109 -66 273q0 56 8 117l67 634q27 257 145 391t362 133q243 1 334 -141q66 -102 66 -270q0 -53 -6 -113l-68 -635q-41 -397 -291 -497q-91 -37 -215 -37zM508 158q148 0 200 82t68 228l76 729q6 49 6 79t-2 66t-22 76q-18 40 -62 61
t-112 21q-138 0 -190 -79t-67 -224l-76 -729q-5 -52 -5 -93t4 -71q8 -68 55 -107t127 -39z" />
    <glyph glyph-name="afii10033" unicode="&#x41f;" horiz-adv-x="1168" 
d="M82 0l174 1658h906l-174 -1658h-224l158 1498h-458l-158 -1498h-224z" />
    <glyph glyph-name="afii10034" unicode="&#x420;" horiz-adv-x="980" 
d="M519 934q152 0 215.5 56t79.5 211q8 59 8 86v36q-2 51 -19.5 112.5t-220.5 61.5h-118l-59 -563h114zM667 1658q215 0 299 -116q66 -92 67 -249q0 -265 -129 -392.5t-329 -127.5h-187l-82 -773h-224l174 1658h411z" />
    <glyph glyph-name="afii10035" unicode="&#x421;" horiz-adv-x="1050" 
d="M500 -18q-212 0 -304 103q-91 103 -95 269v33q0 67 6 142l63 594q28 261 137 406q109 146 350 146q242 1 324 -127q61 -94 61 -246q0 -48 -6 -104l-14 -129h-212l12 114q13 123 10 154q-4 31 -8 55t-12 38q-24 39 -61 55q-37 15 -96 15t-101 -17q-80 -32 -110 -111
q-30 -80 -46 -218l-69 -661q-7 -63 -7 -137t28 -124q40 -74 149 -74t156 45q48 45 66 115q18 71 29 173l12 121h212l-13 -121q-37 -379 -263 -473q-86 -36 -198 -36z" />
    <glyph glyph-name="afii10036" unicode="&#x422;" horiz-adv-x="817" 
d="M254 0l156 1492h-305l17 166h825l-17 -166h-296l-157 -1492h-223z" />
    <glyph glyph-name="afii10037" unicode="&#x423;" horiz-adv-x="925" 
d="M132 -80h40q97 4 132.5 46.5t37.5 127.5v93l-175 1471h211l69 -710l31 -526l131 523l202 713h215l-454 -1475q-10 -32 -36 -123t-47 -141.5t-75 -102.5t-135 -62q-82 -10 -244 -2l19 173q52 -5 78 -5z" />
    <glyph glyph-name="afii10038" unicode="&#x424;" horiz-adv-x="1347" 
d="M854 334q22 0 49 3q28 3 66.5 26.5t58.5 86.5t33 185l44 418q9 73 9 117q0 131 -51 161q-51 31 -144 25l-44 -1l-107 -1018l45 -2q19 -1 41 -1zM314 520q0 -130 45 -158t89 -28t59 1l37 2l107 1018l-35 1q-74 4 -117 -8t-70.5 -52t-40 -93.5t-22.5 -149.5l-43 -418
q-9 -71 -9 -115zM890 1490q15 3 115 3q166 1 238 -85t72 -250q0 -49 -6 -105l-44 -418q-25 -243 -126 -341t-256 -96q-103 0 -128 5l-30 -279h-224l30 279q-30 -5 -120 -5q-157 0 -227 84t-71 248q0 49 6 105l43 418q26 241 129 340t270 99q18 0 36 -1l69 -1l33 318h224z
" />
    <glyph glyph-name="afii10039" unicode="&#x425;" horiz-adv-x="984" 
d="M-22 0l438 868l-258 790h207l195 -593l297 593h209l-435 -809l277 -849h-209l-207 632l-305 -632h-209z" />
    <glyph glyph-name="afii10040" unicode="&#x426;" horiz-adv-x="1264" 
d="M959 -300l13 300h-890l174 1658h224l-157 -1498h478l157 1498h224l-157 -1498h156l-49 -460h-173z" />
    <glyph glyph-name="afii10041" unicode="&#x427;" horiz-adv-x="1097" 
d="M369 1070q-2 -188 198 -188q109 0 222 25l79 751h224l-174 -1658h-224l80 765q-139 -30 -248 -30q-360 0 -360 316q0 32 4 67l56 540h203l-57 -539q-3 -26 -3 -49z" />
    <glyph glyph-name="afii10042" unicode="&#x428;" horiz-adv-x="1530" 
d="M82 0l174 1658h224l-157 -1496h306l157 1496h224l-157 -1496h291l157 1496h224l-174 -1658h-1269z" />
    <glyph glyph-name="afii10043" unicode="&#x429;" horiz-adv-x="1608" 
d="M1302 -300l13 300h-1233l174 1658h224l-157 -1498h306l157 1498h223l-156 -1498h292l157 1498h224l-157 -1498h155l-48 -460h-174z" />
    <glyph glyph-name="afii10044" unicode="&#x42a;" horiz-adv-x="1159" 
d="M557 162q83 0 137.5 13t116.5 63t84 249q4 40 4 74q-1 116 -47 172q-60 73 -232 73h-79l-67 -644h83zM630 967q138 0 283 -35.5t187 -212.5q21 -90 6 -234q-27 -253 -163 -369t-403 -116h-307l156 1488h-272l18 170h496l-73 -691h72z" />
    <glyph glyph-name="afii10045" unicode="&#x42b;" horiz-adv-x="1482" 
d="M1079 0l174 1658h224l-174 -1658h-224zM407 162q83 0 137.5 13t117 63.5t82.5 248.5q4 40 4 75q0 115 -46 171q-60 73 -232 73h-79l-68 -644h84zM480 967q271 0 385 -99q96 -87 96 -265q0 -344 -152.5 -473.5t-419.5 -129.5h-307l174 1658h224l-72 -691h72z" />
    <glyph glyph-name="afii10046" unicode="&#x42c;" horiz-adv-x="1008" 
d="M407 162q83 0 137.5 13t117 63.5t82.5 248.5q4 40 4 75q0 115 -46 171q-60 73 -232 73h-79l-67 -644h83zM480 967q271 0 385 -99q96 -87 96 -265q0 -344 -152.5 -473.5t-419.5 -129.5h-307l174 1658h224l-72 -691h72z" />
    <glyph glyph-name="afii10047" unicode="&#x42d;" horiz-adv-x="1060" 
d="M98 374q0 49 6 106l8 82h213l-8 -67q-13 -121 -9.5 -153t8 -56t20.5 -50.5t53 -42t96 -15.5t120.5 24.5t92 107.5t43.5 214l29 268h-298l16 147h297l25 246q21 187 -19 261q-41 74 -151 74t-157.5 -45.5t-64.5 -115t-28 -172.5l-7 -71h-212l7 71q41 381 196 445t266 64
q212 0 303.5 -103t95.5 -269v-33q0 -67 -6 -142l-63 -593q-35 -330 -167.5 -441t-338.5 -111q-108 0 -237 53t-129 317z" />
    <glyph glyph-name="afii10048" unicode="&#x42e;" horiz-adv-x="1466" 
d="M910 158q60 0 117.5 21t91.5 96t46 193l76 729q5 49 5 89t-4 72q-17 142 -186 142q-127 0 -180.5 -74.5t-69.5 -228.5l-76 -729q-6 -48 -6 -79t2 -69t20.5 -78t61 -62t102.5 -22zM838 -18q-175 0 -243.5 125.5t-68.5 287.5q0 60 8 127l25 240h-187l-80 -762h-210
l174 1658h210l-76 -727h187l22 214q44 399 201.5 464.5t273.5 65.5t244 -61t128 -346q0 -58 -8 -123l-66 -624q-41 -399 -200 -469t-334 -70z" />
    <glyph glyph-name="afii10049" unicode="&#x42f;" horiz-adv-x="1115" 
d="M705 852h96l68 645h-102q-159 0 -253.5 -78.5t-94.5 -293.5q0 -123 49 -189q64 -84 237 -84zM206 1115q0 41 5 87q48 456 561 456h337l-174 -1658h-224l73 691h-140l-53 1l-362 -692h-250l425 746q-109 50 -160 166q-38 86 -38 203z" />
    <glyph glyph-name="afii10065" unicode="&#x430;" horiz-adv-x="866" 
d="M281 271q-1 -33 21 -69t70 -35q48 -1 92 33q45 34 69 69l36 338q-74 -32 -139 -78q-66 -46 -86 -70q-20 -25 -39 -61q-18 -36 -21 -65t-3 -62zM596 916q0 46 -11 76q-19 50 -92 49q-129 0 -146 -171l-7 -58l-209 8q1 4 3 20q25 195 125 278q100 84 267 84t232 -94
q50 -72 50 -200q0 -39 -5 -84l-57 -545q-11 -103 -11 -175t1 -104h-193q-10 101 -10 174q-34 -81 -101 -136q-67 -54 -164 -54q-96 0 -152 76t-56 173t68 223q20 36 66 76q47 38 73 58t105 57t143 63q65 26 67 27l9 85q5 48 5 94z" />
    <glyph glyph-name="afii10066" unicode="&#x431;" horiz-adv-x="897" 
d="M628 815q0 128 -93 126q-73 0 -171 -63l-52 -493q-15 -136 12 -190q26 -55 100 -55t111 53t50 179l38 352q5 44 5 91zM388 -17q-155 0 -231 104q-61 82 -61 224q0 38 5 81l65 621q27 248 55 336.5t49 129t54 68.5t78.5 48.5t171.5 46t255 74.5l34 -173
q-134 -56 -254.5 -72.5t-158 -72t-57.5 -242.5l-15 -139q113 70 226 70q152 0 191.5 -108.5t39.5 -185.5q0 -76 -7 -133l-23 -224q-31 -306 -153.5 -379.5t-226.5 -73.5h-37z" />
    <glyph glyph-name="afii10067" unicode="&#x432;" horiz-adv-x="845" 
d="M614 902q0 126 -147 126h-89l-35 -323h112q139 0 158 170q1 14 1 27zM371 160q83 0 132.5 41.5t60.5 150.5q1 34 3 61t-4 47.5t-11 35.5t-29.5 35.5t-101.5 20.5h-93l-42 -392h85zM513 1184q242 0 282 -176q8 -33 8 -61q0 -246 -182 -301q155 -33 155 -240t-94.5 -306.5
t-280.5 -99.5h-338l124 1184h326z" />
    <glyph glyph-name="afii10068" unicode="&#x433;" horiz-adv-x="593" 
d="M63 0l124 1184h472l-16 -152h-260l-109 -1032h-211z" />
    <glyph glyph-name="afii10069" unicode="&#x434;" horiz-adv-x="1011" 
d="M182 151h408l93 880h-163l-11 -58q-48 -412 -115 -548.5t-110.5 -186.5t-101.5 -87zM-75 -300l47 442q70 49 123 110.5t130 212.5t122 551l23 168h532l-107 -1033h140l-47 -451h-155l13 300h-615l-50 -300h-156z" />
    <glyph glyph-name="afii10070" unicode="&#x435;" horiz-adv-x="856" 
d="M602 938q-4 106 -107 106q-81 0 -113 -57t-49 -216l-6 -66h260l10 107q5 56 5 85v41zM386 -17q-199 0 -264 119q-46 86 -42 216q0 63 8 137l29 274q26 242 112 357q87 115 290 115t256 -135q30 -79 30 -180q0 -100 -12 -199l-11 -97h-468l-17 -160q-3 -34 -5 -49t-3 -44
t-1 -43v-36q0 -24 5 -35q3 -11 9 -27q18 -56 113 -56q114 0 133 198l8 73h207l-6 -48q-39 -380 -371 -380z" />
    <glyph glyph-name="afii10072" unicode="&#x436;" horiz-adv-x="1177" 
d="M-41 0l365 604l-223 580h203l196 -570h17l60 570h175l-60 -570h16l315 570h202l-343 -580l238 -604h-197l-217 581h-17l-61 -581h-175l61 581h-18l-339 -581h-198z" />
    <glyph glyph-name="afii10073" unicode="&#x437;" horiz-adv-x="765" 
d="M504 386q0 86 -41 118t-182 32l16 150q138 0 199.5 47.5t61.5 176.5q0 56 -28 95t-92 39t-104 -43t-51 -154h-182q20 188 113 271t252 83t228 -99q51 -72 51 -170t-46.5 -202t-184.5 -115q58 -14 75 -23.5t31 -18.5t22.5 -21t18.5 -27.5t19 -51.5t9 -166.5t-97.5 -228.5
t-256.5 -98t-225 92q-51 71 -51 203q0 40 5 85h181q-4 -37 -4 -68q-2 -161 115 -161q89 0 118.5 85t29.5 170z" />
    <glyph glyph-name="afii10074" unicode="&#x438;" horiz-adv-x="929" 
d="M63 0l124 1184h178l-84 -808l445 808h167l-124 -1184h-176l86 814l-445 -814h-171z" />
    <glyph glyph-name="afii10075" unicode="&#x439;" horiz-adv-x="929" 
d="M423 1586q0 -141 142 -143q79 1 123 43t55 136h127q-33 -299 -317 -299q-256 0 -256 247q0 25 3 52h125q-2 -19 -2 -36zM63 0l124 1184h178l-84 -808l445 808h167l-124 -1184h-176l86 814l-445 -814h-171z" />
    <glyph glyph-name="afii10076" unicode="&#x43a;" horiz-adv-x="843" 
d="M63 0l124 1184h211l-51 -501h65l278 501h218l-312 -573l192 -611h-222l-169 554h-64l-59 -554h-211z" />
    <glyph glyph-name="afii10077" unicode="&#x43b;" horiz-adv-x="987" 
d="M8 -10h-24l17 160q65 0 93 20t43 37t36.5 68.5t40.5 143.5t45 249l82 516h610l-124 -1184h-212l108 1022h-214l-56 -354q-63 -412 -136.5 -526.5t-154 -133t-154.5 -18.5z" />
    <glyph glyph-name="afii10078" unicode="&#x43c;" horiz-adv-x="1076" 
d="M56 0l136 1184h156l188 -736l342 736h157l-112 -1184h-178l75 719l-286 -602h-65l-159 599l-76 -716h-178z" />
    <glyph glyph-name="afii10079" unicode="&#x43d;" horiz-adv-x="935" 
d="M63 0l124 1184h211l-51 -499h289l52 499h212l-124 -1184h-212l56 529h-290l-56 -529h-211z" />
    <glyph glyph-name="afii10080" unicode="&#x43e;" horiz-adv-x="863" 
d="M508 1201q312 0 304 -333q0 -50 -7 -106l-36 -341q-35 -328 -223 -408q-70 -30 -166 -30q-96 1 -160 31q-142 67 -142 299q0 51 7 108l35 341q22 215 112 327t276 112zM397 140q27 0 49 8t36 20q14 11 26 34q24 47 32 93q8 45 15 112l39 368q13 123 8 153q-12 69 -37 93
q-25 23 -65 23q-39 0 -63 -10t-40 -30q-33 -44 -45 -99t-18 -130l-39 -368q-13 -124 -8 -153t12 -52q7 -22 19 -34t32 -20t47 -8z" />
    <glyph glyph-name="afii10081" unicode="&#x43f;" horiz-adv-x="904" 
d="M63 0l124 1184h681l-124 -1184h-211l107 1022h-258l-108 -1022h-211z" />
    <glyph glyph-name="afii10082" unicode="&#x440;" horiz-adv-x="908" 
d="M644 895q0 139 -108 139q-73 0 -159 -64l-81 -764q69 -56 155 -56q113 0 143 215q6 40 13 104l30 283q7 80 7 143zM626 1201q229 0 229 -344q-1 -17 -2 -42t-4 -63l-30 -282q-51 -487 -344 -487q-106 0 -191 106l-50 -479h-212l165 1574h212l-9 -95q108 112 236 112z" />
    <glyph glyph-name="afii10083" unicode="&#x441;" horiz-adv-x="836" 
d="M78 286q0 94 10 167l29 275q25 235 106 354q80 119 276 119t257 -96q44 -69 41 -182q0 -45 -6 -96l-8 -69h-192l8 70q5 46 5 92t-14 76q-22 48 -99 48t-109 -57t-48 -216l-39 -370q-7 -63 -7 -119t14 -88q22 -54 107 -54t115 84q16 44 25 130l10 92h192l-8 -79
q-20 -187 -98 -285q-78 -99 -275 -99t-256 129q-36 80 -36 174z" />
    <glyph glyph-name="afii10084" unicode="&#x442;" horiz-adv-x="706" 
d="M197 0l108 1025h-225l17 159h664l-17 -159h-227l-108 -1025h-212z" />
    <glyph glyph-name="afii10085" unicode="&#x443;" horiz-adv-x="809" 
d="M246 34q0 29 -4 63l-133 1087h198l54 -616l22 -377l91 375l164 618h207l-383 -1191q-57 -182 -163.5 -237t-280.5 -57l19 175q133 2 171 42t38 118z" />
    <glyph glyph-name="afii10086" unicode="&#x444;" horiz-adv-x="1232" 
d="M702 217q115 0 176 65t80 238l25 242q17 153 -35.5 206.5t-153.5 53.5h-23l-84 -805h15zM474 217h16l85 805h-23q-162 0 -197 -91t-43 -169l-26 -242q-6 -44 -6 -74t4 -66q10 -92 57.5 -127.5t132.5 -35.5zM453 67q-363 0 -363 363q0 42 5 89l22 213q34 319 196.5 374
t246.5 55h30l52 497h196l-52 -497h38q169 0 260 -93t91 -260q0 -36 -4 -76l-22 -213q-48 -452 -447 -452h-30l-49 -457h-196l48 457h-22z" />
    <glyph glyph-name="afii10087" unicode="&#x445;" horiz-adv-x="794" 
d="M-28 0l331 622l-202 562h205l136 -381l197 381h209l-332 -588l213 -596h-202l-147 408l-208 -408h-200z" />
    <glyph glyph-name="afii10088" unicode="&#x446;" horiz-adv-x="984" 
d="M732 -300l13 300h-682l124 1184h211l-107 -1033h290l108 1033h212l-108 -1033h140l-47 -451h-154z" />
    <glyph glyph-name="afii10089" unicode="&#x447;" horiz-adv-x="879" 
d="M392 459q-230 0 -276 150q-12 40 -12 78t3 65l45 432h212l-45 -435q-1 -13 -1 -45t27 -63t97 -31t130 10l59 564h212l-124 -1184h-212l49 472q-98 -13 -164 -13z" />
    <glyph glyph-name="afii10090" unicode="&#x448;" horiz-adv-x="1270" 
d="M63 0l124 1184h205l-108 -1033h212l108 1033h205l-108 -1033h220l108 1033h205l-124 -1184h-1047z" />
    <glyph glyph-name="afii10091" unicode="&#x449;" horiz-adv-x="1361" 
d="M1067 -300l13 300h-1017l124 1184h204l-108 -1033h214l108 1033h205l-108 -1033h221l108 1033h205l-108 -1033h141l-48 -451h-154z" />
    <glyph glyph-name="afii10092" unicode="&#x44a;" horiz-adv-x="979" 
d="M433 126q157 0 227 52.5t70 221.5q0 46 -11 76q-32 91 -231 93h-27l-46 -443h18zM420 0h-231l108 1027h-246l17 157h457l-51 -489h40q125 -1 247 -25.5t153 -153.5q15 -60 5 -167q-20 -192 -131.5 -270.5t-367.5 -78.5z" />
    <glyph glyph-name="afii10093" unicode="&#x44b;" horiz-adv-x="1263" 
d="M891 0l124 1184h212l-124 -1184h-212zM307 126q156 0 218 46.5t76 177.5q15 116 -33.5 166.5t-206.5 52.5h-27l-46 -443h19zM796 434q0 -260 -123.5 -347t-379.5 -87h-230l124 1184h211l-50 -489h39q125 -1 204 -17t130 -56t63 -92t12 -96z" />
    <glyph glyph-name="afii10094" unicode="&#x44c;" horiz-adv-x="843" 
d="M307 126q156 0 218 46.5t76 177.5q15 116 -33.5 166.5t-206.5 52.5h-27l-46 -443h19zM796 434q0 -260 -123.5 -347t-379.5 -87h-230l124 1184h211l-50 -489h39q125 -1 204 -17t130 -56t63 -92t12 -96z" />
    <glyph glyph-name="afii10095" unicode="&#x44d;" horiz-adv-x="841" 
d="M70 255q0 44 6 95l4 32h192l-4 -32q-4 -40 -4 -86t15 -78q23 -47 100 -47t108 57t47 216l13 120h-287l13 120h286l14 127q8 63 8 101q1 38 -5 78q-11 82 -99 82q-87 0 -117 -50.5t-41 -154.5l-5 -57h-193l5 43q19 188 100 282.5t275 94.5t253 -128q36 -80 36 -175
t-10 -168l-29 -272q-25 -235 -105.5 -353.5t-276.5 -118.5t-257 93q-42 67 -42 179z" />
    <glyph glyph-name="afii10096" unicode="&#x44e;" horiz-adv-x="1165" 
d="M928 878q0 31 1 49q2 31 -19.5 74t-80.5 43t-89.5 -42t-41 -97.5t-17.5 -129.5l-39 -368q-10 -107 -10 -151t23 -80t88 -36t92.5 58t34.5 114t11 95l39 368q8 72 8 103zM622.5 -17q-181.5 0 -172.5 321q0 55 7 117l10 101h-163l-54 -522h-187l124 1184h187l-55 -522h164
l10 100q34 331 149.5 385t202.5 54t177.5 -49t90.5 -273q0 -55 -8 -117l-36 -341q-34 -329 -149.5 -383.5t-297 -54.5z" />
    <glyph glyph-name="afii10097" unicode="&#x44f;" horiz-adv-x="878" 
d="M591 1061q-144 0 -212.5 -59.5t-68.5 -219.5q0 -90 44 -140t188 -51h27l49 470h-27zM117 753q0 247 123 338.5t374 92.5h228l-124 -1184h-211l49 468q-61 0 -109 4l-245 -472h-229l277 503q-133 51 -133 250z" />
    <glyph glyph-name="uni0450" unicode="&#x450;" horiz-adv-x="856" 
d="M466 1323l-181 404h213l75 -404h-107zM602 938q-4 106 -107 106q-81 0 -113 -57t-49 -216l-6 -66h260l10 107q5 56 5 85v41zM386 -17q-199 0 -264 119q-46 86 -42 216q0 63 8 137l29 274q26 242 112 357q87 115 290 115t256 -135q30 -79 30 -180q0 -100 -12 -199l-11 -97
h-468l-17 -160q-3 -34 -5 -49t-3 -44t-1 -43v-36q0 -24 5 -35q3 -11 9 -27q18 -56 113 -56q114 0 133 198l8 73h207l-6 -48q-39 -380 -371 -380z" />
    <glyph glyph-name="afii10071" unicode="&#x451;" horiz-adv-x="856" 
d="M587 1323l24 221h214l-23 -221h-215zM238 1323l23 221h213l-23 -221h-213zM602 938q-4 106 -107 106q-81 0 -113 -57t-49 -216l-6 -66h260l10 107q5 56 5 85v41zM386 -17q-199 0 -264 119q-46 86 -42 216q0 63 8 137l29 274q26 242 112 357q87 115 290 115t256 -135
q30 -79 30 -180q0 -100 -12 -199l-11 -97h-468l-17 -160q-3 -34 -5 -49t-3 -44t-1 -43v-36q0 -24 5 -35q3 -11 9 -27q18 -56 113 -56q114 0 133 198l8 73h207l-6 -48q-39 -380 -371 -380z" />
    <glyph glyph-name="afii10099" unicode="&#x452;" horiz-adv-x="929" 
d="M351 -157q130 0 165 50t46.5 123t19.5 150l62 590q4 61 -13 88q-17 26 -69 26t-110 -22t-73 -34l-85 -814h-212l132 1265h-149l13 127h150l28 266h212l-28 -266h288l-13 -127h-288l-36 -340q46 34 125.5 59t142.5 25q115 -1 160 -55t44 -123q0 -12 -1 -24l-64 -598
q-21 -209 -49 -290.5t-55.5 -115.5t-88.5 -68t-226 -34h-68l15 142h25z" />
    <glyph glyph-name="afii10100" unicode="&#x453;" horiz-adv-x="593" 
d="M383 1323l164 404h212l-268 -404h-108zM63 0l124 1184h472l-16 -152h-260l-109 -1032h-211z" />
    <glyph glyph-name="afii10101" unicode="&#x454;" horiz-adv-x="811" 
d="M376 -17q-201 0 -260 129q-36 80 -36 174t10 167l29 275q20 190 59.5 273t104 141.5t239.5 58.5t236 -95q41 -63 41 -179q0 -45 -6 -98l-3 -33h-192l3 34q5 44 5 90t-14 77q-22 47 -100 47t-109.5 -57t-47.5 -216l-11 -99h293l-15 -140h-292l-13 -131q-7 -65 -7 -121
t13 -86q22 -54 100 -54t107 51t41 162l5 53h192l-4 -40q-31 -293 -149.5 -338t-218.5 -45z" />
    <glyph glyph-name="afii10102" unicode="&#x455;" horiz-adv-x="762" 
d="M579 836q-4 208 -120 208q-61 0 -101 -38t-40 -101q0 -62 51 -111l186 -188q139 -137 139 -280q0 -175 -105 -259t-252 -84t-223 89t-77 230v15l182 53q2 -230 135 -230q66 0 110 41t44 118t-82 153l-180 169q-120 113 -120 240q0 170 110 264q88 77 224 77t202 -86
t66 -215v-12z" />
    <glyph glyph-name="afii10103" unicode="&#x456;" horiz-adv-x="474" 
d="M223 1337l23 225h216l-23 -225h-216zM82 0l124 1184h212l-124 -1184h-212z" />
    <glyph glyph-name="afii10104" unicode="&#x457;" horiz-adv-x="454" 
d="M388 1323l24 221h214l-23 -221h-215zM39 1323l23 221h213l-23 -221h-213zM77 0l124 1184h212l-124 -1184h-212z" />
    <glyph glyph-name="afii10105" unicode="&#x458;" horiz-adv-x="457" 
d="M237 1358l24 227h214l-24 -227h-214zM-44 -139q68 0 100 38t39 107l124 1178h212l-126 -1200q-15 -137 -98 -210.5t-217 -73.5q-73 0 -107 13l17 153q30 -5 56 -5z" />
    <glyph glyph-name="afii10106" unicode="&#x459;" horiz-adv-x="1342" 
d="M835 126q132 0 185 47t67 171q3 28 3 51q0 77 -37 119t-173 42h-17l-44 -430h16zM911 682q225 0 298 -66t73 -219q0 -283 -152 -338.5t-313 -58.5h-224l108 1022h-214l-65 -399q-51 -321 -117.5 -457.5t-154 -156t-167.5 -19.5h-22l17 159q83 0 128 50t71 155t57 300
l84 530h611l-52 -502h34z" />
    <glyph glyph-name="afii10107" unicode="&#x45a;" horiz-adv-x="1284" 
d="M1040 393q0 79 -37 119t-173 44q-24 0 -28 1l-44 -431q156 0 210.5 47t68.5 171q3 26 3 49zM1232 397q0 -284 -154.5 -339.5t-317.5 -57.5h-228l58 547h-258l-58 -547h-211l124 1184h211l-51 -492h258l51 492h212l-52 -501q261 0 349 -75q67 -57 67 -211z" />
    <glyph glyph-name="afii10108" unicode="&#x45b;" horiz-adv-x="929" 
d="M568 870q-46 0 -111 -22.5t-78 -33.5l-85 -814h-212l132 1265h-149l13 127h150l28 266h212l-28 -266h288l-13 -127h-288l-36 -340q46 34 125.5 59t142.5 25q115 -1 160 -55t44 -123q0 -12 -1 -24l-85 -807h-212l79 756q4 61 -13 88q-17 26 -63 26z" />
    <glyph glyph-name="afii10109" unicode="&#x45c;" horiz-adv-x="843" 
d="M509 1323l164 404h212l-268 -404h-108zM63 0l124 1184h211l-51 -501h65l278 501h218l-312 -573l192 -611h-222l-169 554h-64l-59 -554h-211z" />
    <glyph glyph-name="uni045d" unicode="&#x45d;" horiz-adv-x="929" 
d="M500 1323l-181 404h213l75 -404h-107zM63 0l124 1184h178l-84 -808l445 808h167l-124 -1184h-176l86 814l-445 -814h-171z" />
    <glyph glyph-name="afii10110" unicode="&#x45e;" horiz-adv-x="809" 
d="M360 1586q0 -141 142 -143q79 1 123 43t55 136h127q-33 -299 -317 -299q-256 0 -256 247q0 25 3 52h125q-2 -19 -2 -36zM246 34q0 29 -4 63l-133 1087h198l54 -616l22 -377l91 375l164 618h207l-383 -1191q-57 -182 -164 -237q-106 -55 -280 -57l19 175q133 2 171 42
t38 118z" />
    <glyph glyph-name="afii10193" unicode="&#x45f;" horiz-adv-x="908" 
d="M308 -300l13 300h-258l124 1184h211l-107 -1032h261l108 1032h212l-124 -1184h-254l-42 -300h-144z" />
    <glyph glyph-name="uni0490" unicode="&#x490;" horiz-adv-x="771" 
d="M82 0l174 1658h488l22 220h141l-40 -386h-404l-157 -1492h-224z" />
    <glyph glyph-name="afii10098" unicode="&#x491;" horiz-adv-x="661" 
d="M77 0l124 1184h389l21 191h107l-34 -329h-301l-110 -1046h-196z" />
    <glyph glyph-name="uni04AF" unicode="&#x4af;" horiz-adv-x="792" 
d="M217 -347l43 416l-159 1115h215l80 -796l242 796h215l-400 -1108l-44 -423h-192z" />
    <glyph glyph-name="uni04B0" unicode="&#x4b0;" horiz-adv-x="969" 
d="M84 618l16 154h293l-249 886h209l185 -700l326 700h212l-432 -886h256l-17 -154h-273l-65 -618h-214l65 618h-312z" />
    <glyph glyph-name="uni04B1" unicode="&#x4b1;" horiz-adv-x="802" 
d="M34 -28l14 142h206l-153 1070h215l80 -796l242 796h215l-386 -1070h204l-15 -142h-214l-33 -319h-192l33 319h-216z" />
    <glyph glyph-name="uni04E8" unicode="&#x4e8;" horiz-adv-x="1104" 
d="M500 -18q-246 0 -336 145q-66 109 -66 219t8 171l67 634q27 257 145.5 390.5t361.5 133.5t321.5 -121.5t78.5 -289.5q0 -53 -6 -113l-68 -635q-41 -397 -211.5 -465.5t-294.5 -68.5zM508 158q148 0 200.5 82t67.5 228l30 292h-449l-30 -292q-5 -52 -5 -93t4 -71
q8 -68 55 -107t127 -39zM858 1276q0 30 -2 66t-21 76t-62.5 61t-147 21t-155.5 -79t-67 -224l-30 -284h449l30 284q6 49 6 79z" />
    <glyph glyph-name="uni04E9" unicode="&#x4e9;" horiz-adv-x="863" 
d="M508 1201q312 0 304 -333q0 -50 -7 -106l-36 -341q-34 -328 -163.5 -383t-225.5 -55t-199 48.5t-103 281.5q0 51 7 108l35 341q23 215 112.5 327t275.5 112zM397 140q27 0 48.5 8.5t36.5 19.5t32.5 46t25.5 80.5t15 112.5l15 142h-260l-15 -142q-13 -124 -8 -153t12 -52
t19.5 -34.5t32 -19.5t46.5 -8zM490 1044q-29 0 -53 -9.5t-48.5 -42t-36 -87.5t-18.5 -130l-10 -92h260l10 92q13 123 8 153t-12 53t-19.5 34.5t-32 20t-48.5 8.5z" />
    <glyph glyph-name="uni1E02" unicode="&#x1e02;" horiz-adv-x="1068" 
d="M594 1797l25 241h215l-26 -241h-214zM553 963q142 0 204 65t78 215q3 31 3 59t-6 63q-14 79 -87 103t-219 24h-63l-55 -529h145zM487 161q151 0 213 72t80 242q4 35 4 66q0 111 -44 173q-56 80 -205 79h-145l-66 -632h163zM633 1658q225 0 322 -102q79 -83 79 -239
q0 -35 -4 -74q-33 -316 -271 -350q141 -35 197 -139q42 -78 42 -198q0 -38 -4 -81q-24 -223 -141 -349t-332 -126h-439l174 1658h377z" />
    <glyph glyph-name="uni1E03" unicode="&#x1e03;" horiz-adv-x="910" 
d="M499 1780l25 241h215l-26 -241h-214zM646 895q0 139 -108 139q-75 0 -158 -64l-81 -765q67 -55 139 -55t103 44q48 68 68 275l30 283q7 80 7 143zM629 1201q228 0 228 -341v-22q-1 -42 -6 -86l-30 -282q-51 -487 -344 -487q-106 0 -190 105l-9 -88h-212l174 1658h212
l-59 -568q107 111 236 111z" />
    <glyph glyph-name="uni1E0A" unicode="&#x1e0a;" horiz-adv-x="1078" 
d="M586 1797l25 241h215l-26 -241h-214zM617 1658q271 0 367 -128q50 -64 62 -134t11 -124q0 -56 -7 -118l-64 -615q-29 -271 -152 -405t-374 -134h-378l174 1658h361zM461 161q134 0 208 69q52 48 77 204q8 50 18 147l58 547q9 80 9 128t-3 79q-8 81 -62 119t-170 38h-133
l-139 -1331h137z" />
    <glyph glyph-name="uni1E0B" unicode="&#x1e0b;" horiz-adv-x="899" 
d="M470 1780l25 241h215l-26 -241h-214zM508 1034q-92 0 -127 -71t-47 -186l-35 -329q-7 -78 -7 -112v-42q2 -144 113 -144q65 0 143 48l82 780q-69 56 -122 56zM334 -17h-3q-151 0 -210 113t-31 370l24 229q29 289 117 398q88 108 224 108q106 -1 189 -93l57 550h212
l-174 -1658h-212l8 76q-96 -93 -201 -93z" />
    <glyph glyph-name="uni1E1E" unicode="&#x1e1e;" horiz-adv-x="799" 
d="M481 1797l25 241h215l-26 -241h-214zM82 0l174 1658h636l-16 -161h-412l-59 -558h322l-17 -161h-322l-82 -778h-224z" />
    <glyph glyph-name="uni1E1F" unicode="&#x1e1f;" horiz-adv-x="584" 
d="M332 1723l25 241h215l-26 -241h-214zM554 1601q47 0 138 -12l-17 -158l-80 10q-59 1 -83 -37t-32 -117l-12 -103h182l-16 -158h-182l-108 -1026h-211l108 1026h-143l16 158h143l8 68q22 219 93 284t196 65z" />
    <glyph glyph-name="uni1E40" unicode="&#x1e40;" horiz-adv-x="1348" 
d="M706 1797l25 241h215l-26 -241h-214zM77 0l206 1658h219l154 -1354l442 1354h218l-142 -1658h-181l109 1217l-413 -1217h-127l-155 1216l-147 -1216h-183z" />
    <glyph glyph-name="uni1E41" unicode="&#x1e41;" horiz-adv-x="1359" 
d="M666 1323l25 241h215l-26 -241h-214zM534 1034q-62 0 -159 -76l-101 -958h-211l124 1184h211l-11 -116q153 133 293 133t160 -145q162 145 315 145q101 0 133 -77q24 -55 23 -99q0 -44 -4 -68l-101 -957h-212l94 896q2 21 2 51q0 31 -14 59t-76 28t-161 -78l-100 -956
h-212l94 896q7 73 -9 106q-16 32 -78 32z" />
    <glyph glyph-name="uni1E56" unicode="&#x1e56;" horiz-adv-x="984" 
d="M573 1797l25 241h215l-26 -241h-214zM519 934q151 0 215 56t80 211q8 59 8 86v36q-2 51 -12 85q-25 90 -228 89h-118l-59 -563h114zM667 1658q215 0 299 -116q66 -92 67 -249q-1 -265 -143 -406q-116 -114 -315 -114h-187l-82 -773h-224l174 1658h411z" />
    <glyph glyph-name="uni1E57" unicode="&#x1e57;" horiz-adv-x="908" 
d="M448 1323l25 241h215l-26 -241h-214zM644 895q0 139 -108 139q-73 0 -159 -64l-81 -764q69 -56 155 -56q113 0 143 215q6 40 13 104l30 283q7 80 7 143zM626 1201q229 0 229 -344q-1 -17 -2 -42t-4 -63l-30 -282q-51 -487 -344 -487q-106 0 -191 106l-50 -479h-212
l165 1574h212l-9 -95q108 112 236 112z" />
    <glyph glyph-name="uni1E60" unicode="&#x1e60;" horiz-adv-x="966" 
d="M529 1797l25 241h215l-26 -241h-214zM775 1250q0 252 -174 251q-209 0 -228 -186q-2 -19 -2 -52q0 -84 88 -175l255 -249q193 -191 193 -409q-1 -218 -143 -342q-120 -106 -312 -106t-284 122q-90 122 -90 315q0 20 1 42l205 54q-11 -255 94 -327q44 -30 122 -30t137 56
t59 178t-96 230q-19 22 -54 58l-253 250q-126 128 -126 274q-1 249 137 369q114 100 295 102h7q192 -1 278 -102t85 -308v-19l-195 -52q1 24 1 56z" />
    <glyph glyph-name="uni1E61" unicode="&#x1e61;" horiz-adv-x="762" 
d="M365 1323l25 241h215l-26 -241h-214zM579 836q-4 208 -120 208q-61 0 -101 -38t-40 -101q0 -62 51 -111l186 -188q139 -137 139 -280q0 -175 -105 -259t-252 -84t-223 89t-77 230v15l182 53q2 -230 135 -230q66 0 110 41t44 118t-82 153l-180 169q-120 113 -120 240
q0 170 110 264q88 77 224 77t202 -86t66 -215v-12z" />
    <glyph glyph-name="uni1E6A" unicode="&#x1e6a;" horiz-adv-x="817" 
d="M441 1797l25 241h215l-26 -241h-214zM254 0l156 1492h-305l17 166h825l-17 -166h-296l-157 -1492h-223z" />
    <glyph glyph-name="uni1E6B" unicode="&#x1e6b;" horiz-adv-x="625" 
d="M328 1653l25 241h215l-26 -241h-214zM372 -16q-134 0 -179 63t-46 163q0 26 3 54l82 778h-126l15 142h125l37 347h212l-37 -347h191l-14 -142h-191l-81 -763q-2 -20 -2 -51q1 -31 17 -56t72 -25t90 6l-17 -158q-86 -11 -151 -11z" />
    <glyph glyph-name="Wgrave" unicode="&#x1e80;" horiz-adv-x="1490" 
d="M830 1797l-181 404h213l75 -404h-107zM296 0l-98 1658h189l54 -1208l353 1201h159l102 -1205l303 1212h184l-441 -1658h-163l-104 1242l-367 -1242h-171z" />
    <glyph glyph-name="wgrave" unicode="&#x1e81;" horiz-adv-x="1201" 
d="M636 1323l-181 404h213l75 -404h-107zM200 0l-66 1184h175l33 -884l253 884h163l68 -881l218 881h174l-319 -1184h-181l-74 848l-251 -848h-193z" />
    <glyph glyph-name="Wacute" unicode="&#x1e82;" horiz-adv-x="1490" 
d="M830 1797l164 404h212l-268 -404h-108zM296 0l-98 1658h189l54 -1208l353 1201h159l102 -1205l303 1212h184l-441 -1658h-163l-104 1242l-367 -1242h-171z" />
    <glyph glyph-name="wacute" unicode="&#x1e83;" horiz-adv-x="1201" 
d="M636 1323l164 404h212l-268 -404h-108zM200 0l-66 1184h175l33 -884l253 884h163l68 -881l218 881h174l-319 -1184h-181l-74 848l-251 -848h-193z" />
    <glyph glyph-name="Wdieresis" unicode="&#x1e84;" horiz-adv-x="1490" 
d="M951 1797l24 221h214l-23 -221h-215zM602 1797l23 221h213l-23 -221h-213zM296 0l-98 1658h189l54 -1208l353 1201h159l102 -1205l303 1212h184l-441 -1658h-163l-104 1242l-367 -1242h-171z" />
    <glyph glyph-name="wdieresis" unicode="&#x1e85;" horiz-adv-x="1201" 
d="M757 1323l24 221h214l-23 -221h-215zM408 1323l23 221h213l-23 -221h-213zM200 0l-66 1184h175l33 -884l253 884h163l68 -881l218 881h174l-319 -1184h-181l-74 848l-251 -848h-193z" />
    <glyph glyph-name="Ygrave" unicode="&#x1ef2;" horiz-adv-x="983" 
d="M577 1797l-181 404h213l75 -404h-107zM337 0l61 582l-247 1076h209l173 -811l338 811h212l-471 -1076l-61 -582h-214z" />
    <glyph glyph-name="ygrave" unicode="&#x1ef3;" horiz-adv-x="799" 
d="M437 1323l-181 404h213l75 -404h-107zM250 -68q6 20 6 45q0 24 -22 196l-133 1011h215l70 -897l252 897h215l-415 -1251q-42 -125 -138 -177t-260 -52h-28l17 161q148 -1 182 23q33 24 39 44z" />
    <glyph glyph-name="endash" unicode="&#x2013;" horiz-adv-x="1007" 
d="M19 418l16 163h965l-17 -163h-964z" />
    <glyph glyph-name="emdash" unicode="&#x2014;" horiz-adv-x="1948" 
d="M32 546l16 156h1905l-16 -156h-1905z" />
    <glyph glyph-name="quoteleft" unicode="&#x2018;" horiz-adv-x="759" 
d="M180 1192l21 196q17 163 71 247.5t162 90.5l29 -79q-62 -6 -91 -58t-41 -170h106l-24 -227h-233z" />
    <glyph glyph-name="quoteright" unicode="&#x2019;" horiz-adv-x="419" 
d="M227 1125l-30 78q62 7 91 58.5t41 169.5h-106l24 227h233l-20 -195q-18 -164 -72 -248t-161 -90z" />
    <glyph glyph-name="quotesinglbase" unicode="&#x201a;" horiz-adv-x="572" 
d="M168 -266l-29 78q62 6 91 58t41 170h-106l24 227h233l-21 -196q-16 -162 -70.5 -246.5t-162.5 -90.5z" />
    <glyph glyph-name="quotedblleft" unicode="&#x201c;" horiz-adv-x="915" 
d="M594 1192l21 196q17 163 71 247.5t162 90.5l29 -79q-62 -6 -91 -58t-41 -170h106l-24 -227h-233zM185 1192l21 196q17 163 71 247.5t162 90.5l29 -79q-62 -6 -91 -58t-41 -170h106l-24 -227h-233z" />
    <glyph glyph-name="quotedblright" unicode="&#x201d;" horiz-adv-x="970" 
d="M678 1124l-28 78q62 7 90.5 58.5t40.5 169.5h-106l24 227h233l-20 -195q-18 -164 -72.5 -248t-161.5 -90zM321 1124l-29 78q62 7 91 59t41 169h-106l24 227h232l-20 -195q-17 -163 -71.5 -247.5t-161.5 -90.5z" />
    <glyph glyph-name="quotedblbase" unicode="&#x201e;" horiz-adv-x="928" 
d="M563 -265l-30 78q62 7 91 59t41 169h-105l23 227h233l-21 -195q-16 -163 -70.5 -247.5t-161.5 -90.5zM153 -265l-29 78q62 7 91 59t41 169h-106l24 227h233l-21 -195q-16 -163 -70.5 -247.5t-162.5 -90.5z" />
    <glyph glyph-name="dagger" unicode="&#x2020;" horiz-adv-x="766" 
d="M232 0l116 1106h-199l18 165h199l39 372h207l-39 -372h198l-18 -165h-198l-116 -1106h-207z" />
    <glyph glyph-name="daggerdbl" unicode="&#x2021;" horiz-adv-x="777" 
d="M240 0l55 520h-219l16 143h218l40 378h-218l14 143h218l49 460h202l-49 -460h219l-15 -143h-218l-40 -378h218l-15 -143h-218l-55 -520h-202z" />
    <glyph glyph-name="bullet" unicode="&#x2022;" horiz-adv-x="731" 
d="M376 562q-108 0 -156 58t-49 142q0 132 73.5 202t180.5 70t156 -59t50 -142q0 -131 -73.5 -201t-181.5 -70z" />
    <glyph glyph-name="ellipsis" unicode="&#x2026;" horiz-adv-x="1128" 
d="M789 0l26 241h214l-25 -241h-215zM411 0l25 241h215l-26 -241h-214zM33 0l25 241h214l-25 -241h-214z" />
    <glyph glyph-name="perthousand" unicode="&#x2030;" horiz-adv-x="2536" 
d="M529 0l637 1662h184l-637 -1662h-184zM2094 -11q-279 0 -279 299q0 37 4 79l15 139q19 185 103.5 279.5t250.5 94.5t230 -92q50 -71 50 -194q0 -37 -4 -78l-17 -155q-38 -372 -353 -372zM2275 592q0 125 -104 125q-76 0 -104 -55.5t-38 -146.5l-17 -156q-2 -35 -2 -60
v-43q2 -46 28 -76t68 -30q80 0 109 59t39 151l17 157q4 41 4 75zM1357 -11q-279 0 -279 299q0 37 4 79l15 139q19 185 103 279.5t250 94.5t230 -92q50 -71 50 -194q0 -37 -4 -78l-16 -155q-40 -372 -353 -372zM1537 592q0 126 -104 126q-76 0 -104 -55.5t-38 -147.5
l-16 -156q-8 -138 21.5 -173.5t88.5 -35.5q108 0 132 211l16 156q4 41 4 75zM426 784q-279 0 -279 299q0 37 4 79l15 138q19 185 103 279.5t250 94.5t231 -91q50 -70 50 -195q0 -37 -4 -78l-17 -154q-19 -182 -104 -277t-249 -95zM606 1374v39q-2 45 -28 72t-70 27
q-82 0 -109.5 -56t-37.5 -147l-17 -156q-2 -39 -2 -63v-40q5 -106 113 -106q109 0 131 211l17 156q3 39 3 63z" />
    <glyph glyph-name="guilsinglleft" unicode="&#x2039;" horiz-adv-x="574" 
d="M465 92l-355 465l10 103l453 465l-27 -266l-268 -249l215 -252z" />
    <glyph glyph-name="guilsinglright" unicode="&#x203a;" horiz-adv-x="604" 
d="M97 195l28 266l267 250l-215 250l28 267l355 -465l-10 -104z" />
    <glyph glyph-name="fraction" unicode="&#x2044;" horiz-adv-x="474" 
d="M-49 0l467 1658h181l-465 -1658h-183z" />
    <glyph glyph-name="uni2074" unicode="&#x2074;" horiz-adv-x="715" 
d="M253 972h191l43 416zM400 563l31 299h-325l12 110l412 686h147l-72 -686h120l-12 -110h-120l-31 -299h-162z" />
    <glyph glyph-name="Euro" unicode="&#x20ac;" horiz-adv-x="1016" 
d="M500 -18q-212 0 -303.5 103t-95.5 269v33q0 67 6 142l10 89h-121l12 117h121l22 211h-121l13 118h121l6 59q28 261 137 406.5t350 145.5q242 0 313.5 -111t71.5 -262q0 -48 -6 -104l-9 -86h-213l8 71q13 123 10 154t-7.5 55t-20.5 50.5t-53 42t-96 15.5t-120 -24.5
t-91 -104t-46 -217.5l-9 -90h211l-13 -118h-210l-23 -211h211l-12 -117h-210l-14 -125q-7 -63 -7 -137t28 -124q40 -74 149 -74t156.5 45t65.5 115.5t29 172.5l8 78h212l-9 -78q-38 -379 -194 -444t-267 -65z" />
    <glyph glyph-name="afii61289" unicode="&#x2113;" horiz-adv-x="1024" 
d="M985 1673q0 83 -49 100q-10 4 -32 4t-56 -34t-48 -88l-174 -664q210 262 284.5 430.5t74.5 251.5zM506 89q87 0 208 134l59 -75q-67 -72 -149 -120q-150 -89 -254 -17q-60 41 -59 160q0 71 24 168l48 191l-184 -228l-67 67l310 390l226 894q34 132 140 203q69 46 136 46
q124 0 158 -117q10 -36 10 -79q0 -150 -114 -355t-290 -422l-145 -179l-110 -420q-20 -83 -20 -137q0 -104 73 -104z" />
    <glyph glyph-name="afii61352" unicode="&#x2116;" horiz-adv-x="1942" 
d="M1587 1201q312 0 304 -333q0 -50 -7 -106l-36 -341q-34 -328 -222 -408q-70 -30 -167 -30q-97 1 -161 31q-142 67 -141 299q0 51 7 108l35 341q23 215 113 327t275 112zM1476 140q26 0 48 8t37 20q15 11 27 34q24 47 31 93q8 45 15 112l39 368q13 123 8 153
q-12 69 -37 93q-25 23 -65 23q-39 0 -63 -10t-40 -30q-33 -44 -45 -99t-18 -130l-39 -368q-13 -124 -8 -153t12 -52q8 -22 20 -34t32 -20t46 -8zM82 0l174 1658h154l359 -1119l117 1119h188l-174 -1658h-145l-362 1150l-122 -1150h-189z" />
    <glyph glyph-name="trademark" unicode="&#x2122;" horiz-adv-x="1499" 
d="M307 756l81 770h-167l13 132h483l-13 -132h-157l-81 -770h-159zM724 756l95 902h147l132 -634l280 634h135l-95 -902h-125l59 568l-244 -568h-67l-132 565l-59 -565h-126z" />
    <glyph glyph-name="estimated" unicode="&#x212e;" horiz-adv-x="861" 
d="M628 997q0 120 -115 120q-103 0 -129.5 -84t-39.5 -211l-17 -162h271l21 203q9 80 9 134zM81 313q0 50 6 108l36 338q25 240 113.5 338.5t286.5 98.5q143 0 210 -52t75 -158q9 -98 -10 -269l-14 -129h-464l-27 -257q-9 -75 -9 -110t1 -51q4 -62 40.5 -89t106.5 -27
t106.5 13.5t64.5 57t43 185.5l11 101h108l-10 -94q-10 -93 -28.5 -152.5t-73 -120.5t-249.5 -61q-194 1 -268 101q-55 76 -55 229z" />
    <glyph glyph-name="partialdiff" unicode="&#x2202;" horiz-adv-x="970" 
d="M541 964q-169 0 -211 -227l-67 -349q-2 -10 -3.5 -25.5t-3.5 -28.5t-1 -32q2 -171 163 -169q87 0 144.5 53t95.5 232l97 465q-121 81 -214 81zM815 1193q0 315 -401 350l54 136q123 0 186.5 -22t156 -68t145.5 -251q16 -53 16 -88v-40q0 -61 -6 -133l-105 -580
q-69 -354 -183.5 -430.5t-178 -84t-123.5 -7.5t-158 37.5t-138 172.5q-29 100 -3 231l69 352q31 168 131.5 262t252.5 94t261 -113q24 104 24 182z" />
    <glyph glyph-name="product" unicode="&#x220f;" horiz-adv-x="1142" 
d="M41 -390l215 2048h881l-215 -2048h-214l199 1888h-454l-199 -1888h-213z" />
    <glyph glyph-name="summation" unicode="&#x2211;" horiz-adv-x="828" 
d="M-34 -390l440 1033l-225 1015h665l-17 -166h-413l192 -849l-379 -872h425l-17 -161h-671z" />
    <glyph glyph-name="minus" unicode="&#x2212;" horiz-adv-x="791" 
d="M121 751l14 127h609l-14 -127h-609z" />
    <glyph glyph-name="uni2215" unicode="&#x2215;" horiz-adv-x="751" 
d="M9 0l624 1658h184l-624 -1658h-184z" />
    <glyph glyph-name="uni2219" unicode="&#x2219;" horiz-adv-x="363" 
d="M101 661l23 221h212l-22 -221h-213z" />
    <glyph glyph-name="radical" unicode="&#x221a;" horiz-adv-x="1040" 
d="M533 310l397 1348h209l-532 -1658h-215l-121 1058l-215 -1l13 127h390q2 -14 22.5 -245t22.5 -242t15 -194t14 -193z" />
    <glyph glyph-name="infinity" unicode="&#x221e;" horiz-adv-x="1291" 
d="M1104 583q0 55 -29 85t-80 29h-3q-37 -1 -77.5 -25.5t-109.5 -93.5q54 -69 90.5 -94.5t80.5 -25.5t86 35t42 90zM353 714q-53 0 -97 -41t-43 -102q-1 -61 29 -95t81 -34q5 0 29 1q67 3 196 135q-57 74 -100 104t-87 32h-8zM318 260q-144 0 -204 79t-61 188q0 174 94 271
t238 97q99 0 168 -44t136 -128q79 81 147 119t154 38h13q137 -4 198 -77t61 -179q0 -169 -92.5 -257t-230.5 -92h-9q-88 0 -148 39t-123 118q-85 -84 -163.5 -128t-177.5 -44z" />
    <glyph glyph-name="integral" unicode="&#x222b;" horiz-adv-x="656" 
d="M33 -229q60 0 84 37.5t32 117.5l149 1416q17 164 74 251t215 87q56 0 137 -12l-16 -158l-79 10q-61 0 -85 -37.5t-32 -116.5l-149 -1417q-22 -214 -94 -276t-195 -62q-55 0 -138 12l17 158q55 -10 80 -10z" />
    <glyph glyph-name="approxequal" unicode="&#x2248;" horiz-adv-x="911" 
d="M496.5 942.5q-91.5 58.5 -143.5 58.5t-155 -79l-65 102q59 54 133 100.5t119 46.5t99 -29t106 -58t80 -29t56.5 14t104.5 67l66 -97q-58 -59 -128 -107t-126 -48q-55 0 -146.5 58.5zM641 690q38 0 151 81l67 -98q-58 -59 -128.5 -107t-116.5 -48t-101.5 29.5t-108 59
t-96.5 29.5t-149 -79l-65 102q60 54 135 100.5t119 46.5t98 -29t105.5 -58t89.5 -29z" />
    <glyph glyph-name="notequal" unicode="&#x2260;" horiz-adv-x="852" 
d="M68 0l216 573h-162l17 162h205l76 198h-261l17 162h304l212 563h184l-212 -563h139l-17 -162h-183l-75 -198h238l-17 -162h-281l-216 -573h-184z" />
    <glyph glyph-name="lessequal" unicode="&#x2264;" horiz-adv-x="793" 
d="M18 0l14 127h609l-14 -127h-609zM640 217l-541 414l23 213l628 418l-23 -214l-457 -310l392 -308z" />
    <glyph glyph-name="greaterequal" unicode="&#x2265;" horiz-adv-x="787" 
d="M62 0l13 127h610l-14 -127h-609zM86 230l22 213l459 312l-394 306l23 214l542 -415l-22 -213z" />
    <glyph glyph-name="lozenge" unicode="&#x25ca;" horiz-adv-x="948" 
d="M445 143l291 449l-207 437l-290 -437zM383 0l-295 592l406 593h99l294 -593l-405 -592h-99z" />
    <glyph glyph-name="uniFB00" unicode="&#xfb00;" horiz-adv-x="1057" 
d="M554 1601q47 0 138 -12l-17 -158l-80 10q-59 1 -83 -37t-32 -117l-12 -103h266l8 68q22 219 93 284t196 65q47 0 138 -12l-17 -158l-80 10q-60 1 -84 -37t-31 -117l-12 -103h182l-16 -158h-182l-108 -1026h-211l108 1026h-266l-108 -1026h-211l108 1026h-143l16 158h143
l8 68q22 219 93 284t196 65z" />
    <glyph glyph-name="uniFB01" unicode="&#xfb01;" horiz-adv-x="998" 
d="M774 1358l24 227h194l-24 -227h-194zM576 1599q57 0 116 -10l-17 -158q-39 7 -89 7t-73.5 -33t-32.5 -118l-12 -103h481l-124 -1184h-212l108 1026h-269l-108 -1026h-211l108 1026h-143l16 158h143l8 68q19 180 88 263.5t223 83.5z" />
    <glyph glyph-name="uniFB02" unicode="&#xfb02;" horiz-adv-x="1045" 
d="M700 1481q-46 0 -77.5 -6t-53 -15t-45 -35.5t-32 -64t-16.5 -105.5l-8 -71h182l-16 -158h-182l-108 -1026h-211l108 1026h-143l16 158h143l8 68q14 123 28.5 162t31 69.5t53.5 67.5t113 62.5t209 25.5t344 -50l-167 -1589h-213l155 1472q-73 9 -119 9z" />
    <glyph glyph-name="uniFB03" unicode="&#xfb03;" horiz-adv-x="1500" 
d="M1257 1358l24 227h213l-24 -227h-213zM554 1601q47 0 138 -12l-17 -158l-80 10q-60 0 -83.5 -37.5t-31.5 -116.5l-12 -103h280l7 68q16 141 42.5 201t74.5 104t173 44q45 0 138 -12l-17 -158l-80 10q-60 0 -83.5 -37.5t-31.5 -116.5l-12 -103h491l-124 -1184h-211
l107 1026h-279l-108 -1026h-211l108 1026h-280l-108 -1026h-211l108 1026h-143l16 158h143l8 68q22 219 93 284t196 65z" />
    <glyph glyph-name="uniFB04" unicode="&#xfb04;" horiz-adv-x="1589" 
d="M554 1601q47 0 138 -12l-17 -158l-80 10q-59 1 -83 -37t-32 -117l-12 -103h274l8 68q22 219 93 284t196 65q47 0 138 -12l-17 -158l-80 10q-60 1 -84 -37t-31 -117l-12 -103h182l-16 -158h-182l-108 -1026h-211l108 1026h-274l-108 -1026h-211l108 1026h-143l16 158h143
l8 68q22 219 93 284t196 65zM1264 1358l24 227h213l-24 -227h-213zM1121 0l124 1184h212l-124 -1184h-212z" />
    <glyph glyph-name="foundryicon" horiz-adv-x="1413" 
d="M251 259l210 507l-394 326h535l219 508l123 -508h535l-465 -326l105 -507l-406 305z" />
    <glyph glyph-name="uni04AE" horiz-adv-x="969" 
d="M331 0l76 724l-263 934h209l185 -700l326 700h212l-455 -934l-76 -724h-214z" />
    </font>
</defs>
</svg>
